<?xml version="1.0" standalone="no"?>
<!DOCTYPE svg PUBLIC "-//W3C//DTD SVG 20010904//EN"
 "http://www.w3.org/TR/2001/REC-SVG-20010904/DTD/svg10.dtd">
<svg version="1.0" xmlns="http://www.w3.org/2000/svg"
 width="640.000000pt" height="1280.000000pt" viewBox="0 0 640.000000 1280.000000"
 preserveAspectRatio="xMidYMid meet">
<metadata>
Created by potrace 1.15, written by Peter Selinger 2001-2017
</metadata>
<g transform="translate(0.000000,1280.000000) scale(0.100000,-0.100000)"
fill="#676E80" stroke="none">
<path d="M4356 12768 c-3 -13 -8 -102 -11 -198 -18 -531 -83 -798 -305 -1240
-101 -202 -177 -336 -548 -961 -296 -500 -596 -1020 -772 -1339 -62 -113 -128
-226 -147 -253 -18 -26 -33 -49 -33 -52 0 -9 -92 -209 -147 -320 -30 -60 -64
-132 -75 -160 -10 -27 -26 -60 -33 -71 -13 -20 -17 -21 -52 -9 -48 17 -52 14
-98 -99 l-37 -89 39 -33 c21 -18 41 -33 45 -34 4 0 6 -26 6 -57 -1 -49 6 -76
45 -168 l48 -110 -4 -170 c-2 -94 -12 -226 -23 -295 -10 -69 -17 -157 -16
-196 2 -54 -1 -74 -13 -84 -8 -7 -15 -19 -15 -27 0 -24 -40 -95 -111 -194 -86
-121 -109 -169 -109 -238 0 -46 7 -68 46 -140 26 -47 70 -120 99 -161 75 -108
104 -170 114 -247 5 -37 11 -203 13 -368 3 -340 6 -325 -80 -417 l-46 -50 15
-58 15 -58 -32 -16 -33 -15 16 -53 c21 -71 70 -168 86 -168 6 0 19 4 26 9 24
15 47 -4 71 -61 12 -29 51 -119 86 -199 35 -80 64 -153 64 -163 0 -9 7 -16 16
-16 11 0 14 -5 10 -16 -4 -9 0 -24 7 -33 8 -9 72 -119 142 -246 233 -419 414
-731 880 -1520 306 -517 393 -672 488 -861 136 -272 207 -468 252 -693 36
-187 45 -294 45 -568 l0 -248 20 30 c11 17 27 60 36 95 27 108 4 527 -39 711
-11 45 -12 140 -6 480 10 497 29 3356 29 4223 0 559 1 600 18 612 16 11 17 50
20 508 3 419 1 499 -12 523 -12 25 -13 257 -4 1838 6 1064 7 2039 2 2365 -9
550 -9 556 13 665 24 120 43 355 43 535 0 92 -4 124 -20 158 -22 48 -28 51
-34 20z m-28 -2908 c0 -2049 -6 -2584 -32 -2700 -14 -65 -16 -132 -12 -525 2
-247 9 -628 15 -845 17 -633 -11 -4556 -35 -4729 -6 -44 -6 -44 -48 85 -101
306 -228 554 -697 1360 -247 425 -411 716 -554 984 -107 200 -335 661 -335
677 0 6 63 71 140 143 137 129 180 181 180 213 0 9 -27 72 -59 139 -114 238
-171 474 -187 779 l-7 126 57 26 c48 22 56 29 48 44 -5 10 -77 146 -160 303
-83 157 -163 311 -177 343 l-25 58 77 35 c107 47 105 45 136 95 51 83 58 149
51 494 -10 491 23 680 183 1047 36 84 67 170 70 198 8 68 -21 123 -143 275
-53 66 -108 134 -121 152 l-25 32 141 283 c226 457 389 753 806 1468 440 755
588 1053 677 1355 l23 80 7 -85 c3 -47 6 -906 6 -1910z"/>
</g>
</svg>
