<?xml version="1.0" encoding="utf-8"?>
<!-- Generator: Adobe Illustrator 19.0.0, SVG Export Plug-In . SVG Version: 6.00 Build 0)  -->
<svg version="1.1" id="Layer_1" xmlns="http://www.w3.org/2000/svg" xmlns:xlink="http://www.w3.org/1999/xlink" x="0px" y="0px"
	 viewBox="-224 115.1 510.8 330.9" style="enable-background:new -224 115.1 510.8 330.9;" xml:space="preserve">
<path d="M269.5,296.7L284,254c7.7-17.9-0.9-39.3-18.8-47.8L74.1,123.5c-27.3-11.1-58-11.1-85.3,0l-191.1,83.6
	c-17.9,7.7-26.5,29.9-18.8,46.9l14.5,42.7c0.9,3.4,4.3,6,7.7,6V347c-10.2,3.4-17.1,12.8-17.1,23.9v11.9c0,16.2,11.1,30.7,27.3,35
	C-115.4,436.6-42.8,446,31.4,446c70.8,0,136.5-8.5,220.2-29c16.2-4.3,27.3-18.8,27.3-35v-9.4c0-11.9-6.8-22.2-17.1-25.6v-44.4
	C265.2,302.7,268.6,300.1,269.5,296.7z M31.4,147.3c30.3,0,54.9,24.6,54.9,54.9c0,30.3-24.6,54.9-54.9,54.9s-54.9-24.6-54.9-54.9
	C-23.5,171.8,1.1,147.3,31.4,147.3z M244.7,345.3h-426.7v-42.7h426.7V345.3z"/>
<g id="communism" transform="translate(-98.860728,-110.76342)">
	<g id="g1546" transform="matrix(0.35277777,0,0,-0.35277777,101.43475,110.76342)">
		<path id="path1548" d="M84.3-449.1c21.1-12.9,73.7-57,73.7-107c0-48.5-27.7-69.2-68.1-69.2
			c-33.1,0-61.1,22-70.2,52.1c2.5-43.5,38.6-78.1,82.8-78.1c45.8,0,83,37.1,83,83C185.4-506.1,117.6-459.9,84.3-449.1"/>
	</g>
	<g id="g1550" transform="matrix(0.35277777,0,0,-0.35277777,100.11254,114.21821)">
		<path id="path1552" d="M29.9-591.2l-8.7-8.7h-7.4l-1.7-7.8L-23-642.8c0,0-4.6-7,0-12.8
			c4.6-5.7,17,0,17,0l34,34l5.5,1.9l1.6,5.6l6.1,6.1L29.9-591.2z"/>
	</g>
	<g id="g1554" transform="matrix(0.35277777,0,0,-0.35277777,99.775249,112.97043)">
		<path id="path1556" d="M16.1-539.9l65.5,62.6l-41.8,11.9l-48.9-47.8L16.1-539.9z"/>
	</g>
	<g id="g1566" transform="matrix(0.35277777,0,0,-0.35277777,100.16828,112.40214)">
		<path id="path1568" d="M32.2-516.5l143.8-149c0,0,8.2,1.1,13,7.8c4.8,6.7,5.6,11.1,5.6,11.1
			L49-501.5L32.2-516.5z"/>
	</g>
</g>
</svg>
