<svg height='300px' width='300px' fill="#000000" xmlns="http://www.w3.org/2000/svg"
     xmlns:xlink="http://www.w3.org/1999/xlink" version="1.1" x="0px" y="0px" viewBox="0 0 85 85"
     style="enable-background:new 0 0 85 85;" xml:space="preserve"><style type="text/css">
	.st0{fill:none;stroke-width:0.6153;stroke-linecap:round;stroke-miterlimit:10;}
</style>
    <line class="st0" x1="32.2" y1="3.5" x2="39" y2="29.3"></line>
    <line class="st0" x1="14" y1="13.9" x2="32.9" y2="32.8"></line>
    <line class="st0" x1="3.5" y1="32" x2="29.3" y2="39"></line>
    <line class="st0" x1="3.5" y1="52.9" x2="29.3" y2="46"></line>
    <line class="st0" x1="13.9" y1="71" x2="32.8" y2="52.2"></line>
    <line class="st0" x1="32" y1="81.5" x2="39" y2="55.7"></line>
    <line class="st0" x1="52.9" y1="81.6" x2="46" y2="55.7"></line>
    <line class="st0" x1="71" y1="71.2" x2="52.2" y2="52.2"></line>
    <line class="st0" x1="81.5" y1="53.1" x2="55.7" y2="46.1"></line>
    <line class="st0" x1="81.6" y1="32.2" x2="55.7" y2="39"></line>
    <line class="st0" x1="71.2" y1="14" x2="52.2" y2="32.9"></line>
    <line class="st0" x1="53.1" y1="3.5" x2="46.1" y2="29.3"></line>
    <line class="st0" x1="42.9" y1="33.9" x2="42.9" y2="10.8"></line>
    <line class="st0" x1="38.5" y1="34.8" x2="27" y2="14.8"></line>
    <line class="st0" x1="35.2" y1="37.9" x2="15.2" y2="26.3"></line>
    <line class="st0" x1="33.9" y1="42.1" x2="10.8" y2="42.1"></line>
    <line class="st0" x1="34.8" y1="46.5" x2="14.8" y2="58.1"></line>
    <line class="st0" x1="37.9" y1="49.8" x2="26.3" y2="69.8"></line>
    <line class="st0" x1="42.1" y1="51.2" x2="42.1" y2="74.3"></line>
    <line class="st0" x1="46.5" y1="50.2" x2="58.1" y2="70.2"></line>
    <line class="st0" x1="49.8" y1="47.2" x2="69.8" y2="58.7"></line>
    <line class="st0" x1="51.2" y1="42.9" x2="74.3" y2="42.9"></line>
    <line class="st0" x1="50.2" y1="38.5" x2="70.2" y2="27"></line>
    <line class="st0" x1="47.2" y1="35.2" x2="58.7" y2="15.2"></line>
</svg>