<?xml version="1.0" encoding="utf-8"?>
<!-- Generator: Adobe Illustrator 19.0.0, SVG Export Plug-In . SVG Version: 6.00 Build 0)  -->
<svg version="1.1" id="Layer_1" xmlns="http://www.w3.org/2000/svg" xmlns:xlink="http://www.w3.org/1999/xlink" x="0px" y="0px"
	 viewBox="-306.8 266 256.2 30">
<g>
	<path d="M-53.6,266c-11.7,0-17.7,6.9-23.1,12.9c-5.1,6-9.6,11.1-18.6,11.1s-13.5-5.1-18.6-11.1c-5.1-6-11.1-12.9-23.1-12.9
		c-11.7,0-17.7,6.9-23.1,12.9c-5.1,6-9.6,11.1-18.6,11.1s-13.5-5.1-18.6-11.1c-5.4-6-11.4-12.9-23.1-12.9
		c-11.7,0-17.7,6.9-23.1,12.9c-5.1,6-9.6,11.1-18.6,11.1c-9,0-13.5-5.1-18.6-11.1c-5.4-6-11.4-12.9-23.1-12.9c-1.8,0-3,1.2-3,3
		s1.2,3,3,3c9,0,13.5,5.1,18.6,11.1c5.4,6,11.4,12.9,23.1,12.9c11.7,0,17.7-6.9,23.1-12.9c5.1-6,9.6-11.1,18.6-11.1
		s13.5,5.1,18.6,11.1c5.4,6,11.4,12.9,23.1,12.9c11.7,0,17.7-6.9,23.1-12.9c5.1-6,9.6-11.1,18.6-11.1s13.5,5.1,18.6,11.1
		c5.4,6,11.4,12.9,23.1,12.9c11.7,0,17.7-6.9,23.1-12.9c5.1-6,9.6-11.1,18.6-11.1c1.8,0,3-1.2,3-3S-51.8,266-53.6,266z"/>
</g>
</svg>
