<?xml version="1.0" encoding="utf-8"?>
<!-- Generator: Adobe Illustrator 19.0.0, SVG Export Plug-In . SVG Version: 6.00 Build 0)  -->
<svg version="1.1" id="Layer_1" xmlns="http://www.w3.org/2000/svg" xmlns:xlink="http://www.w3.org/1999/xlink" x="0px" y="0px"
	 viewBox="0 0 318.2 268.3" style="enable-background:new 0 0 318.2 268.3;" xml:space="preserve">
<style type="text/css">
	.st0{fill:none;stroke:#FFFFFF;stroke-width:5;stroke-miterlimit:10;}
</style>
<path id="XMLID_1_" class="st0" d="M44.9,102c-11.1,0.3-34.9-1.8-39.3-11.7c-5.9-13.3,17.2-39.4,43-49.1c27-10.1,69.7-6.7,82.7,21
	c9.5,20.1-2.1,49.2-4.7,54.2"/>
<path id="XMLID_3_" class="st0" d="M44.9,144c-5.6,2.8-30.3,13.8-38.8,38.4c-9.4,27.2-0.6,63.9,27.1,78
	c30.4,15.6,64.2-5.8,79.9-23.8c19.6-22.5,19.9-55.2,19.7-63.1"/>
<path id="XMLID_4_" class="st0" d="M45.4,192.7c-17.6,14-21.2,25.6-20.6,28.5c3.3,15.9,42.9,30.1,63.6,12.6
	c13.4-11.3,15.7-33.3,8.9-48.1c-9.3-20.3-34.5-24.2-33.2-30.8c0.7-3.4,11.9-6.7,41.6-6.5"/>
<path id="XMLID_5_" class="st0" d="M261.7,191.8c11-1.2,38.5-3.1,44.4,8.9c6.8,13.8-16.8,43.4-45.3,52.8c-18.4,6-50.3,7.4-69.2-15.9
	c-20.3-25-6.7-62.4-6.1-64"/>
<path id="XMLID_6_" class="st0" d="M260.8,143.6c18.1,1.9,25.7-3.6,29-7c16.3-17.2,3.3-68-31.3-85.5c-21-10.6-51.9-10-72,9.8
	c-18.9,18.5-14.2,49.4-14,53.7"/>
<path id="XMLID_7_" class="st0" d="M260.8,99.7c38.3,6.5,48.8-1.4,52.3-7c11.6-18.5-17.2-68.4-60.3-84.1C225.1-1.6,179.1-2,155.6,31
	c-23.7,33.3-2.5,82.9-1.4,85.5"/>
</svg>
