<?xml version="1.0" encoding="UTF-8" standalone="no"?>
<!-- Created with Inkscape (http://www.inkscape.org/) -->

<svg
   xmlns:dc="http://purl.org/dc/elements/1.1/"
   xmlns:cc="http://creativecommons.org/ns#"
   xmlns:rdf="http://www.w3.org/1999/02/22-rdf-syntax-ns#"
   xmlns:svg="http://www.w3.org/2000/svg"
   xmlns="http://www.w3.org/2000/svg"
   xmlns:sodipodi="http://sodipodi.sourceforge.net/DTD/sodipodi-0.dtd"
   xmlns:inkscape="http://www.inkscape.org/namespaces/inkscape"
   width="4.8899288mm"
   height="4.9998069mm"
   viewBox="0 0 4.8899288 4.9998069"
   version="1.1"
   id="svg3056"
   inkscape:version="0.92.4 5da689c313, 2019-01-14"
   sodipodi:docname="counterattack.svg">
  <defs
     id="defs3050" />
  <sodipodi:namedview
     id="base"
     pagecolor="#ffffff"
     bordercolor="#666666"
     borderopacity="1.0"
     inkscape:pageopacity="0.0"
     inkscape:pageshadow="2"
     inkscape:zoom="0.35"
     inkscape:cx="29.240814"
     inkscape:cy="49.448455"
     inkscape:document-units="mm"
     inkscape:current-layer="layer1"
     showgrid="false"
     fit-margin-top="0"
     fit-margin-left="0"
     fit-margin-right="0"
     fit-margin-bottom="0"
     inkscape:window-width="1500"
     inkscape:window-height="1888"
     inkscape:window-x="1500"
     inkscape:window-y="56"
     inkscape:window-maximized="0" />
  <metadata
     id="metadata3053">
    <rdf:RDF>
      <cc:Work
         rdf:about="">
        <dc:format>image/svg+xml</dc:format>
        <dc:type
           rdf:resource="http://purl.org/dc/dcmitype/StillImage" />
        <dc:title></dc:title>
      </cc:Work>
    </rdf:RDF>
  </metadata>
  <g
     inkscape:label="Layer 1"
     inkscape:groupmode="layer"
     id="layer1"
     transform="translate(-98.096701,-156.91676)">
    <g
       transform="matrix(0.35277777,0,0,-0.35277777,99.996839,158.3906)"
       id="g1820">
      <path
         inkscape:connector-curvature="0"
         id="path1822"
         style="fill-opacity:1;fill-rule:nonzero;stroke:none"
         d="M 0,0 V 3.426 C 0,3.663 -0.031,3.922 -0.127,4.06 -2.458,4.712 -2.727,2.445 -2.727,2.445 -2.8,2.163 -2.836,1.628 -2.856,1.086 c 0.121,0.027 0.243,0.045 0.357,0.045 0.338,0 0.634,-0.132 0.838,-0.38 0.251,-0.304 0.337,-0.741 0.271,-1.357 h 0.601 c 0.38,0 0.698,0.259 0.789,0.606" />
    </g>
    <g
       transform="matrix(0.35277777,0,0,-0.35277777,102.51673,160.12199)"
       id="g1824">
      <path
         inkscape:connector-curvature="0"
         id="path1826"
         style="fill-opacity:1;fill-rule:nonzero;stroke:none"
         d="M 0,0 H -0.383 C -1.144,0 -1.764,0.497 -1.764,1.108 V 1.715 C -2.011,1.537 -2.336,1.426 -2.691,1.426 h -0.383 c -0.761,0 -1.382,0.494 -1.382,1.11 V 2.787 C -4.698,2.608 -5.02,2.499 -5.382,2.499 H -5.76 c -0.753,0 -1.365,0.484 -1.383,1.085 C -7.351,3.403 -7.632,3.293 -7.928,3.293 h -0.67 C -8.685,2.905 -8.588,1.852 -9.076,1.459 -9.35,1.2 -9.707,1.651 -9.707,1.651 c 0.776,0.848 0.726,2.204 0.726,2.204 0.197,1.048 -0.502,1.619 -0.898,1.619 -0.114,0 -0.243,-0.033 -0.37,-0.074 0,0 -0.77,-0.396 -1.076,-0.675 -0.287,-0.195 -0.84,-0.852 -0.893,-0.921 l -0.015,0.023 c -0.758,-1.235 0.178,-2.503 0.178,-2.503 1.204,-2.113 3.471,-4.9 3.471,-4.9 1.058,-0.908 0.452,-1.433 0.452,-1.433 l 7.914,-0.078 0.401,1.359 c 0.748,1.42 1.044,3.117 1.149,4.554 C 1.172,0.352 0.639,0 0,0" />
    </g>
    <g
       transform="matrix(0.35277777,0,0,-0.35277777,102.38158,159.75041)"
       id="g1828">
      <path
         inkscape:connector-curvature="0"
         id="path1830"
         style="fill-opacity:1;fill-rule:nonzero;stroke:none"
         d="m 0,0 h 0.383 c 0.502,0 0.926,0.302 0.926,0.657 v 4.129 c 0,0.355 -0.424,0.65 -0.926,0.65 H 0 c -0.5,0 -0.926,-0.295 -0.926,-0.65 V 0.657 C -0.926,0.302 -0.5,0 0,0" />
    </g>
    <g
       transform="matrix(0.35277777,0,0,-0.35277777,100.48459,158.86847)"
       id="g1832">
      <path
         inkscape:connector-curvature="0"
         id="path1834"
         style="fill-opacity:1;fill-rule:nonzero;stroke:none"
         d="m 0,0 h 0.378 c 0.507,0 0.926,0.297 0.926,0.657 v 4.124 c 0,0.355 -0.419,0.655 -0.926,0.655 H 0 c -0.507,0 -0.931,-0.3 -0.931,-0.655 V 0.652 C -0.931,0.297 -0.507,0 0,0" />
    </g>
    <g
       transform="matrix(0.35277777,0,0,-0.35277777,101.43247,159.24661)"
       id="g1836">
      <path
         inkscape:connector-curvature="0"
         id="path1838"
         style="fill-opacity:1;fill-rule:nonzero;stroke:none"
         d="m 0,0 h 0.383 c 0.5,0 0.926,0.297 0.926,0.652 v 4.129 c 0,0.355 -0.426,0.655 -0.926,0.655 H 0 c -0.502,0 -0.926,-0.3 -0.926,-0.655 V 0.652 C -0.926,0.297 -0.502,0 0,0" />
    </g>
  </g>
</svg>
