<?xml version="1.0" encoding="UTF-8" standalone="no"?>
<!-- Created with Inkscape (http://www.inkscape.org/) -->

<svg
   xmlns:dc="http://purl.org/dc/elements/1.1/"
   xmlns:cc="http://creativecommons.org/ns#"
   xmlns:rdf="http://www.w3.org/1999/02/22-rdf-syntax-ns#"
   xmlns:svg="http://www.w3.org/2000/svg"
   xmlns="http://www.w3.org/2000/svg"
   xmlns:sodipodi="http://sodipodi.sourceforge.net/DTD/sodipodi-0.dtd"
   xmlns:inkscape="http://www.inkscape.org/namespaces/inkscape"
   width="5.500123mm"
   height="5.0529099mm"
   viewBox="0 0 5.500123 5.0529099"
   version="1.1"
   id="svg2931"
   inkscape:version="0.92.4 5da689c313, 2019-01-14"
   sodipodi:docname="equality.svg">
  <defs
     id="defs2925">
    <clipPath
       clipPathUnits="userSpaceOnUse"
       id="clipPath1148">
      <path
         d="M 0,0 H 595.275 V 841.89 H 0 Z"
         id="path1146"
         inkscape:connector-curvature="0" />
    </clipPath>
    <clipPath
       clipPathUnits="userSpaceOnUse"
       id="clipPath1128">
      <path
         d="M 0,0 H 595.275 V 841.89 H 0 Z"
         id="path1126"
         inkscape:connector-curvature="0" />
    </clipPath>
  </defs>
  <sodipodi:namedview
     id="base"
     pagecolor="#ffffff"
     bordercolor="#666666"
     borderopacity="1.0"
     inkscape:pageopacity="0.0"
     inkscape:pageshadow="2"
     inkscape:zoom="15.839192"
     inkscape:cx="9.7448405"
     inkscape:cy="12.148518"
     inkscape:document-units="mm"
     inkscape:current-layer="layer1"
     showgrid="false"
     fit-margin-top="0"
     fit-margin-left="0"
     fit-margin-right="0"
     fit-margin-bottom="0"
     inkscape:window-width="1148"
     inkscape:window-height="1214"
     inkscape:window-x="1599"
     inkscape:window-y="230"
     inkscape:window-maximized="0" />
  <metadata
     id="metadata2928">
    <rdf:RDF>
      <cc:Work
         rdf:about="">
        <dc:format>image/svg+xml</dc:format>
        <dc:type
           rdf:resource="http://purl.org/dc/dcmitype/StillImage" />
        <dc:title></dc:title>
      </cc:Work>
    </rdf:RDF>
  </metadata>
  <g
     inkscape:label="Layer 1"
     inkscape:groupmode="layer"
     id="layer1"
     transform="translate(-29.755891,-134.96759)">
    <g
       id="g2999">
      <path
         inkscape:connector-curvature="0"
         id="path1114"
         style="fill-opacity:1;fill-rule:nonzero;stroke:none;stroke-width:0.35277775"
         d="m 32.631135,140.0205 h -0.376414 v -4.7311 h 0.376414 z" />
      <path
         inkscape:connector-curvature="0"
         id="path1116"
         style="fill-opacity:1;fill-rule:nonzero;stroke:none;stroke-width:0.35277775"
         d="m 33.626321,140.0205 h -2.366786 v -0.45649 h 2.366786 z" />
      <g
         transform="matrix(0.35277777,0,0,-0.35277777,34.337169,134.96759)"
         id="g1118">
        <path
           inkscape:connector-curvature="0"
           id="path1120"
           style="fill-opacity:1;fill-rule:nonzero;stroke:none"
           d="m 0,0 0.222,-1.043 -10.96,-2.33 -0.222,1.043 z" />
      </g>
      <g
         id="g1122"
         transform="matrix(0.35277777,0,0,-0.35277777,-25.827316,201.59398)">
        <g
           clip-path="url(#clipPath1128)"
           id="g1124">
          <g
             transform="translate(163.6696,187.1757)"
             id="g1130">
            <path
               inkscape:connector-curvature="0"
               id="path1132"
               style="fill-opacity:1;fill-rule:nonzero;stroke:none"
               d="M 0,0 C 0,0.832 0.674,1.506 1.506,1.506 2.338,1.506 3.013,0.832 3.013,0 3.013,-0.832 2.338,-1.506 1.506,-1.506 0.674,-1.506 0,-0.832 0,0" />
          </g>
          <g
             transform="translate(162.3247,180.8004)"
             id="g1134">
            <path
               inkscape:connector-curvature="0"
               id="path1136"
               style="fill-opacity:1;fill-rule:nonzero;stroke:none"
               d="m 0,0 c 0,-1.316 -1.067,-2.383 -2.383,-2.383 -1.316,0 -2.383,1.067 -2.383,2.383 z" />
          </g>
        </g>
      </g>
      <g
         transform="matrix(0.35277777,0,0,-0.35277777,30.563258,136.15416)"
         id="g1138">
        <path
           inkscape:connector-curvature="0"
           id="path1140"
           style="fill-opacity:1;fill-rule:nonzero;stroke:none"
           d="m 0,0 -2.288,-4.698 0.261,-0.356 3.67,-0.987 0.834,1.343 z m 0.01,-0.654 2.127,-4.032 -0.629,-1.012 -3.358,0.902 -0.094,0.128 z" />
      </g>
      <g
         id="g1142"
         transform="matrix(0.35277777,0,0,-0.35277777,-25.827316,201.59398)">
        <g
           clip-path="url(#clipPath1148)"
           id="g1144">
          <g
             transform="translate(173.1496,183.2633)"
             id="g1150">
            <path
               inkscape:connector-curvature="0"
               id="path1152"
               style="fill-opacity:1;fill-rule:nonzero;stroke:none"
               d="m 0,0 c 0,-1.316 -1.067,-2.383 -2.383,-2.383 -1.316,0 -2.383,1.067 -2.383,2.383 z" />
          </g>
        </g>
      </g>
      <g
         transform="matrix(0.35277777,0,0,-0.35277777,33.729368,136.97709)"
         id="g1154">
        <path
           inkscape:connector-curvature="0"
           id="path1156"
           style="fill-opacity:1;fill-rule:nonzero;stroke:none"
           d="M 0,0 -0.094,0.128 1.861,4.142 3.987,0.109 3.358,-0.902 Z m -0.438,0.097 0.261,-0.356 3.67,-0.986 0.834,1.342 -2.477,4.699 z" />
      </g>
    </g>
  </g>
</svg>
