<?xml version="1.0" encoding="UTF-8" standalone="no"?>
<!-- Created with Inkscape (http://www.inkscape.org/) -->

<svg
   xmlns:dc="http://purl.org/dc/elements/1.1/"
   xmlns:cc="http://creativecommons.org/ns#"
   xmlns:rdf="http://www.w3.org/1999/02/22-rdf-syntax-ns#"
   xmlns:svg="http://www.w3.org/2000/svg"
   xmlns="http://www.w3.org/2000/svg"
   xmlns:sodipodi="http://sodipodi.sourceforge.net/DTD/sodipodi-0.dtd"
   xmlns:inkscape="http://www.inkscape.org/namespaces/inkscape"
   width="5.0001283mm"
   height="5.000093mm"
   viewBox="0 0 5.0001283 5.000093"
   version="1.1"
   id="svg2706"
   inkscape:version="0.92.4 5da689c313, 2019-01-14"
   sodipodi:docname="fantastic-four.svg">
  <defs
     id="defs2700">
    <clipPath
       clipPathUnits="userSpaceOnUse"
       id="clipPath1028">
      <path
         d="M 0,0 H 595.275 V 841.89 H 0 Z"
         id="path1026"
         inkscape:connector-curvature="0" />
    </clipPath>
  </defs>
  <sodipodi:namedview
     id="base"
     pagecolor="#ffffff"
     bordercolor="#666666"
     borderopacity="1.0"
     inkscape:pageopacity="0.0"
     inkscape:pageshadow="2"
     inkscape:zoom="11.2"
     inkscape:cx="28.578445"
     inkscape:cy="46.041985"
     inkscape:document-units="mm"
     inkscape:current-layer="g1022"
     showgrid="false"
     fit-margin-top="0"
     fit-margin-left="0"
     fit-margin-right="0"
     fit-margin-bottom="0"
     inkscape:window-width="3000"
     inkscape:window-height="1888"
     inkscape:window-x="0"
     inkscape:window-y="56"
     inkscape:window-maximized="1" />
  <metadata
     id="metadata2703">
    <rdf:RDF>
      <cc:Work
         rdf:about="">
        <dc:format>image/svg+xml</dc:format>
        <dc:type
           rdf:resource="http://purl.org/dc/dcmitype/StillImage" />
        <dc:title></dc:title>
      </cc:Work>
    </rdf:RDF>
  </metadata>
  <g
     inkscape:label="Layer 1"
     inkscape:groupmode="layer"
     id="layer1"
     transform="translate(-53.091987,-37.091764)">
    <g
       transform="matrix(0.35277777,0,0,-0.35277777,-2.4912746,126.62378)"
       id="g1022">
      <g
         id="g2786">
        <g
           id="g1046"
           transform="translate(159.6392,249.9635)">
          <path
             d="m 0,0 c -1.241,-0.075 -2.169,-0.928 -2.073,-1.905 0.057,-0.585 0.473,-1.078 1.061,-1.366 -0.191,-0.093 -0.373,-0.201 -0.526,-0.341 -0.81,-0.744 -0.7,-1.864 0.245,-2.501 0.944,-0.637 2.367,-0.551 3.177,0.192 0,0 2.432,2.204 3.122,2.646 v 0.016 C 4.316,-2.817 1.884,-0.614 1.884,-0.614 1.432,-0.205 0.74,0.045 0,0"
             style="fill:#000000;fill-opacity:1;fill-rule:nonzero;stroke:none"
             id="path1048"
             inkscape:connector-curvature="0" />
        </g>
        <g
           id="g1050"
           transform="translate(169.6521,243.4462)">
          <path
             d="M 0,0 C 1.241,0.075 2.169,0.928 2.073,1.905 2.016,2.49 1.6,2.983 1.012,3.271 1.203,3.364 1.385,3.472 1.538,3.612 2.348,4.356 2.238,5.476 1.293,6.113 0.349,6.75 -1.074,6.664 -1.884,5.921 c 0,0 -2.432,-2.204 -3.122,-2.646 V 3.259 C -4.316,2.817 -1.884,0.614 -1.884,0.614 -1.432,0.205 -0.74,-0.045 0,0"
             style="fill:#000000;fill-opacity:1;fill-rule:nonzero;stroke:none"
             id="path1052"
             inkscape:connector-curvature="0" />
        </g>
        <g
           id="g1054"
           transform="translate(161.387,241.6984)">
          <path
             d="m 0,0 c 0.075,-1.241 0.928,-2.169 1.905,-2.073 0.585,0.057 1.078,0.473 1.366,1.061 0.093,-0.191 0.201,-0.373 0.341,-0.526 0.744,-0.81 1.864,-0.7 2.501,0.245 0.637,0.944 0.551,2.367 -0.192,3.177 0,0 -2.204,2.432 -2.646,3.122 H 3.259 C 2.817,4.316 0.614,1.884 0.614,1.884 0.205,1.432 -0.045,0.74 0,0"
             style="fill:#000000;fill-opacity:1;fill-rule:nonzero;stroke:none"
             id="path1056"
             inkscape:connector-curvature="0" />
        </g>
        <g
           id="g1058"
           transform="translate(167.9043,251.7112)">
          <path
             d="M 0,0 C -0.075,1.241 -0.928,2.169 -1.905,2.073 -2.49,2.016 -2.983,1.6 -3.271,1.012 c -0.093,0.191 -0.201,0.373 -0.341,0.526 -0.744,0.81 -1.864,0.7 -2.501,-0.245 -0.637,-0.944 -0.551,-2.367 0.192,-3.177 0,0 2.204,-2.432 2.646,-3.122 h 0.016 c 0.442,0.69 2.645,3.122 2.645,3.122 C -0.205,-1.432 0.045,-0.74 0,0"
             style="fill:#000000;fill-opacity:1;fill-rule:nonzero;stroke:none"
             id="path1060"
             inkscape:connector-curvature="0" />
        </g>
      </g>
    </g>
  </g>
</svg>
