<?xml version="1.0" encoding="UTF-8" standalone="no"?>
<!-- Created with Inkscape (http://www.inkscape.org/) -->

<svg
   xmlns:dc="http://purl.org/dc/elements/1.1/"
   xmlns:cc="http://creativecommons.org/ns#"
   xmlns:rdf="http://www.w3.org/1999/02/22-rdf-syntax-ns#"
   xmlns:svg="http://www.w3.org/2000/svg"
   xmlns="http://www.w3.org/2000/svg"
   xmlns:sodipodi="http://sodipodi.sourceforge.net/DTD/sodipodi-0.dtd"
   xmlns:inkscape="http://www.inkscape.org/namespaces/inkscape"
   width="4.499949mm"
   height="6.2175074mm"
   viewBox="0 0 4.499949 6.2175074"
   version="1.1"
   id="svg3381"
   inkscape:version="0.92.4 5da689c313, 2019-01-14"
   sodipodi:docname="fuck-you.svg">
  <defs
     id="defs3375" />
  <sodipodi:namedview
     id="base"
     pagecolor="#ffffff"
     bordercolor="#666666"
     borderopacity="1.0"
     inkscape:pageopacity="0.0"
     inkscape:pageshadow="2"
     inkscape:zoom="22.4"
     inkscape:cx="-14.353314"
     inkscape:cy="-8.9646516"
     inkscape:document-units="mm"
     inkscape:current-layer="layer1"
     showgrid="false"
     fit-margin-top="0"
     fit-margin-left="0"
     fit-margin-right="0"
     fit-margin-bottom="0"
     inkscape:window-width="3000"
     inkscape:window-height="1888"
     inkscape:window-x="0"
     inkscape:window-y="56"
     inkscape:window-maximized="1" />
  <metadata
     id="metadata3378">
    <rdf:RDF>
      <cc:Work
         rdf:about="">
        <dc:format>image/svg+xml</dc:format>
        <dc:type
           rdf:resource="http://purl.org/dc/dcmitype/StillImage" />
        <dc:title></dc:title>
      </cc:Work>
    </rdf:RDF>
  </metadata>
  <g
     inkscape:label="Layer 1"
     inkscape:groupmode="layer"
     id="layer1"
     transform="translate(-113.41074,-118.5103)">
    <g
       id="g1170"
       transform="matrix(0.35277777,0,0,-0.35277777,117.23802,120.74953)">
      <path
         d="m 0,0 -0.337,-0.054 c -0.441,-0.071 -0.774,-0.391 -0.724,-0.704 l 0.157,-0.978 0.193,-1.204 c 0.07,-0.437 -0.176,-0.457 -0.304,-0.439 l -0.039,0.009 -0.026,0.165 -0.435,2.709 -0.149,0.928 c -0.05,0.313 -0.467,0.517 -0.908,0.446 L -2.909,0.824 C -3.351,0.753 -3.682,0.429 -3.632,0.116 l 0.149,-0.927 0.336,-2.095 -0.429,0.095 -1.395,8.698 C -5.021,6.2 -5.432,6.405 -5.879,6.333 L -6.212,6.28 C -6.658,6.208 -6.989,5.884 -6.939,5.571 l 1.27,-7.917 -0.423,0.094 -0.13,0.806 -0.33,2.062 c -0.034,0.208 -0.098,0.432 -0.202,0.54 -2.145,0.245 -2.062,-1.79 -2.062,-1.79 -0.024,-0.259 0.019,-0.734 0.079,-1.215 l 0.075,-0.468 0.352,-2.195 c 0.016,-0.2 0.008,-0.399 -0.084,-0.414 -0.113,-0.018 -0.201,0.326 -0.255,0.609 l -0.227,1.411 c -0.05,0.313 -0.465,0.513 -0.907,0.442 l -0.337,-0.054 c -0.441,-0.071 -0.774,-0.391 -0.724,-0.704 l 0.485,-3.021 c 0,-0.003 0.002,-0.007 0.002,-0.01 10e-4,-0.005 10e-4,-0.011 0.002,-0.016 0.06,-0.377 0.883,-1.094 1.65,-1.688 0.833,-0.816 2.566,-2.122 2.566,-2.122 1.06,-0.65 0.6,-1.198 0.6,-1.198 l 6.982,1.049 0.161,1.254 c 0.375,1.108 0.371,1.74 0.155,3.197 l 0.004,0.001 -0.272,1.697 -0.427,2.658 -0.157,0.979 C 0.857,-0.129 0.442,0.071 0,0"
         style="fill:#000000;fill-opacity:1;fill-rule:nonzero;stroke:none"
         id="path1172"
         inkscape:connector-curvature="0" />
    </g>
  </g>
</svg>
