<?xml version="1.0" encoding="UTF-8" standalone="no"?>
<!-- Created with Inkscape (http://www.inkscape.org/) -->

<svg
   xmlns:dc="http://purl.org/dc/elements/1.1/"
   xmlns:cc="http://creativecommons.org/ns#"
   xmlns:rdf="http://www.w3.org/1999/02/22-rdf-syntax-ns#"
   xmlns:svg="http://www.w3.org/2000/svg"
   xmlns="http://www.w3.org/2000/svg"
   xmlns:sodipodi="http://sodipodi.sourceforge.net/DTD/sodipodi-0.dtd"
   xmlns:inkscape="http://www.inkscape.org/namespaces/inkscape"
   width="5.0002723mm"
   height="4.9999194mm"
   viewBox="0 0 5.0002723 4.9999195"
   version="1.1"
   id="svg2401"
   inkscape:version="0.92.4 5da689c313, 2019-01-14"
   sodipodi:docname="skip.svg">
  <defs
     id="defs2395">
    <clipPath
       clipPathUnits="userSpaceOnUse"
       id="clipPath1072">
      <path
         d="M 0,0 H 595.275 V 841.89 H 0 Z"
         id="path1070"
         inkscape:connector-curvature="0" />
    </clipPath>
    <clipPath
       clipPathUnits="userSpaceOnUse"
       id="clipPath1092">
      <path
         d="M 0,0 H 595.275 V 841.89 H 0 Z"
         id="path1090"
         inkscape:connector-curvature="0" />
    </clipPath>
    <clipPath
       clipPathUnits="userSpaceOnUse"
       id="clipPath1072-3">
      <path
         d="M 0,0 H 595.275 V 841.89 H 0 Z"
         id="path1070-6"
         inkscape:connector-curvature="0" />
    </clipPath>
  </defs>
  <sodipodi:namedview
     id="base"
     pagecolor="#ffffff"
     bordercolor="#666666"
     borderopacity="1.0"
     inkscape:pageopacity="0.0"
     inkscape:pageshadow="2"
     inkscape:zoom="22.4"
     inkscape:cx="12.414551"
     inkscape:cy="0.88553352"
     inkscape:document-units="mm"
     inkscape:current-layer="layer1"
     showgrid="false"
     fit-margin-top="0"
     fit-margin-left="0"
     fit-margin-right="0"
     fit-margin-bottom="0"
     inkscape:window-width="1500"
     inkscape:window-height="1888"
     inkscape:window-x="1500"
     inkscape:window-y="56"
     inkscape:window-maximized="0" />
  <metadata
     id="metadata2398">
    <rdf:RDF>
      <cc:Work
         rdf:about="">
        <dc:format>image/svg+xml</dc:format>
        <dc:type
           rdf:resource="http://purl.org/dc/dcmitype/StillImage" />
        <dc:title></dc:title>
      </cc:Work>
    </rdf:RDF>
  </metadata>
  <g
     inkscape:label="Layer 1"
     inkscape:groupmode="layer"
     id="layer1"
     transform="translate(-67.803612,-186.6548)">
    <g
       transform="matrix(0.35277777,0,0,-0.35277777,12.22044,377.90466)"
       id="g1066">
      <g
         id="g1068"
         clip-path="url(#clipPath1072-3)">
        <g
           id="g1074"
           transform="translate(164.6456,527.9526)">
          <path
             d="m 0,0 c -3.908,0 -7.087,3.179 -7.087,7.087 0,3.907 3.179,7.086 7.087,7.086 3.908,0 7.087,-3.179 7.087,-7.086 C 7.087,3.179 3.908,0 0,0 m 0,12.271 c -2.858,0 -5.184,-2.326 -5.184,-5.184 0,-2.859 2.326,-5.184 5.184,-5.184 2.858,0 5.184,2.325 5.184,5.184 0,2.858 -2.326,5.184 -5.184,5.184"
             style="fill-opacity:1;fill-rule:nonzero;stroke:none"
             id="path1076"
             inkscape:connector-curvature="0" />
        </g>
      </g>
    </g>
    <g
       id="g1078"
       transform="matrix(0.35277777,0,0,-0.35277777,71.739517,191.06505)">
      <path
         d="M 0,0 -9.485,9.485 -8.14,10.83 1.345,1.345 Z"
         style="fill-opacity:1;fill-rule:nonzero;stroke:none"
         id="path1080"
         inkscape:connector-curvature="0" />
    </g>
    <g
       id="g1082"
       transform="matrix(0.35277777,0,0,-0.35277777,68.890038,191.06505)">
      <path
         d="M 0,0 -1.345,1.345 8.14,10.83 9.485,9.485 Z"
         style="fill-opacity:1;fill-rule:nonzero;stroke:none"
         id="path1084"
         inkscape:connector-curvature="0" />
    </g>
  </g>
</svg>
