<?xml version="1.0" encoding="UTF-8" standalone="no"?>
<svg
   xmlns:dc="http://purl.org/dc/elements/1.1/"
   xmlns:cc="http://creativecommons.org/ns#"
   xmlns:rdf="http://www.w3.org/1999/02/22-rdf-syntax-ns#"
   xmlns:svg="http://www.w3.org/2000/svg"
   xmlns="http://www.w3.org/2000/svg"
   id="svg8"
   version="1.1"
   viewBox="0 0 210 196"
   height="196mm"
   width="210mm">
  <defs
     id="defs2" />
  <metadata
     id="metadata5">
    <rdf:RDF>
      <cc:Work
         rdf:about="">
        <dc:format>image/svg+xml</dc:format>
        <dc:type
           rdf:resource="http://purl.org/dc/dcmitype/StillImage" />
        <dc:title></dc:title>
      </cc:Work>
    </rdf:RDF>
  </metadata>
  <g
     transform="translate(0,-101)"
     id="layer1">
    <g
       id="layer1-1"
       transform="matrix(0.64157539,0,0,0.64157539,-260.1799,76.459916)">
      <path
         style="fill:#484D59;fill-opacity:1;fill-rule:nonzero;stroke:none"
         d="m 633.57146,202.36218 c 0,35.10953 -31.40426,52.14286 -65.35715,63.57143 -34.20975,11.51503 -65.35715,-28.4619 -65.35715,-63.57143 0,-35.10953 31.60676,-76.37043 65.35715,-63.57143 30.13662,11.42857 63.98548,27.02155 65.31065,61.17385"
         id="path3096" />
      <path
         transform="translate(86.428572,80.714286)"
         style="fill:#484D59;fill-opacity:1;fill-rule:nonzero;stroke:none"
         d="m 577.85715,188.79077 -80.56844,-47.52265 57.176,114.24652 -72.08944,-107.82922 -16.242,57.71291 0.11792,-59.61209 -81.96548,70.14738 51.09408,-69.85415 -94.24652,5.03315 105.68636,-29.9466 L 331.24958,87.066881 424.4331,95.04195 378.57143,45.219331 458.42558,92.027684 414.10672,-31.504548 473.33903,85.610385 495.29531,8.6117602 489.4631,87.509564 574.28572,-12.637812 502.47737,97.216338 579.58103,78.611762 508.89467,112.12978 638.03615,135.51464 506.99549,128.25386 Z"
         id="path3098" />
      <path
         style="fill:#484D59;fill-rule:evenodd;stroke:none"
         d="m 512.85714,126.6479 c 10.65561,-7.58565 22.95612,-12.67674 35.67428,-15.08979 12.7186,-2.41105 25.89666,-2.15097 38.30357,0.93945 0,0 0,0 0,0 12.40833,3.08405 24.03013,8.99169 33.92726,16.91073 9.89339,7.92395 18.09553,17.88727 23.68446,29.05942 6.58116,13.13226 9.7295,27.90738 9.12531,42.38882 l 9.99882,0.15416 c -0.13093,-16.21368 -4.43232,-32.23072 -12.30327,-46.1826 -6.72264,-11.90048 -16.06659,-22.14148 -26.99783,-30.03702 -10e-6,0 -10e-6,0 -10e-6,0 -10.92752,-7.90045 -23.47536,-13.47795 -36.59617,-16.06704 -10e-6,0 -10e-6,0 -10e-6,0 -13.12223,-2.58271 -26.70331,-2.15501 -39.5494,0.94468 -12.84653,3.09769 -24.99785,8.87805 -35.26701,16.97919 z"
         id="path3101" />
      <path
         style="fill:#484D59;fill-rule:evenodd;stroke:none"
         d="m 481.42857,175.93361 c -3.18442,18.13944 -0.86624,37.33949 6.70229,54.39524 7.57075,17.05472 20.35289,31.87643 36.35069,41.94479 17.39474,10.94029 38.45739,16.14454 59.22646,14.45599 1e-5,0 1e-5,0 1e-5,0 20.768,-1.69904 40.99757,-10.2695 56.82428,-24.26305 l -6.77888,-7.35166 c -13.60062,13.14107 -31.74869,21.87251 -50.79999,24.2575 0,0 0,0 -10e-6,0 -19.05022,2.39547 -39.07834,-1.55157 -56.00639,-11.20742 -15.57838,-8.87962 -28.56275,-22.57802 -36.64766,-38.85469 -8.08711,-16.27563 -11.26584,-35.11627 -8.8708,-53.3767 z"
         id="path3107" />
      <path
         style="fill:#484D59;fill-rule:evenodd;stroke:none"
         d="m 464.28571,203.07646 c 1.3091,13.49352 5.06464,26.81951 11.07999,39.12984 9.52046,19.48036 24.75632,36.32205 43.55247,47.85043 0,0 10e-6,10e-6 10e-6,10e-6 18.79879,11.52378 41.03199,17.6582 63.44659,17.30051 l -0.44384,-9.99014 c -20.42469,1.54554 -41.52831,-2.85477 -59.91465,-12.68731 0,0 0,0 0,-10e-6 -18.38897,-9.82794 -34.09118,-25.1094 -44.51484,-43.59031 0,0 0,0 0,0 -6.58971,-11.6819 -11.10258,-24.62028 -13.20573,-38.01302 z"
         id="path3131" />
      <path
         style="fill:#484D59;fill-rule:evenodd;stroke:none"
         d="m 572.48935,204.11644 -3.55012,9.34862 114.6322,38.18284 z"
         id="path3143" />
      <path
         style="fill:#484D59;fill-rule:evenodd;stroke:none"
         d="m 554.17373,223.45276 -9.77604,2.10456 27.03088,101.80486 z"
         id="path3149" />
      <path
         style="fill:#484D59;fill-rule:evenodd;stroke:none"
         d="m 553.52525,196.60306 -1.33622,-9.91032 -126.47474,22.09801 z"
         id="path3155" />
      <path
         style="fill:#484D59;fill-rule:evenodd;stroke:none"
         d="m 562.0216,196.86695 8.81394,-4.72382 -62.9784,-106.923806 z"
         id="path3161" />
      <path
         style="fill:#484D59;fill-rule:evenodd;stroke:none"
         d="m 582.21706,214.37326 5.56588,-8.30788 L 440,113.07647 Z"
         id="path3167" />
      <path
         style="fill:#484D59;fill-rule:evenodd;stroke:none"
         d="m 609.97044,201.86524 2.91626,9.56532 L 670,188.79075 Z"
         id="path3173" />
    </g>
  </g>
</svg>
