<svg width="30" height="30" viewBox="0 0 30 30" fill="none" xmlns="http://www.w3.org/2000/svg">
<path d="M22.2806 1.94936C22.1789 1.89313 22.0589 1.87973 21.9474 1.91188C21.8359 1.94402 21.7416 2.01926 21.6854 2.12096L19.7796 5.57126C19.6626 5.78297 19.7394 6.04942 19.9512 6.16636C23.178 7.94875 25.1824 11.3426 25.1824 15.0237C25.1824 20.5988 20.6468 25.1344 15.0717 25.1344C9.49661 25.1344 4.96096 20.5988 4.96096 15.0237C4.96096 12.9313 5.62289 10.8695 6.83384 9.16408L9.85381 12.1841C9.971 12.3012 10.1442 12.3422 10.3013 12.29C10.4585 12.2378 10.5729 12.1015 10.5968 11.9376L12.2595 0.549306C12.2795 0.412401 12.2337 0.274182 12.1358 0.176342C12.038 0.0785027 11.8993 0.0327801 11.7629 0.0526633L0.374684 1.71541C0.210713 1.73932 0.0744214 1.85371 0.0223046 2.01094C-0.0298997 2.16817 0.0111806 2.34134 0.12829 2.45844L3.39474 5.7249C1.29527 8.36358 0.143443 11.6497 0.143443 15.0237C0.143443 23.2551 6.84023 29.9519 15.0717 29.9519C23.3032 29.9519 30 23.2551 30 15.0237C30 9.58934 27.0421 4.57955 22.2806 1.94936Z"/>
</svg>
