<?xml version="1.0" encoding="UTF-8" standalone="no"?>
<!-- Created with Inkscape (http://www.inkscape.org/) -->

<svg
   xmlns:dc="http://purl.org/dc/elements/1.1/"
   xmlns:cc="http://creativecommons.org/ns#"
   xmlns:rdf="http://www.w3.org/1999/02/22-rdf-syntax-ns#"
   xmlns:svg="http://www.w3.org/2000/svg"
   xmlns="http://www.w3.org/2000/svg"
   xmlns:sodipodi="http://sodipodi.sourceforge.net/DTD/sodipodi-0.dtd"
   xmlns:inkscape="http://www.inkscape.org/namespaces/inkscape"
   width="39.749519mm"
   height="39.749695mm"
   viewBox="0 0 39.749519 39.749695"
   version="1.1"
   id="svg2252"
   inkscape:version="0.92.4 5da689c313, 2019-01-14"
   sodipodi:docname="logo.svg">
  <defs
     id="defs2246">
    <clipPath
       clipPathUnits="userSpaceOnUse"
       id="clipPath976">
      <path
         d="M 14.173,715.038 H 126.849 V 827.715 H 14.173 Z"
         id="path974"
         inkscape:connector-curvature="0" />
    </clipPath>
  </defs>
  <sodipodi:namedview
     id="base"
     pagecolor="#ffffff"
     bordercolor="#666666"
     borderopacity="1.0"
     inkscape:pageopacity="0.0"
     inkscape:pageshadow="2"
     inkscape:zoom="1.4"
     inkscape:cx="71.428571"
     inkscape:cy="417.14287"
     inkscape:document-units="mm"
     inkscape:current-layer="layer1"
     showgrid="false"
     fit-margin-top="0"
     fit-margin-left="0"
     fit-margin-right="0"
     fit-margin-bottom="0"
     inkscape:window-width="3000"
     inkscape:window-height="1888"
     inkscape:window-x="0"
     inkscape:window-y="56"
     inkscape:window-maximized="1" />
  <metadata
     id="metadata2249">
    <rdf:RDF>
      <cc:Work
         rdf:about="">
        <dc:format>image/svg+xml</dc:format>
        <dc:type
           rdf:resource="http://purl.org/dc/dcmitype/StillImage" />
        <dc:title></dc:title>
      </cc:Work>
    </rdf:RDF>
  </metadata>
  <g
     inkscape:label="Layer 1"
     inkscape:groupmode="layer"
     id="layer1"
     transform="translate(1.0236001e-8,-257.25031)">
    <g
       transform="matrix(0.35277777,0,0,-0.35277777,-4.9999899,549.24976)"
       id="g970">
      <g
         id="g972"
         clip-path="url(#clipPath976)">
        <g
           id="g978"
           transform="translate(14.1732,771.3777)">
          <path
             d="m 0,0 c 0,31.115 25.222,56.339 56.337,56.339 31.117,0 56.34,-25.224 56.34,-56.339 0,-31.115 -25.223,-56.339 -56.34,-56.339 C 25.222,-56.339 0,-31.115 0,0"
             style="fill:#E0745C;fill-opacity:1;fill-rule:nonzero;stroke:none"
             id="path980"
             inkscape:connector-curvature="0" />
        </g>
        <g
           id="g982"
           transform="translate(103.3834,765.5281)">
          <path
             d="M 0,0 C -2.432,-0.819 -2.323,0.334 -2.345,2.238 V 24.596 L -6.29,23.935 V 3.231 c 0,0 -0.68,-4.167 -2.872,-5.019 -2.149,-0.361 -1.884,0.711 -1.94,2.837 l -0.007,-10e-4 v 9.172 l 3.119,2.289 v 1.255 L -8.375,13.7 c -2.097,-0.348 -2.971,1.149 -3.061,3.201 v 2.391 3.88 c -2.159,-0.37 -3.907,-2.39 -3.942,-4.541 h -0.004 v -3.478 h 0.004 c 0.03,-1.921 1.449,-3.27 3.302,-3.267 l -2.979,-1.375 0.018,-11.293 c 0.033,-2 1.57,-3.364 3.534,-3.244 0.684,0.022 0.9,0.04 1.443,0.173 0.863,0.233 1.546,0.734 2.074,1.345 v 0.005 l 0.009,0.003 c 1.314,1.517 1.711,3.635 1.711,3.635 0,-2.101 1.31,-3.062 1.696,-3.301 0.629,-0.327 1.385,-0.42 2.21,-0.324 h 10e-4 c 0.004,0.001 1.449,0.169 2.359,0.421 z"
             style="fill:#333840;fill-opacity:1;fill-rule:nonzero;stroke:none"
             id="path984"
             inkscape:connector-curvature="0" />
        </g>
        <g
           id="g986"
           transform="translate(101.0381,795.7217)">
          <path
             d="M 0,0 -3.948,-0.726 V -4.151 L 0,-3.567 Z"
             style="fill:#333840;fill-opacity:1;fill-rule:nonzero;stroke:none"
             id="path988"
             inkscape:connector-curvature="0" />
        </g>
        <g
           id="g990"
           transform="translate(106.6215,770.4841)">
          <path
             d="m 0,0 c 0.015,-0.181 0.032,-4.208 0.032,-4.208 0,0 0.17,-3.092 6.07,-3.092 0,0 -2.125,0.245 -2.125,3.92 v 1.437 c 0.007,0.047 0.461,4.816 -5.974,5.199 5.106,0.278 5.885,3.241 5.974,4.534 v 0.003 c 0.024,0.361 0,14.389 0,14.389 0,1.475 0.43,1.957 1.071,2.074 1.291,0.234 1.246,-0.591 1.269,-2.167 v -0.358 l 0.006,0.002 3.937,0.658 0.003,0.49 H 10.26 c -0.036,2.134 -1.778,3.565 -3.93,3.22 v 0.003 C 6.326,26.101 6.323,26.101 6.319,26.101 6.319,26.099 5.664,25.99 5.664,25.99 -0.025,25.034 0.032,21.522 0.032,21.522 l 0.002,0.002 C 0.034,21.524 0.015,6.628 0,6.449 -0.085,5.674 -0.522,3.768 -2.768,3.768 V 2.679 C -0.523,2.679 -0.086,0.776 0,0"
             style="fill:#333840;fill-opacity:1;fill-rule:nonzero;stroke:none"
             id="path992"
             inkscape:connector-curvature="0" />
        </g>
        <g
           id="g994"
           transform="translate(121.0927,766.4557)">
          <path
             d="m 0,0 c -1.063,3.66 -8.863,4.532 -8.819,-0.121 0.013,-1.441 1.172,-2.406 2.603,-2.146 1.469,0.267 2.729,2.247 1.278,3.378 1.741,0.129 3.2,-1.194 2.568,-2.979 -0.563,-1.59 -2.248,-2.592 -3.776,-3.057 -2.855,-0.869 -5.799,-0.368 -8.717,-0.594 -3.306,-0.255 -9.921,-1.173 -9.832,-5.701 0.078,-3.933 7.1,-5.921 8.739,-2.075 0.629,1.475 -0.043,3.227 -1.726,3.373 -1.692,0.148 -3.627,-2.076 -1.92,-3.415 -2.271,-0.145 -3.44,1.926 -2.131,3.793 1.204,1.716 3.324,2.399 5.313,2.656 1.771,0.229 3.563,0.122 5.345,0.133 2.17,0.014 4.378,0.307 6.454,0.953 C -2.117,-5.023 0.943,-3.102 0,0 -0.136,0.468 0.141,-0.463 0,0"
             style="fill:#333840;fill-opacity:1;fill-rule:nonzero;stroke:none"
             id="path996"
             inkscape:connector-curvature="0" />
        </g>
        <g
           id="g998"
           transform="translate(85.7403,783.8757)">
          <path
             d="M 0,0 C -0.036,2.133 -1.817,3.591 -3.929,3.222 -7.668,2.453 -8.266,0.248 -8.266,0.248 c -0.092,0.409 -0.625,0.945 -0.636,0.956 -0.606,0.559 -2.096,1.384 -5.231,0.514 v -2.207 l 0.491,0.091 c 2.007,0.333 1.894,-0.595 1.921,-2.473 v -22.345 l 3.942,0.662 0.017,22.379 c 0.028,0.778 0.438,2.42 1.489,2.899 0.707,0.31 2.292,0.703 2.327,-2.013 l 0.002,-18.613 c 0,-3.397 -1.963,-3.823 -2.149,-3.785 v -0.016 c 2.517,-0.699 4.019,0.332 4.849,1.354 0.726,0.806 1.193,1.837 1.237,2.909 l 0.01,19.375 v 0.067 z"
             style="fill:#333840;fill-opacity:1;fill-rule:nonzero;stroke:none"
             id="path1000"
             inkscape:connector-curvature="0" />
        </g>
        <g
           id="g1002"
           transform="translate(40.2043,778.3046)">
          <path
             d="m 0,0 c 2.432,0.819 2.323,-0.334 2.345,-2.238 v -22.358 l 3.945,0.661 v 20.704 c 0,0 0.68,4.167 2.872,5.019 2.149,0.361 1.884,-0.711 1.94,-2.837 l 0.007,10e-4 v -9.172 l -3.12,-2.288 v -1.256 l 0.386,0.064 c 2.097,0.348 2.971,-1.149 3.061,-3.201 v -2.391 -3.88 c 2.159,0.37 3.907,2.39 3.942,4.541 h 0.004 v 3.478 h -0.004 c -0.03,1.922 -1.449,3.27 -3.302,3.268 l 2.979,1.374 -0.018,11.293 c -0.033,2 -1.57,3.364 -3.534,3.244 C 10.819,4.004 10.603,3.986 10.059,3.853 9.196,3.62 8.514,3.119 7.986,2.508 V 2.503 L 7.977,2.5 C 6.663,0.983 6.266,-1.135 6.266,-1.135 6.266,0.966 4.956,1.927 4.57,2.166 3.941,2.493 3.185,2.586 2.36,2.49 H 2.358 C 2.355,2.489 0.91,2.321 0,2.069 Z"
             style="fill:#333840;fill-opacity:1;fill-rule:nonzero;stroke:none"
             id="path1004"
             inkscape:connector-curvature="0" />
        </g>
        <g
           id="g1006"
           transform="translate(42.5497,748.111)">
          <path
             d="M 0,0 3.948,0.726 V 4.151 L 0,3.567 Z"
             style="fill:#333840;fill-opacity:1;fill-rule:nonzero;stroke:none"
             id="path1008"
             inkscape:connector-curvature="0" />
        </g>
        <g
           id="g1010"
           transform="translate(36.9662,773.3488)">
          <path
             d="m 0,0 c -0.015,0.181 -0.032,4.208 -0.032,4.208 0,0 -0.17,3.092 -6.071,3.092 0,0 2.125,-0.245 2.125,-3.92 V 1.943 C -3.984,1.896 -4.438,-2.873 1.997,-3.256 -3.109,-3.534 -3.888,-6.497 -3.978,-7.79 v -0.003 c -0.024,-0.361 0,-14.389 0,-14.389 0,-1.475 -0.429,-1.957 -1.07,-2.074 -1.291,-0.234 -1.246,0.59 -1.269,2.167 v 0.358 l -0.006,-0.002 -3.937,-0.658 -0.003,-0.49 h 0.003 c 0.036,-2.134 1.778,-3.565 3.93,-3.22 v -0.003 c 0.004,0.003 0.007,0.003 0.011,0.003 0,0.002 0.655,0.111 0.655,0.111 5.689,0.956 5.632,4.468 5.632,4.468 l -0.002,-0.002 c 0,0 0.019,14.896 0.034,15.075 0.085,0.775 0.522,2.681 2.768,2.681 v 1.089 C 0.523,-2.679 0.086,-0.776 0,0"
             style="fill:#333840;fill-opacity:1;fill-rule:nonzero;stroke:none"
             id="path1012"
             inkscape:connector-curvature="0" />
        </g>
        <g
           id="g1014"
           transform="translate(22.495,777.3771)">
          <path
             d="M 0,0 C 1.063,-3.66 8.863,-4.532 8.819,0.121 8.806,1.562 7.647,2.527 6.216,2.267 4.747,2 3.487,0.02 4.938,-1.111 3.197,-1.24 1.738,0.083 2.37,1.868 c 0.563,1.59 2.248,2.592 3.776,3.057 2.855,0.869 5.799,0.368 8.717,0.594 3.306,0.255 9.921,1.173 9.832,5.701 -0.078,3.933 -7.1,5.921 -8.739,2.075 -0.629,-1.475 0.043,-3.227 1.726,-3.373 1.692,-0.148 3.627,2.076 1.92,3.415 2.271,0.145 3.44,-1.926 2.131,-3.793 C 20.529,7.828 18.409,7.145 16.42,6.888 14.649,6.659 12.857,6.766 11.075,6.755 8.905,6.741 6.697,6.448 4.621,5.802 2.117,5.023 -0.943,3.102 0,0 0.136,-0.468 -0.141,0.463 0,0"
             style="fill:#333840;fill-opacity:1;fill-rule:nonzero;stroke:none"
             id="path1016"
             inkscape:connector-curvature="0" />
        </g>
        <g
           id="g1018"
           transform="translate(57.8474,759.9572)">
          <path
             d="m 0,0 c 0.036,-2.133 1.817,-3.591 3.929,-3.222 3.739,0.769 4.337,2.974 4.337,2.974 0.092,-0.409 0.625,-0.945 0.636,-0.956 0.606,-0.559 2.096,-1.384 5.231,-0.514 V 0.489 L 13.642,0.398 C 11.635,0.065 11.748,0.993 11.721,2.871 V 25.216 L 7.779,24.554 7.762,2.175 C 7.734,1.397 7.324,-0.245 6.273,-0.724 5.566,-1.034 3.981,-1.427 3.946,1.289 L 3.944,19.902 c 0,3.397 1.963,3.823 2.149,3.785 v 0.016 C 3.576,24.402 2.074,23.372 1.244,22.349 0.518,21.543 0.05,20.512 0.007,19.44 L -0.003,0.065 v -0.067 z"
             style="fill:#333840;fill-opacity:1;fill-rule:nonzero;stroke:none"
             id="path1020"
             inkscape:connector-curvature="0" />
        </g>
      </g>
    </g>
  </g>
</svg>
