<?xml version="1.0" encoding="UTF-8" standalone="no"?>
<svg
   xmlns:dc="http://purl.org/dc/elements/1.1/"
   xmlns:cc="http://creativecommons.org/ns#"
   xmlns:rdf="http://www.w3.org/1999/02/22-rdf-syntax-ns#"
   xmlns:svg="http://www.w3.org/2000/svg"
   xmlns="http://www.w3.org/2000/svg"
   id="svg8"
   version="1.1"
   viewBox="0 0 189 189"
   height="189mm"
   width="189mm">
  <defs
     id="defs2">
    <clipPath
       clipPathUnits="userSpaceOnUse"
       id="clipPath976">
      <path
         d="M 14.173,715.038 H 126.849 V 827.715 H 14.173 Z"
         id="path974" />
    </clipPath>
    <clipPath
       id="clipPath976-4"
       clipPathUnits="userSpaceOnUse">
      <path
         id="path974-3"
         d="M 14.173,715.038 H 126.849 V 827.715 H 14.173 Z" />
    </clipPath>
    <clipPath
       id="clipPath976-1"
       clipPathUnits="userSpaceOnUse">
      <path
         id="path974-1"
         d="M 14.173,715.038 H 126.849 V 827.715 H 14.173 Z" />
    </clipPath>
    <clipPath
       clipPathUnits="userSpaceOnUse"
       id="clipPath976-9">
      <path
         d="M 14.173,715.038 H 126.849 V 827.715 H 14.173 Z"
         id="path974-4" />
    </clipPath>
  </defs>
  <metadata
     id="metadata5">
    <rdf:RDF>
      <cc:Work
         rdf:about="">
        <dc:format>image/svg+xml</dc:format>
        <dc:type
           rdf:resource="http://purl.org/dc/dcmitype/StillImage" />
        <dc:title></dc:title>
      </cc:Work>
    </rdf:RDF>
  </metadata>
  <g
     transform="translate(0,-108)"
     id="layer1">
    <g
       transform="translate(-4.9489797,54.62037)"
       id="layer1-8">
      <g
         transform="matrix(9.1336172,0,0,9.1336172,-27.093674,-2360.6909)"
         id="layer1-3-7">
        <circle
           r="10.196133"
           cy="274.69858"
           cx="13.867022"
           id="path77-8"
           style="fill:#e0745c;fill-opacity:1;stroke-width:0.26458332" />
        <path
           d="m 13.846858,272.69694 c -0.0061,-0.0731 -0.01292,-1.69866 -0.01292,-1.69866 0,0 -0.06862,-1.24816 -2.450705,-1.24816 0,0 0.857808,0.0989 0.857808,1.58241 v 0.58007 c -0.0024,0.019 -0.185691,1.9441 2.411952,2.0987 -2.061159,0.11226 -2.375622,1.30832 -2.411952,1.83027 v 0.001 c -0.0097,0.14572 0,5.80847 0,5.80847 0,0.59541 -0.173177,0.78998 -0.431931,0.83722 -0.521143,0.0945 -0.502978,-0.23817 -0.512263,-0.87477 v -0.14452 l -0.0024,8.1e-4 -1.5892639,0.26562 -0.0013,0.1978 h 0.0013 c 0.01453,0.86145 0.7177319,1.4391 1.5864379,1.29983 v 0.001 c 0.0016,-0.001 0.0029,-0.001 0.0045,-0.001 0,-8e-4 0.264407,-0.0449 0.264407,-0.0449 2.296501,-0.3859 2.273492,-1.80361 2.273492,-1.80361 l -8.07e-4,8.1e-4 c 0,0 0.0077,-6.01313 0.01372,-6.08539 0.007,-0.69185 2.931648,-0.67707 3.8383,-0.67707 l -0.01034,-1.09308 c -0.90625,0 -3.829189,0.1157 -3.827955,-0.83314"
           style="fill:#333840;fill-opacity:1;fill-rule:nonzero;stroke:none;stroke-width:0.40367404"
           id="path1012-0" />
        <path
           d="m 8.2126353,270.24906 c -0.052619,1.53761 2.8296037,2.85318 3.3980067,1.06281 0.176214,-0.55438 -0.146922,-1.07031 -0.728526,-1.15056 -0.597061,-0.0824 -1.3294118,0.51863 -0.9151059,1.13498 -0.6840418,-0.16948 -1.0772597,-0.86051 -0.6103175,-1.4657 0.4159473,-0.53907 1.1883074,-0.71147 1.8329034,-0.69764 1.204413,0.0258 2.270649,0.58826 3.418357,0.8686 1.300196,0.31798 3.953014,0.79794 4.488417,-0.9501 0.464775,-1.51841 -1.978649,-3.1642 -3.091086,-1.89512 -0.426802,0.48667 -0.3894,1.2432 0.23779,1.51091 0.63041,0.26955 1.65236,-0.3401 1.166018,-1.06843 0.889363,0.22997 1.077248,1.17146 0.340311,1.72296 -0.67767,0.50678 -1.576761,0.5021 -2.372027,0.35051 -0.708106,-0.13496 -1.382017,-0.40141 -2.066954,-0.62128 -0.834233,-0.26724 -1.717917,-0.43291 -2.595478,-0.44625 -1.0584608,-0.0162 -2.4738357,0.33581 -2.5022994,1.64428 -0.0067,0.19663 0.00415,-0.19534 0,0"
           style="fill:#333840;fill-opacity:1;fill-rule:nonzero;stroke:none;stroke-width:0.40367404"
           id="path1016-4" />
      </g>
    </g>
  </g>
</svg>
