<?xml version="1.0" encoding="UTF-8" standalone="no"?>
<!-- Created with Inkscape (http://www.inkscape.org/) -->

<svg
   xmlns:dc="http://purl.org/dc/elements/1.1/"
   xmlns:cc="http://creativecommons.org/ns#"
   xmlns:rdf="http://www.w3.org/1999/02/22-rdf-syntax-ns#"
   xmlns:svg="http://www.w3.org/2000/svg"
   xmlns="http://www.w3.org/2000/svg"
   xmlns:sodipodi="http://sodipodi.sourceforge.net/DTD/sodipodi-0.dtd"
   xmlns:inkscape="http://www.inkscape.org/namespaces/inkscape"
   width="3.6791193mm"
   height="5.9996915mm"
   viewBox="0 0 3.6791193 5.9996915"
   version="1.1"
   id="svg5242"
   inkscape:version="0.92.4 5da689c313, 2019-01-14"
   sodipodi:docname="charity.svg">
  <defs
     id="defs5236" />
  <sodipodi:namedview
     id="base"
     pagecolor="#ffffff"
     bordercolor="#666666"
     borderopacity="1.0"
     inkscape:pageopacity="0.0"
     inkscape:pageshadow="2"
     inkscape:zoom="68.442408"
     inkscape:cx="6.9526658"
     inkscape:cy="11.337998"
     inkscape:document-units="mm"
     inkscape:current-layer="layer1"
     showgrid="false"
     fit-margin-top="0"
     fit-margin-left="0"
     fit-margin-right="0"
     fit-margin-bottom="0"
     inkscape:window-width="3000"
     inkscape:window-height="1888"
     inkscape:window-x="0"
     inkscape:window-y="56"
     inkscape:window-maximized="1" />
  <metadata
     id="metadata5239">
    <rdf:RDF>
      <cc:Work
         rdf:about="">
        <dc:format>image/svg+xml</dc:format>
        <dc:type
           rdf:resource="http://purl.org/dc/dcmitype/StillImage" />
        <dc:title></dc:title>
      </cc:Work>
    </rdf:RDF>
  </metadata>
  <g
     inkscape:label="Layer 1"
     inkscape:groupmode="layer"
     id="layer1"
     transform="translate(-82.071155,-83.845392)">
    <g
       id="g1570"
       transform="matrix(0.35277777,0,0,-0.35277777,83.007427,87.643045)">
      <path
         d="M 0,0 C -0.019,-1.383 0.86,-2.243 2,-2.467 V 1.439 C 1.869,1.495 1.645,1.551 1.402,1.607 c -1.869,0.505 -3.738,1.234 -3.738,3.72 0,2.56 2.093,3.869 4.336,3.999 v 1.439 H 3.102 V 9.326 C 5.327,9.083 7.158,7.925 7.308,5.345 H 4.654 C 4.635,6.336 3.944,7.14 3.102,7.14 V 3.831 C 3.402,3.757 3.719,3.682 4.056,3.588 7.7,2.579 7.775,0.505 7.775,-0.748 7.775,-1.813 6.822,-4.411 3.102,-4.654 V -6.242 H 2 v 1.588 C -0.766,-4.448 -2.374,-2.934 -2.654,0 Z M 2,7.14 C 1.159,7.14 0.318,6.616 0.318,5.588 0.318,4.766 0.804,4.374 2,4.093 Z m 1.102,-9.607 c 0.916,0.093 2.019,0.635 2.019,1.832 0,0.99 -0.542,1.345 -2.019,1.756 z"
         style="fill:#000000;fill-opacity:1;fill-rule:nonzero;stroke:none"
         id="path1572"
         inkscape:connector-curvature="0" />
    </g>
  </g>
</svg>
