<?xml version="1.0" encoding="UTF-8" standalone="no"?>
<!-- Created with Inkscape (http://www.inkscape.org/) -->

<svg
   xmlns:dc="http://purl.org/dc/elements/1.1/"
   xmlns:cc="http://creativecommons.org/ns#"
   xmlns:rdf="http://www.w3.org/1999/02/22-rdf-syntax-ns#"
   xmlns:svg="http://www.w3.org/2000/svg"
   xmlns="http://www.w3.org/2000/svg"
   xmlns:sodipodi="http://sodipodi.sourceforge.net/DTD/sodipodi-0.dtd"
   xmlns:inkscape="http://www.inkscape.org/namespaces/inkscape"
   width="5.0000772mm"
   height="5.0289145mm"
   viewBox="0 0 5.0000772 5.0289144"
   version="1.1"
   id="svg5132"
   inkscape:version="0.92.4 5da689c313, 2019-01-14"
   sodipodi:docname="communism.svg">
  <defs
     id="defs5126" />
  <sodipodi:namedview
     id="base"
     pagecolor="#ffffff"
     bordercolor="#666666"
     borderopacity="1.0"
     inkscape:pageopacity="0.0"
     inkscape:pageshadow="2"
     inkscape:zoom="41.248741"
     inkscape:cx="9.210294"
     inkscape:cy="9.4063428"
     inkscape:document-units="mm"
     inkscape:current-layer="layer1"
     showgrid="false"
     fit-margin-top="0"
     fit-margin-left="0"
     fit-margin-right="0"
     fit-margin-bottom="0"
     inkscape:window-width="3000"
     inkscape:window-height="1888"
     inkscape:window-x="0"
     inkscape:window-y="56"
     inkscape:window-maximized="1" />
  <metadata
     id="metadata5129">
    <rdf:RDF>
      <cc:Work
         rdf:about="">
        <dc:format>image/svg+xml</dc:format>
        <dc:type
           rdf:resource="http://purl.org/dc/dcmitype/StillImage" />
        <dc:title></dc:title>
      </cc:Work>
    </rdf:RDF>
  </metadata>
  <g
     inkscape:label="Layer 1"
     inkscape:groupmode="layer"
     id="layer1"
     transform="translate(-98.860728,-110.76342)">
    <g
       id="g1546"
       transform="matrix(0.35277777,0,0,-0.35277777,101.43475,110.76342)">
      <path
         d="m 0,0 c 1.36,-0.83 4.752,-3.677 4.752,-6.901 0,-3.128 -1.783,-4.465 -4.394,-4.465 -2.136,0 -3.941,1.417 -4.527,3.362 0.163,-2.807 2.491,-5.034 5.339,-5.034 2.954,0 5.349,2.395 5.349,5.349 C 6.519,-3.677 2.148,-0.695 0,0"
         style="fill-opacity:1;fill-rule:nonzero;stroke:none"
         id="path1548"
         inkscape:connector-curvature="0" />
    </g>
    <g
       id="g1550"
       transform="matrix(0.35277777,0,0,-0.35277777,100.11254,114.21821)">
      <path
         d="m 0,0 -0.56,-0.56 h -0.48 l -0.107,-0.5 -2.269,-2.268 c 0,0 -0.298,-0.454 0,-0.824 0.299,-0.37 1.099,0 1.099,0 l 2.191,2.191 0.352,0.125 0.101,0.359 0.394,0.394 z"
         style="fill-opacity:1;fill-rule:nonzero;stroke:none"
         id="path1552"
         inkscape:connector-curvature="0" />
    </g>
    <g
       id="g1554"
       transform="matrix(0.35277777,0,0,-0.35277777,99.775249,112.97043)">
      <path
         d="M 0,0 4.226,4.035 1.528,4.8 -1.624,1.719 Z"
         style="fill-opacity:1;fill-rule:nonzero;stroke:none"
         id="path1556"
         inkscape:connector-curvature="0" />
    </g>
    <g
       id="g1566"
       transform="matrix(0.35277777,0,0,-0.35277777,100.16828,112.40214)">
      <path
         d="m 0,0 9.273,-9.61 c 0,0 0.526,0.071 0.836,0.501 0.31,0.43 0.358,0.717 0.358,0.717 l -9.384,9.36 z"
         style="fill-opacity:1;fill-rule:nonzero;stroke:none"
         id="path1568"
         inkscape:connector-curvature="0" />
    </g>
  </g>
</svg>
