<?xml version="1.0" encoding="UTF-8" standalone="no"?>
<!-- Created with Inkscape (http://www.inkscape.org/) -->

<svg
   xmlns:dc="http://purl.org/dc/elements/1.1/"
   xmlns:cc="http://creativecommons.org/ns#"
   xmlns:rdf="http://www.w3.org/1999/02/22-rdf-syntax-ns#"
   xmlns:svg="http://www.w3.org/2000/svg"
   xmlns="http://www.w3.org/2000/svg"
   xmlns:sodipodi="http://sodipodi.sourceforge.net/DTD/sodipodi-0.dtd"
   xmlns:inkscape="http://www.inkscape.org/namespaces/inkscape"
   width="4.9999194mm"
   height="5.9047942mm"
   viewBox="0 0 4.9999194 5.9047942"
   version="1.1"
   id="svg4294"
   inkscape:version="0.92.4 5da689c313, 2019-01-14"
   sodipodi:docname="doomsday.svg">
  <defs
     id="defs4288">
    <clipPath
       clipPathUnits="userSpaceOnUse"
       id="clipPath1476">
      <path
         d="M 0,0 H 595.275 V 841.89 H 0 Z"
         id="path1474"
         inkscape:connector-curvature="0" />
    </clipPath>
    <clipPath
       clipPathUnits="userSpaceOnUse"
       id="clipPath1456">
      <path
         d="M 0,0 H 595.275 V 841.89 H 0 Z"
         id="path1454"
         inkscape:connector-curvature="0" />
    </clipPath>
  </defs>
  <sodipodi:namedview
     id="base"
     pagecolor="#ffffff"
     bordercolor="#666666"
     borderopacity="1.0"
     inkscape:pageopacity="0.0"
     inkscape:pageshadow="2"
     inkscape:zoom="29.909883"
     inkscape:cx="3.559519"
     inkscape:cy="7.5145041"
     inkscape:document-units="mm"
     inkscape:current-layer="layer1"
     showgrid="false"
     fit-margin-top="0"
     fit-margin-left="0"
     fit-margin-right="0"
     fit-margin-bottom="0"
     inkscape:window-width="3000"
     inkscape:window-height="1888"
     inkscape:window-x="0"
     inkscape:window-y="56"
     inkscape:window-maximized="1"
     inkscape:pagecheckerboard="true"
     showguides="false" />
  <metadata
     id="metadata4291">
    <rdf:RDF>
      <cc:Work
         rdf:about="">
        <dc:format>image/svg+xml</dc:format>
        <dc:type
           rdf:resource="http://purl.org/dc/dcmitype/StillImage" />
        <dc:title></dc:title>
      </cc:Work>
    </rdf:RDF>
  </metadata>
  <g
     inkscape:label="Layer 1"
     inkscape:groupmode="layer"
     id="layer1"
     transform="translate(-85.946468,-114.13093)">
    <path
       style="fill:#000000;fill-opacity:1;fill-rule:nonzero;stroke:none;stroke-width:1.33333337"
       d="M 9.1757812 0 L 6.9101562 0.32617188 L 3.5273438 2.0996094 L 3.4980469 2.6015625 L 2.5488281 3.1035156 L 1.0898438 5.1738281 L 0.19921875 7.7753906 L 0 8.8085938 L 0.54492188 13.115234 L 1.2324219 13.871094 L 1.1191406 15.238281 L 1.4902344 15.695312 L 0.80273438 16.464844 L 0.80273438 17.173828 L 1.1464844 17.824219 L 2.5488281 19.302734 L 3.9277344 19.65625 L 4.7597656 19.302734 L 5.3632812 19.539062 L 5.8222656 20.691406 L 5.5917969 21.283203 L 5.5917969 21.490234 L 6.0507812 21.814453 L 6.3378906 21.664062 L 6.4238281 21.828125 L 6.5507812 21.679688 L 6.8378906 21.857422 L 6.9667969 21.724609 L 7.1542969 21.916016 L 7.4121094 21.740234 L 7.5839844 21.769531 L 7.9003906 22.167969 L 8.0566406 22.005859 L 8.2734375 21.886719 L 8.3457031 21.962891 L 8.5742188 22.316406 L 8.7324219 22.167969 L 9.1191406 22.005859 L 9.5761719 22.316406 L 9.6914062 22.226562 L 10.007812 22.064453 L 10.4375 22.316406 L 10.767578 22.183594 L 11.140625 21.740234 L 11.371094 22.005859 L 11.841797 21.695312 L 12.201172 22.005859 L 12.417969 21.785156 L 12.601562 21.886719 L 12.845703 21.607422 L 12.976562 21.886719 L 13.248047 21.814453 L 13.277344 21.400391 L 13.076172 20.691406 L 13.505859 19.982422 L 14.767578 19.714844 L 15.830078 19.863281 L 16.632812 19.271484 L 17.033203 19.09375 L 17.234375 18.771484 L 17.779297 18.533203 L 17.921875 17.972656 L 18.123047 16.908203 L 17.720703 16.199219 L 18.552734 13.478516 L 18.525391 12.384766 L 18.896484 10.138672 L 18.896484 7.5078125 L 18.037109 4.7890625 L 15.714844 2.5136719 L 13.277344 0.70898438 L 9.1757812 0 z M 6.8828125 11.556641 C 7.4561442 11.645989 8.3457031 13.095703 8.3457031 13.095703 L 8.3457031 14.009766 L 8.3457031 14.011719 C 8.3441042 14.926774 7.2265625 15.636719 7.2265625 15.636719 L 5.7363281 16.078125 L 4.2441406 16.197266 L 3.4980469 15.753906 L 3.1269531 14.453125 L 3.1269531 13.183594 L 3.6992188 12.474609 L 5.4492188 11.824219 C 5.4492188 11.824219 6.3094771 11.468578 6.8828125 11.556641 z M 12.732422 11.556641 C 13.305757 11.468578 14.166016 11.824219 14.166016 11.824219 L 15.916016 12.474609 L 16.488281 13.183594 L 16.488281 14.453125 L 16.117188 15.753906 L 15.371094 16.197266 L 13.878906 16.078125 L 12.388672 15.636719 C 12.388672 15.636719 11.27113 14.926774 11.269531 14.011719 L 11.269531 13.095703 C 11.269531 13.095703 12.15909 11.645989 12.732422 11.556641 z M 9.4238281 14.525391 L 9.7089844 14.710938 L 9.4804688 16.009766 L 9.5371094 17.279297 L 9.3378906 18.548828 L 9.5664062 18.902344 L 9.5097656 19.582031 L 8.7929688 19.228516 L 8.4492188 18.695312 L 8.2773438 17.396484 L 8.6796875 16.599609 L 8.6796875 15.773438 L 9.1933594 15.183594 L 9.1933594 14.677734 L 9.4238281 14.525391 z M 10.224609 14.525391 L 10.455078 14.677734 L 10.455078 15.183594 L 10.970703 15.773438 L 10.970703 16.599609 L 11.371094 17.396484 L 11.199219 18.695312 L 10.855469 19.228516 L 10.138672 19.582031 L 10.082031 18.902344 L 10.310547 18.548828 L 10.111328 17.279297 L 10.167969 16.009766 L 9.9394531 14.710938 L 10.224609 14.525391 z "
       transform="matrix(0.26458333,0,0,0.26458333,85.946468,114.13093)"
       id="path1440" />
  </g>
</svg>
