<?xml version="1.0" encoding="UTF-8" standalone="no"?>
<!-- Created with Inkscape (http://www.inkscape.org/) -->

<svg
   xmlns:dc="http://purl.org/dc/elements/1.1/"
   xmlns:cc="http://creativecommons.org/ns#"
   xmlns:rdf="http://www.w3.org/1999/02/22-rdf-syntax-ns#"
   xmlns:svg="http://www.w3.org/2000/svg"
   xmlns="http://www.w3.org/2000/svg"
   xmlns:sodipodi="http://sodipodi.sourceforge.net/DTD/sodipodi-0.dtd"
   xmlns:inkscape="http://www.inkscape.org/namespaces/inkscape"
   width="6.0002203mm"
   height="6.2610998mm"
   viewBox="0 0 6.0002203 6.2610998"
   version="1.1"
   id="svg4016"
   inkscape:version="0.92.4 5da689c313, 2019-01-14"
   sodipodi:docname="finish-line.svg">
  <defs
     id="defs4010" />
  <sodipodi:namedview
     id="base"
     pagecolor="#ffffff"
     bordercolor="#666666"
     borderopacity="1.0"
     inkscape:pageopacity="0.0"
     inkscape:pageshadow="2"
     inkscape:zoom="65.584856"
     inkscape:cx="9.0137661"
     inkscape:cy="11.831999"
     inkscape:document-units="mm"
     inkscape:current-layer="layer1"
     showgrid="false"
     fit-margin-top="0"
     fit-margin-left="0"
     fit-margin-right="0"
     fit-margin-bottom="0"
     inkscape:window-width="3000"
     inkscape:window-height="1888"
     inkscape:window-x="0"
     inkscape:window-y="56"
     inkscape:window-maximized="1"
     inkscape:pagecheckerboard="true" />
  <metadata
     id="metadata4013">
    <rdf:RDF>
      <cc:Work
         rdf:about="">
        <dc:format>image/svg+xml</dc:format>
        <dc:type
           rdf:resource="http://purl.org/dc/dcmitype/StillImage" />
        <dc:title></dc:title>
      </cc:Work>
    </rdf:RDF>
  </metadata>
  <g
     inkscape:label="Layer 1"
     inkscape:groupmode="layer"
     id="layer1"
     transform="translate(-50.672509,-145.70278)">
    <g
       id="g1298"
       transform="matrix(0.35277777,0,0,-0.35277777,52.325978,150.27239)">
      <path
         d="m 0,0 c -0.505,0 -1.072,0.154 -1.719,0.517 l -0.032,0.018 -2.936,7.452 0.251,-0.14 c 2.393,-1.339 3.574,0.314 4.825,2.062 1.249,1.746 2.54,3.551 5.093,2.122 L 5.513,12.013 8.449,4.561 8.199,4.701 C 5.806,6.04 4.624,4.388 3.373,2.639 2.441,1.336 1.486,0 0,0 M -1.587,0.678 C 0.784,-0.629 1.961,1.016 3.206,2.758 4.414,4.446 5.661,6.191 8.052,5.01 L 5.35,11.87 C 2.978,13.177 1.801,11.532 0.556,9.79 -0.652,8.102 -1.899,6.358 -4.29,7.538 Z"
         style="fill-opacity:1;fill-rule:nonzero;stroke:none"
         id="path1300"
         inkscape:connector-curvature="0" />
    </g>
    <g
       id="g1302"
       transform="matrix(0.35277777,0,0,-0.35277777,52.388703,150.23305)">
      <path
         d="M 0,0 C -0.534,-0.041 -1.141,0.099 -1.847,0.495 -2.035,0.972 -2.223,1.448 -2.41,1.925 -1.704,1.53 -1.098,1.389 -0.563,1.43 -0.376,0.954 -0.188,0.477 0,0"
         style="fill-opacity:1;fill-rule:nonzero;stroke:none"
         id="path1304"
         inkscape:connector-curvature="0" />
    </g>
    <g
       id="g1306"
       transform="matrix(0.35277777,0,0,-0.35277777,51.991156,149.22386)">
      <path
         d="M 0,0 C -0.534,-0.041 -1.141,0.099 -1.847,0.495 -2.035,0.971 -2.223,1.448 -2.41,1.925 -1.704,1.53 -1.098,1.389 -0.563,1.43 -0.376,0.953 -0.188,0.477 0,0"
         style="fill-opacity:1;fill-rule:nonzero;stroke:none"
         id="path1308"
         inkscape:connector-curvature="0" />
    </g>
    <path
       inkscape:connector-curvature="0"
       id="path1312"
       style="fill-opacity:1;fill-rule:nonzero;stroke:none;stroke-width:0.35277778"
       d="m 52.689728,149.51765 c -0.148167,0.11747 -0.31115,0.19614 -0.499886,0.21096 -0.06597,-0.16827 -0.132292,-0.33655 -0.198614,-0.50482 0.188383,-0.0145 0.351719,-0.0935 0.499886,-0.21061 0.06632,0.16792 0.132292,0.3362 0.198614,0.50447" />
    <g
       id="g1314"
       transform="matrix(0.35277777,0,0,-0.35277777,53.297282,149.58009)">
      <path
         d="m 0,0 c -0.362,-0.478 -0.739,-0.92 -1.159,-1.253 -0.187,0.477 -0.375,0.953 -0.563,1.43 0.42,0.333 0.796,0.775 1.159,1.253 C -0.376,0.954 -0.188,0.477 0,0"
         style="fill-opacity:1;fill-rule:nonzero;stroke:none"
         id="path1316"
         inkscape:connector-curvature="0" />
    </g>
    <g
       id="g1318"
       transform="matrix(0.35277777,0,0,-0.35277777,51.593646,148.21463)">
      <path
         d="M 0,0 C -0.534,-0.041 -1.141,0.099 -1.847,0.495 -2.035,0.971 -2.223,1.448 -2.41,1.925 -1.704,1.529 -1.098,1.389 -0.563,1.43 -0.376,0.953 -0.188,0.477 0,0"
         style="fill-opacity:1;fill-rule:nonzero;stroke:none"
         id="path1320"
         inkscape:connector-curvature="0" />
    </g>
    <g
       id="g1322"
       transform="matrix(0.35277777,0,0,-0.35277777,52.292218,148.50839)">
      <path
         d="M 0,0 C -0.42,-0.333 -0.882,-0.556 -1.417,-0.598 -1.605,-0.121 -1.792,0.356 -1.98,0.833 -1.446,0.874 -0.983,1.098 -0.563,1.43 -0.376,0.953 -0.188,0.477 0,0"
         style="fill-opacity:1;fill-rule:nonzero;stroke:none"
         id="path1324"
         inkscape:connector-curvature="0" />
    </g>
    <path
       inkscape:connector-curvature="0"
       id="path1328"
       style="fill-opacity:1;fill-rule:nonzero;stroke:none;stroke-width:0.35277778"
       d="m 52.899772,148.57097 c -0.127706,0.16863 -0.260703,0.32456 -0.408869,0.44203 -0.06632,-0.16827 -0.132292,-0.33655 -0.198614,-0.50447 0.148166,-0.11748 0.280811,-0.2734 0.408869,-0.44203 0.06597,0.16792 0.132292,0.3362 0.198614,0.50447" />
    <g
       id="g1330"
       transform="matrix(0.35277777,0,0,-0.35277777,53.476987,148.5564)">
      <path
         d="m 0,0 c -0.362,-0.478 -0.71,-0.993 -1.073,-1.471 -0.187,0.476 -0.375,0.953 -0.563,1.43 0.362,0.478 0.71,0.993 1.072,1.471 C -0.376,0.954 -0.188,0.477 0,0"
         style="fill-opacity:1;fill-rule:nonzero;stroke:none"
         id="path1332"
         inkscape:connector-curvature="0" />
    </g>
    <g
       id="g1334"
       transform="matrix(0.35277777,0,0,-0.35277777,54.084434,148.61885)">
      <path
         d="M 0,0 C -0.42,-0.333 -0.796,-0.775 -1.159,-1.253 -1.346,-0.776 -1.534,-0.3 -1.722,0.177 -1.36,0.655 -0.983,1.098 -0.563,1.43 -0.376,0.954 -0.188,0.477 0,0"
         style="fill-opacity:1;fill-rule:nonzero;stroke:none"
         id="path1336"
         inkscape:connector-curvature="0" />
    </g>
    <g
       id="g1338"
       transform="matrix(0.35277777,0,0,-0.35277777,52.502225,147.56171)">
      <path
         d="m 0,0 c -0.362,-0.478 -0.739,-0.92 -1.159,-1.253 -0.187,0.477 -0.375,0.954 -0.563,1.43 0.42,0.333 0.796,0.775 1.159,1.253 C -0.376,0.954 -0.188,0.477 0,0"
         style="fill-opacity:1;fill-rule:nonzero;stroke:none"
         id="path1340"
         inkscape:connector-curvature="0" />
    </g>
    <g
       id="g1342"
       transform="matrix(0.35277777,0,0,-0.35277777,53.079406,147.54714)">
      <path
         d="m 0,0 c -0.362,-0.478 -0.71,-0.993 -1.072,-1.471 -0.188,0.476 -0.376,0.953 -0.564,1.43 0.362,0.478 0.71,0.993 1.073,1.471 C -0.376,0.954 -0.188,0.477 0,0"
         style="fill-opacity:1;fill-rule:nonzero;stroke:none"
         id="path1344"
         inkscape:connector-curvature="0" />
    </g>
    <g
       id="g1346"
       transform="matrix(0.35277777,0,0,-0.35277777,53.686924,147.60973)">
      <path
         d="m 0,0 c -0.42,-0.333 -0.796,-0.775 -1.159,-1.253 -0.187,0.477 -0.375,0.954 -0.563,1.43 0.362,0.479 0.739,0.921 1.158,1.253 C -0.376,0.954 -0.188,0.477 0,0"
         style="fill-opacity:1;fill-rule:nonzero;stroke:none"
         id="path1348"
         inkscape:connector-curvature="0" />
    </g>
    <g
       id="g1350"
       transform="matrix(0.35277777,0,0,-0.35277777,54.385461,147.90341)">
      <path
         d="M 0,0 C -0.534,-0.041 -0.997,-0.265 -1.417,-0.598 -1.605,-0.121 -1.792,0.356 -1.98,0.833 -1.56,1.165 -1.098,1.389 -0.563,1.43 -0.376,0.954 -0.188,0.477 0,0"
         style="fill-opacity:1;fill-rule:nonzero;stroke:none"
         id="path1352"
         inkscape:connector-curvature="0" />
    </g>
    <g
       id="g1354"
       transform="matrix(0.35277777,0,0,-0.35277777,55.2359,148.58255)">
      <path
         d="M 0,0 C -0.707,0.396 -1.313,0.536 -1.847,0.495 -2.035,0.971 -2.223,1.448 -2.41,1.925 -1.876,1.967 -1.27,1.826 -0.564,1.43 -0.376,0.954 -0.188,0.477 0,0"
         style="fill-opacity:1;fill-rule:nonzero;stroke:none"
         id="path1356"
         inkscape:connector-curvature="0" />
    </g>
    <g
       id="g1358"
       transform="matrix(0.35277777,0,0,-0.35277777,53.289379,146.60046)">
      <path
         d="m 0,0 c -0.42,-0.333 -0.796,-0.775 -1.159,-1.253 -0.188,0.477 -0.375,0.954 -0.563,1.43 0.362,0.479 0.739,0.921 1.159,1.253 C -0.376,0.954 -0.188,0.477 0,0"
         style="fill-opacity:1;fill-rule:nonzero;stroke:none"
         id="path1360"
         inkscape:connector-curvature="0" />
    </g>
    <path
       inkscape:connector-curvature="0"
       id="path1364"
       style="fill-opacity:1;fill-rule:nonzero;stroke:none;stroke-width:0.35277778"
       d="m 53.987951,146.89422 c -0.188383,0.0148 -0.351719,0.0935 -0.499886,0.21096 -0.06597,-0.16827 -0.132292,-0.33655 -0.198614,-0.50482 0.148167,-0.11713 0.31115,-0.19615 0.499886,-0.21061 0.06597,0.16792 0.132292,0.3362 0.198614,0.50447" />
    <g
       id="g1366"
       transform="matrix(0.35277777,0,0,-0.35277777,54.838356,147.57332)">
      <path
         d="M 0,0 C -0.706,0.396 -1.313,0.536 -1.847,0.495 -2.035,0.972 -2.223,1.448 -2.41,1.925 -1.876,1.966 -1.27,1.826 -0.564,1.43 -0.376,0.954 -0.188,0.477 0,0"
         style="fill-opacity:1;fill-rule:nonzero;stroke:none"
         id="path1368"
         inkscape:connector-curvature="0" />
    </g>
    <g
       id="g1370"
       transform="matrix(0.35277777,0,0,-0.35277777,54.440812,146.56413)">
      <path
         d="M 0,0 C -0.706,0.396 -1.312,0.536 -1.847,0.495 -2.035,0.972 -2.223,1.448 -2.41,1.925 -1.876,1.966 -1.27,1.826 -0.563,1.43 -0.376,0.954 -0.188,0.477 0,0"
         style="fill-opacity:1;fill-rule:nonzero;stroke:none"
         id="path1372"
         inkscape:connector-curvature="0" />
    </g>
    <g
       id="g1374"
       transform="matrix(0.35277777,0,0,-0.35277777,56.537968,151.96388)">
      <path
         d="M 0,0 -6.932,17.598 -6.55,17.748 0.382,0.15 Z"
         style="fill-opacity:1;fill-rule:nonzero;stroke:none"
         id="path1376"
         inkscape:connector-curvature="0" />
    </g>
  </g>
</svg>
