<?xml version="1.0" encoding="UTF-8" standalone="no"?>
<!-- Created with Inkscape (http://www.inkscape.org/) -->

<svg
   xmlns:dc="http://purl.org/dc/elements/1.1/"
   xmlns:cc="http://creativecommons.org/ns#"
   xmlns:rdf="http://www.w3.org/1999/02/22-rdf-syntax-ns#"
   xmlns:svg="http://www.w3.org/2000/svg"
   xmlns="http://www.w3.org/2000/svg"
   xmlns:sodipodi="http://sodipodi.sourceforge.net/DTD/sodipodi-0.dtd"
   xmlns:inkscape="http://www.inkscape.org/namespaces/inkscape"
   width="5.5001583mm"
   height="6.4995775mm"
   viewBox="0 0 5.5001583 6.4995775"
   version="1.1"
   id="svg5297"
   inkscape:version="0.92.4 5da689c313, 2019-01-14"
   sodipodi:docname="friday-the-13th.svg">
  <defs
     id="defs5291" />
  <sodipodi:namedview
     id="base"
     pagecolor="#ffffff"
     bordercolor="#666666"
     borderopacity="1.0"
     inkscape:pageopacity="0.0"
     inkscape:pageshadow="2"
     inkscape:zoom="0.35"
     inkscape:cx="67.536855"
     inkscape:cy="-124.8602"
     inkscape:document-units="mm"
     inkscape:current-layer="layer1"
     showgrid="false"
     fit-margin-top="0"
     fit-margin-left="0"
     fit-margin-right="0"
     fit-margin-bottom="0"
     inkscape:window-width="3000"
     inkscape:window-height="1888"
     inkscape:window-x="0"
     inkscape:window-y="56"
     inkscape:window-maximized="1" />
  <metadata
     id="metadata5294">
    <rdf:RDF>
      <cc:Work
         rdf:about="">
        <dc:format>image/svg+xml</dc:format>
        <dc:type
           rdf:resource="http://purl.org/dc/dcmitype/StillImage" />
        <dc:title></dc:title>
      </cc:Work>
    </rdf:RDF>
  </metadata>
  <g
     inkscape:label="Layer 1"
     inkscape:groupmode="layer"
     id="layer1"
     transform="translate(-87.964207,-109.29783)">
    <g
       id="g1574"
       transform="matrix(0.35277777,0,0,-0.35277777,92.214403,112.29817)">
      <path
         d="m 0,0 c 0,-0.781 -0.637,-1.415 -1.419,-1.415 -0.782,0 -1.418,0.634 -1.418,1.415 0,0.786 0.636,1.419 1.418,1.419 C -0.637,1.419 0,0.786 0,0"
         style="fill:#000000;fill-opacity:1;fill-rule:nonzero;stroke:none"
         id="path1576"
         inkscape:connector-curvature="0" />
    </g>
    <g
       id="g1578"
       transform="matrix(0.35277777,0,0,-0.35277777,91.463727,114.29725)">
      <path
         d="m 0,0 c 0,-0.391 -0.315,-0.709 -0.709,-0.709 -0.392,0 -0.706,0.318 -0.706,0.709 0,0.391 0.314,0.709 0.706,0.709 C -0.315,0.709 0,0.391 0,0"
         style="fill:#000000;fill-opacity:1;fill-rule:nonzero;stroke:none"
         id="path1580"
         inkscape:connector-curvature="0" />
    </g>
    <g
       id="g1582"
       transform="matrix(0.35277777,0,0,-0.35277777,90.46406,114.29725)">
      <path
         d="m 0,0 c 0,-0.391 -0.318,-0.709 -0.709,-0.709 -0.391,0 -0.71,0.318 -0.71,0.709 0,0.391 0.319,0.709 0.71,0.709 C -0.318,0.709 0,0.391 0,0"
         style="fill:#000000;fill-opacity:1;fill-rule:nonzero;stroke:none"
         id="path1584"
         inkscape:connector-curvature="0" />
    </g>
    <g
       id="g1586"
       transform="matrix(0.35277777,0,0,-0.35277777,91.2135,113.54785)">
      <path
         d="m 0,0 c 0,0.498 -1.415,0.851 -1.415,0.851 0,0 -1.419,-0.494 -1.419,-0.851 z"
         style="fill:#000000;fill-opacity:1;fill-rule:nonzero;stroke:none"
         id="path1588"
         inkscape:connector-curvature="0" />
    </g>
    <g
       id="g1590"
       transform="matrix(0.35277777,0,0,-0.35277777,90.213835,112.29817)">
      <path
         d="m 0,0 c 0,-0.781 -0.634,-1.415 -1.415,-1.415 -0.786,0 -1.419,0.634 -1.419,1.415 0,0.786 0.633,1.419 1.419,1.419 C -0.634,1.419 0,0.786 0,0"
         style="fill:#000000;fill-opacity:1;fill-rule:nonzero;stroke:none"
         id="path1592"
         inkscape:connector-curvature="0" />
    </g>
    <g
       id="g1594"
       transform="matrix(0.35277777,0,0,-0.35277777,93.013868,112.04773)">
      <path
         d="m 0,0 c 0,-0.425 -0.211,-0.851 -0.495,-0.851 -0.283,0 -0.498,0.426 -0.498,0.851 0,0.426 0.215,0.851 0.498,0.851 C -0.211,0.851 0,0.499 0,0 m -13.038,0 c 0,0.426 0.212,0.851 0.496,0.851 0.283,0 0.495,-0.352 0.495,-0.851 0,-0.425 -0.212,-0.851 -0.495,-0.851 -0.284,0 -0.496,0.357 -0.496,0.851 m 8.492,-8.923 c 0.09,0.121 0.152,0.259 0.152,0.422 0,0.391 -0.318,0.706 -0.709,0.706 -0.392,0 -0.706,-0.315 -0.706,-0.706 0,-0.381 0.298,-0.682 0.668,-0.702 -0.465,-0.184 -0.927,-0.291 -1.378,-0.291 -0.449,0 -0.912,0.107 -1.38,0.291 0.374,0.02 0.671,0.321 0.671,0.702 0,0.391 -0.318,0.706 -0.709,0.706 -0.391,0 -0.71,-0.315 -0.71,-0.706 0,-0.163 0.067,-0.301 0.152,-0.422 -2.099,1.162 -4.062,4.006 -4.51,7.508 h 1.525 v 2.834 h -1.523 c 0.485,3.162 2.682,4.647 5.066,5.052 V 3.543 h 2.834 v 2.928 c 2.387,-0.405 4.581,-1.89 5.068,-5.052 H -1.56 v -2.834 h 1.525 C -0.484,-4.917 -2.443,-7.761 -4.546,-8.923 M -6.519,5.104 c 0.426,0 0.852,-0.215 0.852,-0.499 0,-0.283 -0.426,-0.494 -0.852,-0.494 -0.426,0 -0.851,0.211 -0.851,0.494 0,0.284 0.353,0.499 0.851,0.499 M 1.187,1.419 c -0.471,3.723 -3.01,5.816 -6.29,6.276 v 0.1 H -7.937 V 7.692 C -11.21,7.224 -13.749,5.097 -14.223,1.419 h -0.091 v -2.834 h 0.114 c 0.612,-4.588 3.799,-9.214 7.681,-9.214 3.886,0 7.076,4.581 7.682,9.214 h 0.114 v 2.834 z"
         style="fill:#000000;fill-opacity:1;fill-rule:nonzero;stroke:none"
         id="path1596"
         inkscape:connector-curvature="0" />
    </g>
  </g>
</svg>
