<?xml version="1.0" encoding="UTF-8" standalone="no"?>
<!-- Created with Inkscape (http://www.inkscape.org/) -->

<svg
   xmlns:dc="http://purl.org/dc/elements/1.1/"
   xmlns:cc="http://creativecommons.org/ns#"
   xmlns:rdf="http://www.w3.org/1999/02/22-rdf-syntax-ns#"
   xmlns:svg="http://www.w3.org/2000/svg"
   xmlns="http://www.w3.org/2000/svg"
   xmlns:sodipodi="http://sodipodi.sourceforge.net/DTD/sodipodi-0.dtd"
   xmlns:inkscape="http://www.inkscape.org/namespaces/inkscape"
   width="5.5000887mm"
   height="5.4129648mm"
   viewBox="0 0 5.5000887 5.4129648"
   version="1.1"
   id="svg4659"
   inkscape:version="0.92.4 5da689c313, 2019-01-14"
   sodipodi:docname="gambling-man.svg">
  <defs
     id="defs4653" />
  <sodipodi:namedview
     id="base"
     pagecolor="#ffffff"
     bordercolor="#666666"
     borderopacity="1.0"
     inkscape:pageopacity="0.0"
     inkscape:pageshadow="2"
     inkscape:zoom="75.861075"
     inkscape:cx="12.087756"
     inkscape:cy="10.229224"
     inkscape:document-units="mm"
     inkscape:current-layer="layer1"
     showgrid="false"
     fit-margin-top="0"
     fit-margin-left="0"
     fit-margin-right="0"
     fit-margin-bottom="0"
     inkscape:window-width="3000"
     inkscape:window-height="1888"
     inkscape:window-x="0"
     inkscape:window-y="56"
     inkscape:window-maximized="1"
     inkscape:pagecheckerboard="true" />
  <metadata
     id="metadata4656">
    <rdf:RDF>
      <cc:Work
         rdf:about="">
        <dc:format>image/svg+xml</dc:format>
        <dc:type
           rdf:resource="http://purl.org/dc/dcmitype/StillImage" />
        <dc:title></dc:title>
      </cc:Work>
    </rdf:RDF>
  </metadata>
  <g
     inkscape:label="Layer 1"
     inkscape:groupmode="layer"
     id="layer1"
     transform="translate(-59.238051,-94.722085)">
    <path
       style="fill:#000000;fill-opacity:1;fill-rule:nonzero;stroke:none;stroke-width:1.33333337"
       d="M 9.9082031 0.35546875 C 8.2379256 0.39619333 6.7012796 0.91221072 5.4101562 1.6542969 C 5.794949 1.6332398 6.2580572 1.6670873 6.7539062 1.9003906 C 7.2725746 2.1457198 7.7197969 2.5519505 8.0917969 3.1132812 C 8.0064551 2.3359505 8.1545436 1.6995577 8.5332031 1.2128906 C 8.887234 0.75818033 9.3956442 0.50357013 9.9082031 0.35546875 z M 11.455078 0.46679688 C 10.804852 0.45235524 9.4376259 0.53247295 8.765625 1.3964844 C 8.2722908 2.0298198 8.2362462 2.9793702 8.65625 4.2207031 C 8.6962374 4.3260386 8.7361336 4.4348498 8.7734375 4.546875 C 10.604105 9.3002083 15.772216 11.570465 15.824219 11.591797 C 15.831022 11.594465 16.102385 11.707165 16.511719 11.8125 C 16.773035 11.848406 17.032349 11.8897 17.291016 11.929688 C 17.384332 11.944419 17.474475 11.960588 17.5625 11.980469 C 18.085167 12.009949 18.647914 11.952309 19.142578 11.703125 C 19.775149 11.384876 20.20229 10.790831 20.417969 9.9453125 C 20.270277 8.1029113 19.486518 5.8190654 17.224609 3.4003906 L 17.208984 3.3789062 C 17.195756 3.3588758 15.866653 1.4576935 12.083984 0.56835938 C 11.893689 0.52362597 11.706053 0.50162512 11.517578 0.47070312 C 11.484969 0.46936358 11.492778 0.46763412 11.455078 0.46679688 z M 9.9628906 1.1738281 C 10.363516 1.1285812 10.922718 1.3851957 11.386719 1.8671875 C 12.005386 2.5098546 12.221236 3.3077235 11.865234 3.6503906 C 11.510564 3.9917198 10.72023 3.7481237 10.101562 3.1054688 C 9.4828994 2.4628017 9.2689987 1.6635985 9.625 1.3222656 C 9.7136677 1.2369333 9.8293489 1.1889104 9.9628906 1.1738281 z M 5.265625 1.9511719 C 5.0344569 1.976062 4.8842849 2.0177055 4.78125 2.0507812 C 4.1631712 2.4660156 3.6058129 2.9205783 3.1445312 3.3925781 C 0.1712005 6.4365756 -0.079236725 10.904935 0.88476562 12.960938 L 1.0449219 13.304688 C 1.3796895 14.022744 1.716506 14.726004 2.0878906 15.400391 C 2.4753888 15.853364 2.8911544 16.106601 3.3535156 16.152344 C 4.3121815 16.24566 5.3739901 15.476014 6.4726562 14.554688 C 6.6726688 14.342694 6.8970565 14.127394 7.1503906 13.914062 C 8.5343931 12.319406 9.741221 8.8445973 8.5878906 4.9472656 C 8.5584103 4.8446137 8.5255229 4.7457603 8.4921875 4.6484375 C 8.4495166 4.5377729 8.4109811 4.4269708 8.375 4.3203125 C 7.9563342 3.2429808 7.3709531 2.5205902 6.6269531 2.1699219 C 6.122286 1.9319231 5.6309589 1.911836 5.265625 1.9511719 z M 15.296875 2.4101562 C 15.6975 2.36491 16.256703 2.6234769 16.720703 3.1054688 C 17.33937 3.7481351 17.553886 4.5440517 17.199219 4.8867188 C 16.843225 5.2280472 16.054214 4.9844526 15.435547 4.3417969 C 14.81688 3.6991298 14.604317 2.899926 14.958984 2.5585938 C 15.047652 2.4732615 15.163333 2.4252386 15.296875 2.4101562 z M 13.695312 4.5839844 C 14.095938 4.5387374 14.65514 4.7973051 15.119141 5.2792969 C 15.737808 5.921964 15.951704 6.7178798 15.595703 7.0605469 C 15.241032 7.401876 14.452651 7.1582807 13.833984 6.515625 C 13.215317 5.8729579 12.999467 5.0737548 13.355469 4.7324219 C 13.444136 4.6470896 13.561777 4.5990667 13.695312 4.5839844 z M 9.1582031 6.046875 C 9.5168803 7.9855421 9.3045854 9.6270906 9.03125 10.732422 C 8.7952563 11.68309 8.4361875 12.551484 7.9921875 13.271484 C 10.390853 11.628819 12.876162 11.443256 15.298828 11.669922 C 14.170828 11.095256 10.978201 9.2535433 9.1582031 6.046875 z M 11.955078 6.7695312 C 12.355703 6.7242847 12.914906 6.9828519 13.378906 7.4648438 C 13.997573 8.1075104 14.21147 8.9034267 13.855469 9.2460938 C 13.500798 9.5874225 12.712417 9.3438276 12.09375 8.7011719 C 11.475083 8.0585048 11.259233 7.2593013 11.615234 6.9179688 C 11.703902 6.8326365 11.821536 6.7846136 11.955078 6.7695312 z M 4.6347656 7.6542969 C 4.7057499 7.6496849 4.7766567 7.6547551 4.8476562 7.6699219 C 5.4169892 7.7912447 5.7422184 8.5265444 5.5742188 9.3105469 C 5.4075416 10.094546 4.8101862 10.63243 4.2421875 10.509766 C 3.6728546 10.388443 3.347625 9.6550922 3.515625 8.8710938 C 3.662625 8.1850949 4.1378756 7.6865806 4.6347656 7.6542969 z M 17.240234 7.7226562 C 17.64086 7.6774098 18.202015 7.9340238 18.666016 8.4160156 C 19.284683 9.0586827 19.498579 9.8565507 19.142578 10.199219 C 18.787907 10.540548 17.999526 10.296953 17.380859 9.6542969 C 16.762192 9.0116298 16.546342 8.2124262 16.902344 7.8710938 C 16.991011 7.7857615 17.106693 7.7377386 17.240234 7.7226562 z M 20.443359 10.734375 C 20.174645 11.291763 19.788609 11.710734 19.275391 11.96875 C 18.97541 12.119402 18.657177 12.207959 18.339844 12.251953 C 18.73451 12.455934 19.012495 12.739609 19.173828 13.099609 C 19.430674 13.672668 19.334327 14.332027 19.160156 14.882812 C 19.407697 14.519275 19.584877 14.235014 19.611328 14.1875 C 19.756391 13.927556 20.417113 12.632441 20.443359 10.734375 z M 13.333984 11.896484 C 11.352811 11.957379 9.3608906 12.484063 7.4472656 14.054688 C 7.4230766 14.073198 7.3996303 14.092657 7.3769531 14.111328 C 7.227624 14.280651 7.072093 14.434925 6.9121094 14.572266 C 6.8307739 14.641582 6.7473511 14.70998 6.6660156 14.779297 C 4.6719911 16.900656 5.3214782 18.723832 5.4199219 18.966797 C 6.5150652 19.566342 7.8987758 19.972661 9.7226562 20.095703 C 13.964082 20.381287 16.886939 17.722927 18.404297 15.875 L 18.390625 15.867188 C 18.401208 15.851313 19.386346 14.296701 18.902344 13.220703 C 18.695679 12.75937 18.238969 12.442583 17.542969 12.28125 C 17.125637 12.257439 16.736447 12.181575 16.425781 12.101562 C 15.684448 11.998905 14.934578 11.919588 14.181641 11.896484 C 13.899289 11.887821 13.617009 11.887785 13.333984 11.896484 z M 11.882812 12.539062 C 12.420062 12.501184 12.871188 12.688956 12.992188 13.042969 C 13.153534 13.516302 12.666887 14.10852 11.908203 14.367188 C 11.149535 14.624534 10.404143 14.449877 10.244141 13.976562 C 10.082793 13.504562 10.567485 12.912964 11.326172 12.654297 C 11.515839 12.589629 11.703731 12.551689 11.882812 12.539062 z M 12.583984 15.167969 C 13.121234 15.130098 13.570407 15.315937 13.691406 15.669922 C 13.852754 16.143255 13.368021 16.735474 12.609375 16.994141 C 11.850707 17.251489 11.103362 17.078821 10.943359 16.605469 C 10.782011 16.133466 11.268657 15.54187 12.027344 15.283203 C 12.217011 15.218535 12.404901 15.180592 12.583984 15.167969 z M 5.7050781 15.539062 C 4.8904123 16.128397 4.093552 16.523883 3.3242188 16.449219 C 3.059841 16.422603 2.8115647 16.335494 2.5742188 16.201172 C 3.2090065 17.189321 3.976046 18.075472 5.0546875 18.75 C 4.9219046 18.148691 4.8263994 16.939282 5.7050781 15.539062 z M 13.189453 17.634766 C 13.726703 17.596886 14.175875 17.784659 14.296875 18.138672 C 14.458223 18.612005 13.973527 19.204224 13.214844 19.462891 C 12.456175 19.720239 11.708831 19.545617 11.548828 19.072266 C 11.38748 18.600263 11.87221 18.008667 12.630859 17.75 C 12.820526 17.685332 13.01037 17.647392 13.189453 17.634766 z "
       transform="matrix(0.26458333,0,0,0.26458333,59.238051,94.722085)"
       id="path1500" />
  </g>
</svg>
