<?xml version="1.0" encoding="UTF-8" standalone="no"?>
<!-- Created with Inkscape (http://www.inkscape.org/) -->

<svg
   xmlns:dc="http://purl.org/dc/elements/1.1/"
   xmlns:cc="http://creativecommons.org/ns#"
   xmlns:rdf="http://www.w3.org/1999/02/22-rdf-syntax-ns#"
   xmlns:svg="http://www.w3.org/2000/svg"
   xmlns="http://www.w3.org/2000/svg"
   xmlns:sodipodi="http://sodipodi.sourceforge.net/DTD/sodipodi-0.dtd"
   xmlns:inkscape="http://www.inkscape.org/namespaces/inkscape"
   width="4.9999194mm"
   height="4.9089026mm"
   viewBox="0 0 4.9999194 4.9089026"
   version="1.1"
   id="svg5662"
   inkscape:version="0.92.4 5da689c313, 2019-01-14"
   sodipodi:docname="market.svg">
  <defs
     id="defs5656" />
  <sodipodi:namedview
     id="base"
     pagecolor="#ffffff"
     bordercolor="#666666"
     borderopacity="1.0"
     inkscape:pageopacity="0.0"
     inkscape:pageshadow="2"
     inkscape:zoom="83.650738"
     inkscape:cx="9.448668"
     inkscape:cy="9.276664"
     inkscape:document-units="mm"
     inkscape:current-layer="layer1"
     showgrid="false"
     fit-margin-top="0"
     fit-margin-left="0"
     fit-margin-right="0"
     fit-margin-bottom="0"
     inkscape:window-width="3000"
     inkscape:window-height="1888"
     inkscape:window-x="0"
     inkscape:window-y="56"
     inkscape:window-maximized="1" />
  <metadata
     id="metadata5659">
    <rdf:RDF>
      <cc:Work
         rdf:about="">
        <dc:format>image/svg+xml</dc:format>
        <dc:type
           rdf:resource="http://purl.org/dc/dcmitype/StillImage" />
        <dc:title></dc:title>
      </cc:Work>
    </rdf:RDF>
  </metadata>
  <g
     inkscape:label="Layer 1"
     inkscape:groupmode="layer"
     id="layer1"
     transform="translate(-89.72623,-112.36102)">
    <g
       id="g1634"
       transform="matrix(0.35277777,0,0,-0.35277777,93.271647,115.92584)">
      <path
         d="M 0,0 C 0,-0.791 0.092,-1.933 1.141,-1.933 2.19,-1.933 2.282,-0.791 2.282,0 2.282,0.791 2.19,1.933 1.141,1.933 0.092,1.933 0,0.791 0,0 m 4.123,0 c 0,-1.914 -1.012,-3.332 -2.982,-3.332 -1.969,0 -2.982,1.418 -2.982,3.332 0,1.914 1.013,3.332 2.982,3.332 1.97,0 2.982,-1.418 2.982,-3.332 M 0.055,10.105 H 1.657 L -6.001,-3.81 h -1.601 z m -8.264,-3.81 c 0,-0.791 0.092,-1.933 1.141,-1.933 1.049,0 1.141,1.142 1.141,1.933 0,0.792 -0.092,1.933 -1.141,1.933 -1.049,0 -1.141,-1.141 -1.141,-1.933 m 4.123,0 c 0,-1.914 -1.013,-3.331 -2.982,-3.331 -1.97,0 -2.982,1.417 -2.982,3.331 0,1.914 1.012,3.332 2.982,3.332 1.969,0 2.982,-1.418 2.982,-3.332"
         style="fill-opacity:1;fill-rule:nonzero;stroke:none"
         id="path1636"
         inkscape:connector-curvature="0" />
    </g>
  </g>
</svg>
