<?xml version="1.0" encoding="UTF-8" standalone="no"?>
<!-- Created with Inkscape (http://www.inkscape.org/) -->

<svg
   xmlns:dc="http://purl.org/dc/elements/1.1/"
   xmlns:cc="http://creativecommons.org/ns#"
   xmlns:rdf="http://www.w3.org/1999/02/22-rdf-syntax-ns#"
   xmlns:svg="http://www.w3.org/2000/svg"
   xmlns="http://www.w3.org/2000/svg"
   xmlns:sodipodi="http://sodipodi.sourceforge.net/DTD/sodipodi-0.dtd"
   xmlns:inkscape="http://www.inkscape.org/namespaces/inkscape"
   width="3.9998949mm"
   height="6.9655218mm"
   viewBox="0 0 3.9998949 6.9655218"
   version="1.1"
   id="svg4410"
   inkscape:version="0.92.4 5da689c313, 2019-01-14"
   sodipodi:docname="mating-season.svg">
  <defs
     id="defs4404" />
  <sodipodi:namedview
     id="base"
     pagecolor="#ffffff"
     bordercolor="#666666"
     borderopacity="1.0"
     inkscape:pageopacity="0.0"
     inkscape:pageshadow="2"
     inkscape:zoom="7.3690338"
     inkscape:cx="7.5588563"
     inkscape:cy="13.163191"
     inkscape:document-units="mm"
     inkscape:current-layer="layer1"
     showgrid="false"
     fit-margin-top="0"
     fit-margin-left="0"
     fit-margin-right="0"
     fit-margin-bottom="0"
     inkscape:window-width="3000"
     inkscape:window-height="1888"
     inkscape:window-x="0"
     inkscape:window-y="56"
     inkscape:window-maximized="1" />
  <metadata
     id="metadata4407">
    <rdf:RDF>
      <cc:Work
         rdf:about="">
        <dc:format>image/svg+xml</dc:format>
        <dc:type
           rdf:resource="http://purl.org/dc/dcmitype/StillImage" />
        <dc:title></dc:title>
      </cc:Work>
    </rdf:RDF>
  </metadata>
  <g
     inkscape:label="Layer 1"
     inkscape:groupmode="layer"
     id="layer1"
     transform="translate(-87.202434,-118.13629)">
    <g
       id="g1706"
       transform="matrix(0.35277777,0,0,-0.35277777,90.316191,125.06579)">
      <path
         d="M 0,0 C 0,0 0.015,0.001 0.045,0.004 0.074,0.007 0.118,0.011 0.172,0.02 0.28,0.038 0.441,0.071 0.63,0.148 0.818,0.225 1.033,0.349 1.234,0.536 1.436,0.722 1.619,0.976 1.732,1.28 1.845,1.582 1.88,1.936 1.811,2.282 1.743,2.627 1.563,2.957 1.299,3.203 1.037,3.452 0.691,3.607 0.342,3.637 0.254,3.646 0.166,3.645 0.079,3.638 L 0.005,3.632 -0.04,3.629 H -0.051 L -0.074,3.628 -0.097,3.627 -0.188,3.622 C -0.219,3.621 -0.262,3.621 -0.299,3.621 c -0.294,0 -0.574,0.029 -0.858,0.082 -0.564,0.108 -1.102,0.323 -1.587,0.598 -0.484,0.276 -0.917,0.613 -1.295,0.975 -0.757,0.728 -1.298,1.554 -1.662,2.318 -0.367,0.763 -0.553,1.47 -0.643,1.98 -0.044,0.255 -0.067,0.46 -0.078,0.601 -0.012,0.141 -0.016,0.218 -0.016,0.218 l -0.002,0.035 c -0.033,0.724 0.526,1.339 1.251,1.373 0.724,0.034 1.338,-0.526 1.372,-1.25 0.003,-0.06 0.001,-0.126 -0.004,-0.185 0,0 -0.004,-0.046 -0.012,-0.132 -0.008,-0.087 -0.015,-0.216 -0.014,-0.385 0.005,-0.335 0.048,-0.836 0.224,-1.43 0.172,-0.591 0.477,-1.275 0.95,-1.901 0.468,-0.625 1.112,-1.186 1.871,-1.463 0.187,-0.068 0.389,-0.122 0.579,-0.153 0.024,-0.003 0.042,-0.008 0.071,-0.011 l 0.09,-0.01 0.023,-0.002 0.005,-10e-4 H -0.039 L -0.028,4.877 0.017,4.873 0.124,4.863 C 0.278,4.847 0.43,4.82 0.577,4.778 1.168,4.615 1.671,4.255 2.001,3.809 2.335,3.364 2.501,2.839 2.511,2.351 2.524,1.863 2.393,1.413 2.187,1.06 1.981,0.705 1.709,0.445 1.44,0.27 1.172,0.094 0.909,0 0.691,-0.049 0.472,-0.097 0.298,-0.103 0.179,-0.102 c -0.06,0 -0.103,0.003 -0.133,0.005 -0.029,0.002 -0.045,0.003 -0.045,0.003 -0.025,0.002 -0.045,0.025 -0.043,0.05 C -0.04,-0.02 -0.022,-0.002 0,0"
         style="fill:#000000;fill-opacity:1;fill-rule:nonzero;stroke:none"
         id="path1708"
         inkscape:connector-curvature="0" />
    </g>
    <g
       id="g1710"
       transform="matrix(0.35277777,0,0,-0.35277777,87.202434,119.95803)">
      <path
         d="M 0,0 C 0,2.852 1.632,5.164 3.645,5.164 5.658,5.164 7.29,2.852 7.29,0 7.29,-2.852 5.658,-5.164 3.645,-5.164 1.632,-5.164 0,-2.852 0,0"
         style="fill:#000000;fill-opacity:1;fill-rule:nonzero;stroke:none"
         id="path1712"
         inkscape:connector-curvature="0" />
    </g>
  </g>
</svg>
