<?xml version="1.0" encoding="UTF-8" standalone="no"?>
<!-- Created with Inkscape (http://www.inkscape.org/) -->

<svg
   xmlns:dc="http://purl.org/dc/elements/1.1/"
   xmlns:cc="http://creativecommons.org/ns#"
   xmlns:rdf="http://www.w3.org/1999/02/22-rdf-syntax-ns#"
   xmlns:svg="http://www.w3.org/2000/svg"
   xmlns="http://www.w3.org/2000/svg"
   xmlns:sodipodi="http://sodipodi.sourceforge.net/DTD/sodipodi-0.dtd"
   xmlns:inkscape="http://www.inkscape.org/namespaces/inkscape"
   width="6.5002842mm"
   height="6.2402868mm"
   viewBox="0 0 6.5002842 6.2402868"
   version="1.1"
   id="svg4459"
   inkscape:version="0.92.4 5da689c313, 2019-01-14"
   sodipodi:docname="robin-hood.svg">
  <defs
     id="defs4453" />
  <sodipodi:namedview
     id="base"
     pagecolor="#ffffff"
     bordercolor="#666666"
     borderopacity="1.0"
     inkscape:pageopacity="0.0"
     inkscape:pageshadow="2"
     inkscape:zoom="10.006217"
     inkscape:cx="12.284002"
     inkscape:cy="11.792668"
     inkscape:document-units="mm"
     inkscape:current-layer="layer1"
     showgrid="false"
     fit-margin-top="0"
     fit-margin-left="0"
     fit-margin-right="0"
     fit-margin-bottom="0"
     inkscape:window-width="892"
     inkscape:window-height="572"
     inkscape:window-x="1598"
     inkscape:window-y="151"
     inkscape:window-maximized="0" />
  <metadata
     id="metadata4456">
    <rdf:RDF>
      <cc:Work
         rdf:about="">
        <dc:format>image/svg+xml</dc:format>
        <dc:type
           rdf:resource="http://purl.org/dc/dcmitype/StillImage" />
        <dc:title></dc:title>
      </cc:Work>
    </rdf:RDF>
  </metadata>
  <g
     inkscape:label="Layer 1"
     inkscape:groupmode="layer"
     id="layer1"
     transform="translate(-77.636763,-123.03462)">
    <g
       id="g1714"
       transform="matrix(0.35277777,0,0,-0.35277777,81.803068,123.82414)">
      <path
         d="m 0,0 c 0.31,0.467 0.488,1.023 0.488,1.608 0,0.348 -0.281,0.63 -0.629,0.63 C -0.49,2.239 -0.772,1.955 -0.772,1.607 -0.772,0.868 -1.269,0.21 -1.982,0.008 -4.77,-0.784 -6.757,-3.27 -6.955,-6.131 h -2.214 l 0.871,1.245 c 0.055,0.079 0.047,0.187 -0.018,0.258 -0.066,0.071 -0.174,0.087 -0.257,0.038 l -3.134,-1.835 c -0.063,-0.037 -0.102,-0.107 -0.103,-0.178 0,-0.074 0.04,-0.144 0.103,-0.181 l 3.134,-1.835 c 0.083,-0.049 0.191,-0.033 0.257,0.038 0.067,0.073 0.074,0.18 0.018,0.261 l -0.87,1.244 2.212,-0.002 c 0.199,-2.86 2.186,-5.347 4.973,-6.14 0.713,-0.202 1.212,-0.862 1.211,-1.602 l 0.001,-10e-4 c 0,-0.348 0.282,-0.63 0.63,-0.63 0.174,0 0.331,0.071 0.446,0.185 0.114,0.114 0.185,0.272 0.184,0.446 0,0.587 -0.18,1.144 -0.49,1.612 0,0.007 0.001,0.012 0.002,0.02 v 6.111 l 2.204,0.001 0.73,-1.461 c 0.036,-0.07 0.107,-0.114 0.186,-0.114 h 0.796 c 0.072,-10e-4 0.139,0.037 0.176,0.098 0.039,0.061 0.042,0.138 0.01,0.201 l -0.637,1.277 0.629,-10e-4 0.731,-1.46 C 4.86,-8.607 4.932,-8.651 5.01,-8.651 h 0.797 c 0.074,0 0.139,0.037 0.177,0.099 0.038,0.06 0.041,0.137 0.01,0.201 l -0.639,1.276 h 0.788 c 0.13,0 0.249,0.053 0.333,0.138 0.086,0.086 0.14,0.204 0.14,0.335 0.001,0.26 -0.211,0.472 -0.472,0.472 H 5.359 l 0.635,1.27 c 0.031,0.064 0.029,0.14 -0.01,0.201 -0.038,0.062 -0.104,0.098 -0.176,0.098 H 5.012 c -0.079,0 -0.15,-0.044 -0.186,-0.114 L 4.098,-6.131 3.469,-6.13 4.104,-4.86 c 0.031,0.064 0.029,0.14 -0.01,0.201 C 4.057,-4.598 3.991,-4.56 3.919,-4.56 L 3.122,-4.561 c -0.078,0 -0.15,-0.044 -0.185,-0.113 L 2.209,-6.131 0.003,-6.13 Z m -1.637,-1.205 c 0.13,0.037 0.256,0.085 0.378,0.14 v -5.068 h -4.436 c 0.195,2.301 1.808,4.29 4.058,4.928 m 0.378,-10.941 c -0.123,0.056 -0.249,0.104 -0.38,0.14 -2.248,0.64 -3.861,2.629 -4.056,4.93 l 4.435,-0.001 z"
         style="fill:#000000;fill-opacity:1;fill-rule:nonzero;stroke:none"
         id="path1716"
         inkscape:connector-curvature="0" />
    </g>
  </g>
</svg>
