<?xml version="1.0" encoding="UTF-8" standalone="no"?>
<!-- Created with Inkscape (http://www.inkscape.org/) -->

<svg
   xmlns:dc="http://purl.org/dc/elements/1.1/"
   xmlns:cc="http://creativecommons.org/ns#"
   xmlns:rdf="http://www.w3.org/1999/02/22-rdf-syntax-ns#"
   xmlns:svg="http://www.w3.org/2000/svg"
   xmlns="http://www.w3.org/2000/svg"
   xmlns:sodipodi="http://sodipodi.sourceforge.net/DTD/sodipodi-0.dtd"
   xmlns:inkscape="http://www.inkscape.org/namespaces/inkscape"
   width="6.0000443mm"
   height="5.196064mm"
   viewBox="0 0 6.0000443 5.196064"
   version="1.1"
   id="svg5464"
   inkscape:version="0.92.4 5da689c313, 2019-01-14"
   sodipodi:docname="the-all-seeing-eye.svg">
  <defs
     id="defs5458" />
  <sodipodi:namedview
     id="base"
     pagecolor="#ffffff"
     bordercolor="#666666"
     borderopacity="1.0"
     inkscape:pageopacity="0.0"
     inkscape:pageshadow="2"
     inkscape:zoom="39.513885"
     inkscape:cx="-2.7196833"
     inkscape:cy="9.8193331"
     inkscape:document-units="mm"
     inkscape:current-layer="layer1"
     showgrid="false"
     fit-margin-top="0"
     fit-margin-left="0"
     fit-margin-right="0"
     fit-margin-bottom="0"
     inkscape:window-width="3000"
     inkscape:window-height="1888"
     inkscape:window-x="0"
     inkscape:window-y="56"
     inkscape:window-maximized="1"
     inkscape:pagecheckerboard="true" />
  <metadata
     id="metadata5461">
    <rdf:RDF>
      <cc:Work
         rdf:about="">
        <dc:format>image/svg+xml</dc:format>
        <dc:type
           rdf:resource="http://purl.org/dc/dcmitype/StillImage" />
        <dc:title></dc:title>
      </cc:Work>
    </rdf:RDF>
  </metadata>
  <g
     inkscape:label="Layer 1"
     inkscape:groupmode="layer"
     id="layer1"
     transform="translate(-108.88093,-69.128158)">
    <path
       style="fill:#000000;fill-opacity:1;fill-rule:nonzero;stroke:none;stroke-width:1.33333337"
       d="M 11.337891 0 L 0 19.638672 L 22.677734 19.638672 L 11.337891 0 z M 11.339844 8.5292969 C 13.59316 8.5292969 17.148438 11.589844 17.148438 11.589844 C 17.148438 11.589844 13.59316 14.648438 11.339844 14.648438 C 9.0851666 14.648438 5.5292969 11.589844 5.5292969 11.589844 C 5.5292969 11.589844 9.0851666 8.5292969 11.339844 8.5292969 z "
       transform="matrix(0.26458333,0,0,0.26458333,108.88093,69.128158)"
       id="path1616" />
    <g
       id="g1630"
       transform="matrix(0.35277777,0,0,-0.35277777,111.15172,72.194395)">
      <path
         d="M 0,0 C 0,1.142 0.925,2.067 2.067,2.067 3.209,2.067 4.134,1.142 4.134,0 4.134,-1.142 3.209,-2.067 2.067,-2.067 0.925,-2.067 0,-1.142 0,0"
         style="fill:#000000;fill-opacity:1;fill-rule:nonzero;stroke:none"
         id="path1632"
         inkscape:connector-curvature="0" />
    </g>
  </g>
</svg>
