<?xml version="1.0" encoding="UTF-8" standalone="no"?>
<!-- Created with Inkscape (http://www.inkscape.org/) -->

<svg
   xmlns:dc="http://purl.org/dc/elements/1.1/"
   xmlns:cc="http://creativecommons.org/ns#"
   xmlns:rdf="http://www.w3.org/1999/02/22-rdf-syntax-ns#"
   xmlns:svg="http://www.w3.org/2000/svg"
   xmlns="http://www.w3.org/2000/svg"
   xmlns:sodipodi="http://sodipodi.sourceforge.net/DTD/sodipodi-0.dtd"
   xmlns:inkscape="http://www.inkscape.org/namespaces/inkscape"
   width="3.0000222mm"
   height="4.3818526mm"
   viewBox="0 0 3.0000222 4.3818526"
   version="1.1"
   id="svg5707"
   inkscape:version="0.92.4 5da689c313, 2019-01-14"
   sodipodi:docname="third-time-lucky.svg">
  <defs
     id="defs5701" />
  <sodipodi:namedview
     id="base"
     pagecolor="#ffffff"
     bordercolor="#666666"
     borderopacity="1.0"
     inkscape:pageopacity="0.0"
     inkscape:pageshadow="2"
     inkscape:zoom="93.712264"
     inkscape:cx="5.6693396"
     inkscape:cy="8.2806745"
     inkscape:document-units="mm"
     inkscape:current-layer="layer1"
     showgrid="false"
     fit-margin-top="0"
     fit-margin-left="0"
     fit-margin-right="0"
     fit-margin-bottom="0"
     inkscape:window-width="3000"
     inkscape:window-height="1888"
     inkscape:window-x="0"
     inkscape:window-y="56"
     inkscape:window-maximized="1" />
  <metadata
     id="metadata5704">
    <rdf:RDF>
      <cc:Work
         rdf:about="">
        <dc:format>image/svg+xml</dc:format>
        <dc:type
           rdf:resource="http://purl.org/dc/dcmitype/StillImage" />
        <dc:title></dc:title>
      </cc:Work>
    </rdf:RDF>
  </metadata>
  <g
     inkscape:label="Layer 1"
     inkscape:groupmode="layer"
     id="layer1"
     transform="translate(-103.57737,-105.06503)">
    <g
       id="g1638"
       transform="matrix(0.35277777,0,0,-0.35277777,104.77858,106.80775)">
      <path
         d="m 0,0 h 0.865 c 0.882,0 1.57,0.406 1.57,1.341 0,1.006 -0.582,1.623 -1.588,1.623 -1.217,0 -1.606,-1.059 -1.694,-2.064 l -2.346,0.494 c 0.388,2.329 1.87,3.546 4.216,3.546 1.959,0 3.776,-1.041 3.776,-3.211 0,-1.394 -0.671,-2.188 -1.976,-2.523 v -0.035 c 1.5,-0.353 2.258,-1.429 2.276,-2.964 0,-2.488 -2.047,-3.688 -4.34,-3.688 -2.347,0 -4.164,1.094 -4.164,4.129 h 2.258 c 0,-1.288 0.653,-2.153 1.976,-2.153 1.129,0 1.8,0.759 1.8,1.853 0,1.341 -0.847,1.782 -1.764,1.782 L 0,-1.87 Z"
         style="fill:#000000;fill-opacity:1;fill-rule:nonzero;stroke:none"
         id="path1640"
         inkscape:connector-curvature="0" />
    </g>
  </g>
</svg>
