<?xml version="1.0" encoding="UTF-8" standalone="no"?>
<!-- Created with Inkscape (http://www.inkscape.org/) -->

<svg
   xmlns:dc="http://purl.org/dc/elements/1.1/"
   xmlns:cc="http://creativecommons.org/ns#"
   xmlns:rdf="http://www.w3.org/1999/02/22-rdf-syntax-ns#"
   xmlns:svg="http://www.w3.org/2000/svg"
   xmlns="http://www.w3.org/2000/svg"
   xmlns:sodipodi="http://sodipodi.sourceforge.net/DTD/sodipodi-0.dtd"
   xmlns:inkscape="http://www.inkscape.org/namespaces/inkscape"
   width="5.000308mm"
   height="5.9415507mm"
   viewBox="0 0 5.000308 5.9415507"
   version="1.1"
   id="svg5055"
   inkscape:version="0.92.4 5da689c313, 2019-01-14"
   sodipodi:docname="time-bomb.svg">
  <defs
     id="defs5049" />
  <sodipodi:namedview
     id="base"
     pagecolor="#ffffff"
     bordercolor="#666666"
     borderopacity="1.0"
     inkscape:pageopacity="0.0"
     inkscape:pageshadow="2"
     inkscape:zoom="17.278037"
     inkscape:cx="7.8216106"
     inkscape:cy="11.228127"
     inkscape:document-units="mm"
     inkscape:current-layer="layer1"
     showgrid="false"
     fit-margin-top="0"
     fit-margin-left="0"
     fit-margin-right="0"
     fit-margin-bottom="0"
     inkscape:window-width="3000"
     inkscape:window-height="1888"
     inkscape:window-x="0"
     inkscape:window-y="56"
     inkscape:window-maximized="1"
     inkscape:pagecheckerboard="true" />
  <metadata
     id="metadata5052">
    <rdf:RDF>
      <cc:Work
         rdf:about="">
        <dc:format>image/svg+xml</dc:format>
        <dc:type
           rdf:resource="http://purl.org/dc/dcmitype/StillImage" />
        <dc:title></dc:title>
      </cc:Work>
    </rdf:RDF>
  </metadata>
  <g
     inkscape:label="Layer 1"
     inkscape:groupmode="layer"
     id="layer1"
     transform="translate(-98.797464,-98.993509)">
    <path
       style="fill-opacity:1;fill-rule:nonzero;stroke:none;stroke-width:1.33333337"
       d="M 13.121094 6.5527344 L 12.345703 7.4296875 C 12.678914 7.6459792 13.006136 7.8794212 13.3125 8.1503906 C 13.729959 8.5197661 14.099278 8.9222717 14.421875 9.3515625 L 15.240234 8.4277344 L 13.121094 6.5527344 z M 12.0625 7.75 L 11.660156 8.2050781 L 13.779297 10.078125 L 14.130859 9.6816406 C 13.812829 9.2476934 13.448209 8.8395539 13.029297 8.46875 C 12.72275 8.1975424 12.397311 7.9633885 12.0625 7.75 z "
       transform="matrix(0.26458333,0,0,0.26458333,98.797464,98.993509)"
       id="path1846" />
    <path
       style="fill-opacity:1;fill-rule:nonzero;stroke:none;stroke-width:1.33333337"
       d="M 8.3710938 6.6914062 C 6.1592394 6.6159032 3.930777 7.4887403 2.3535156 9.2714844 C 0.99485118 10.807484 0.31740751 12.779482 0.44140625 14.826172 C 0.56673538 16.872824 1.4815781 18.748757 3.0175781 20.107422 C 6.1869236 22.911416 11.046211 22.612682 13.851562 19.443359 C 16.655556 16.273999 16.358776 11.414729 13.189453 8.609375 C 11.802858 7.3826278 10.091425 6.7501311 8.3710938 6.6914062 z M 8.2988281 8.78125 C 9.5501943 8.8240794 10.794156 9.2852352 11.802734 10.177734 C 14.108095 12.217734 14.323203 15.751948 12.283203 18.058594 C 11.181849 19.302625 9.6449448 19.9375 8.0996094 19.9375 C 6.7836157 19.9375 5.4643032 19.476385 4.4042969 18.539062 C 3.2869627 17.551058 2.619964 16.188579 2.5292969 14.699219 C 2.438626 13.211219 2.9338763 11.775507 3.921875 10.658203 C 5.0693665 9.361438 6.6899287 8.7261836 8.2988281 8.78125 z M 7.7890625 9.2128906 C 6.4710661 9.2935599 5.1822419 9.8767328 4.2402344 10.941406 C 3.3269002 11.973406 2.8710781 13.299176 2.9550781 14.673828 C 3.0390592 16.04848 3.6535431 17.308703 4.6855469 18.220703 C 6.8148947 20.104684 10.080863 19.904739 11.964844 17.775391 C 13.848863 15.64608 13.648879 12.380075 11.519531 10.496094 C 10.454876 9.5540839 9.1070589 9.1322213 7.7890625 9.2128906 z M 7.9375 9.7929688 C 8.1733425 9.7929688 8.3652344 9.9845204 8.3652344 10.220703 L 8.3652344 13.816406 L 10.294922 12.431641 C 10.390922 12.363042 10.505782 12.339753 10.613281 12.357422 C 10.72078 12.375091 10.821951 12.433864 10.890625 12.529297 C 11.027822 12.721297 10.983016 12.987059 10.791016 13.123047 L 8.1855469 14.990234 C 8.1782949 14.995466 8.1695137 14.99335 8.1621094 14.998047 C 8.0977137 15.038969 8.0252253 15.067162 7.9433594 15.068359 C 7.9412296 15.068391 7.9396374 15.070312 7.9375 15.070312 C 7.8728632 15.070312 7.8126852 15.054932 7.7578125 15.029297 C 7.7417607 15.021805 7.7299342 15.007591 7.7148438 14.998047 C 7.6769193 14.974088 7.6438072 14.946461 7.6152344 14.912109 C 7.6085468 14.904029 7.5979698 14.901271 7.5917969 14.892578 C 7.5827282 14.879887 7.5817071 14.864839 7.5742188 14.851562 C 7.5590958 14.825323 7.5464276 14.798935 7.5371094 14.769531 C 7.5292585 14.744146 7.5244358 14.71934 7.5214844 14.693359 C 7.5193241 14.675922 7.5117188 14.660612 7.5117188 14.642578 L 7.5117188 10.220703 C 7.5117188 9.9848606 7.7013173 9.7929688 7.9375 9.7929688 z "
       transform="matrix(0.26458333,0,0,0.26458333,98.797464,98.993509)"
       id="path1858" />
    <path
       inkscape:connector-curvature="0"
       id="path1866"
       style="fill-opacity:1;fill-rule:nonzero;stroke:none;stroke-width:0.35277778"
       d="m 102.63043,99.077823 c 0.10619,0.09349 0.21272,0.186972 0.31891,0.280458 0.12136,-0.07303 0.24271,-0.14605 0.36407,-0.219075 l 0.10936,-0.06597 -0.025,0.125589 c -0.0279,0.138641 -0.0557,0.277636 -0.0836,0.416278 0.12383,0.06844 0.24765,0.13723 0.37183,0.205669 l 0.11183,0.06174 -0.12135,0.04092 c -0.13406,0.04551 -0.26812,0.09067 -0.40217,0.135818 0.002,0.14182 0.005,0.28328 0.008,0.42475 l 0.002,0.12805 -0.0963,-0.0847 c -0.10618,-0.0935 -0.21237,-0.18698 -0.31891,-0.28046 -0.121,0.073 -0.24236,0.14605 -0.36371,0.21907 l -0.10972,0.066 0.0254,-0.12523 c 0.0279,-0.139 0.0557,-0.27799 0.0836,-0.416633 -0.12382,-0.06844 -0.248,-0.13723 -0.37183,-0.205669 l -0.11183,-0.06174 0.12101,-0.04092 c 0.13405,-0.04516 0.26846,-0.09066 0.40252,-0.13582 -0.002,-0.141464 -0.005,-0.28328 -0.008,-0.424744 l -0.002,-0.127706 z" />
  </g>
</svg>
