<?xml version="1.0" encoding="UTF-8" standalone="no"?>
<!-- Created with Inkscape (http://www.inkscape.org/) -->

<svg
   xmlns:dc="http://purl.org/dc/elements/1.1/"
   xmlns:cc="http://creativecommons.org/ns#"
   xmlns:rdf="http://www.w3.org/1999/02/22-rdf-syntax-ns#"
   xmlns:svg="http://www.w3.org/2000/svg"
   xmlns="http://www.w3.org/2000/svg"
   xmlns:sodipodi="http://sodipodi.sourceforge.net/DTD/sodipodi-0.dtd"
   xmlns:inkscape="http://www.inkscape.org/namespaces/inkscape"
   width="5.9998789mm"
   height="5.9307942mm"
   viewBox="0 0 5.9998789 5.9307942"
   version="1.1"
   id="svg3562"
   inkscape:version="0.92.4 5da689c313, 2019-01-14"
   sodipodi:docname="tornado.svg">
  <defs
     id="defs3556" />
  <sodipodi:namedview
     id="base"
     pagecolor="#ffffff"
     bordercolor="#666666"
     borderopacity="1.0"
     inkscape:pageopacity="0.0"
     inkscape:pageshadow="2"
     inkscape:zoom="34.618748"
     inkscape:cx="11.338358"
     inkscape:cy="11.207802"
     inkscape:document-units="mm"
     inkscape:current-layer="layer1"
     showgrid="false"
     fit-margin-top="0"
     fit-margin-left="0"
     fit-margin-right="0"
     fit-margin-bottom="0"
     inkscape:window-width="3000"
     inkscape:window-height="1888"
     inkscape:window-x="0"
     inkscape:window-y="56"
     inkscape:window-maximized="1" />
  <metadata
     id="metadata3559">
    <rdf:RDF>
      <cc:Work
         rdf:about="">
        <dc:format>image/svg+xml</dc:format>
        <dc:type
           rdf:resource="http://purl.org/dc/dcmitype/StillImage" />
        <dc:title></dc:title>
      </cc:Work>
    </rdf:RDF>
  </metadata>
  <g
     inkscape:label="Layer 1"
     inkscape:groupmode="layer"
     id="layer1"
     transform="translate(-119.46435,-169.30246)">
    <g
       id="g1174"
       transform="matrix(0.35277777,0,0,-0.35277777,122.52418,172.15174)">
      <path
         d="M 0,0 C 0,0 -0.054,0.004 -0.155,0.012 -0.205,0.017 -0.268,0.018 -0.342,0.019 -0.379,0.02 -0.419,0.021 -0.462,0.021 -0.504,0.019 -0.549,0.017 -0.597,0.014 -0.788,0.004 -1.021,-0.018 -1.284,-0.079 -1.546,-0.138 -1.838,-0.231 -2.142,-0.372 -2.446,-0.513 -2.757,-0.706 -3.057,-0.951 -3.206,-1.074 -3.353,-1.209 -3.49,-1.36 -3.63,-1.508 -3.759,-1.672 -3.88,-1.847 -4.004,-2.02 -4.11,-2.209 -4.208,-2.404 -4.307,-2.6 -4.387,-2.808 -4.456,-3.021 -4.524,-3.234 -4.574,-3.455 -4.61,-3.678 -4.644,-3.902 -4.659,-4.13 -4.662,-4.357 l 0.004,-0.167 c 0.001,-0.052 0.005,-0.111 0.01,-0.17 0.007,-0.118 0.023,-0.23 0.038,-0.342 0.036,-0.224 0.086,-0.444 0.154,-0.658 0.069,-0.213 0.148,-0.421 0.247,-0.616 0.099,-0.196 0.204,-0.385 0.328,-0.558 0.121,-0.174 0.25,-0.339 0.39,-0.487 0.138,-0.15 0.284,-0.286 0.433,-0.409 0.3,-0.244 0.612,-0.438 0.916,-0.579 0.303,-0.141 0.596,-0.234 0.858,-0.293 0.066,-0.013 0.13,-0.028 0.191,-0.038 0.062,-0.01 0.122,-0.019 0.179,-0.028 0.058,-0.007 0.113,-0.011 0.166,-0.016 0.053,-0.006 0.103,-0.009 0.151,-0.011 0.048,-0.002 0.093,-0.004 0.135,-0.006 0.043,0 0.083,10e-4 0.119,0.002 0.074,0 0.137,0.002 0.188,0.007 0.101,0.008 0.155,0.012 0.155,0.012 0,0 -0.054,0.007 -0.154,0.02 -0.05,0.005 -0.112,0.015 -0.183,0.028 -0.036,0.006 -0.075,0.013 -0.116,0.02 -0.04,0.009 -0.083,0.018 -0.129,0.027 -0.182,0.04 -0.4,0.099 -0.64,0.19 -0.239,0.09 -0.501,0.211 -0.767,0.372 -0.266,0.16 -0.533,0.364 -0.787,0.607 -0.125,0.123 -0.25,0.253 -0.364,0.397 -0.059,0.07 -0.112,0.146 -0.168,0.22 -0.028,0.038 -0.053,0.078 -0.079,0.116 -0.027,0.039 -0.053,0.079 -0.077,0.12 -0.1,0.16 -0.188,0.331 -0.269,0.508 -0.019,0.045 -0.038,0.089 -0.057,0.134 -0.018,0.046 -0.035,0.092 -0.052,0.138 -0.018,0.045 -0.033,0.092 -0.048,0.138 -0.015,0.048 -0.033,0.094 -0.044,0.142 -0.057,0.189 -0.093,0.385 -0.125,0.582 -0.012,0.099 -0.026,0.198 -0.03,0.294 -0.004,0.048 -0.008,0.095 -0.008,0.151 l -0.004,0.153 c 0.002,0.2 0.014,0.401 0.042,0.598 0.031,0.197 0.068,0.393 0.124,0.582 0.012,0.048 0.03,0.094 0.044,0.141 0.015,0.047 0.031,0.094 0.049,0.14 0.017,0.046 0.034,0.091 0.051,0.137 0.019,0.045 0.039,0.09 0.058,0.134 0.08,0.177 0.168,0.348 0.269,0.509 0.024,0.041 0.049,0.08 0.076,0.119 0.027,0.039 0.052,0.078 0.079,0.116 0.056,0.074 0.109,0.151 0.169,0.221 0.113,0.144 0.238,0.273 0.363,0.397 0.254,0.243 0.522,0.447 0.788,0.607 0.266,0.161 0.528,0.281 0.767,0.371 0.24,0.091 0.458,0.15 0.64,0.19 0.045,0.009 0.089,0.019 0.129,0.027 0.041,0.007 0.08,0.014 0.115,0.02 0.072,0.013 0.133,0.023 0.184,0.028 C -0.054,-0.007 0,0 0,0"
         style="fill:#000000;fill-opacity:1;fill-rule:nonzero;stroke:none"
         id="path1176"
         inkscape:connector-curvature="0" />
    </g>
    <g
       id="g1178"
       transform="matrix(0.35277777,0,0,-0.35277777,122.52418,172.15174)">
      <path
         d="M 0,0 C 0,0 -0.046,0.004 -0.133,0.013 -0.177,0.017 -0.23,0.019 -0.294,0.021 -0.326,0.022 -0.361,0.024 -0.397,0.024 -0.434,0.023 -0.473,0.021 -0.514,0.02 -0.678,0.013 -0.88,-0.003 -1.107,-0.053 -1.334,-0.102 -1.587,-0.18 -1.851,-0.3 -2.114,-0.419 -2.385,-0.585 -2.646,-0.795 -2.776,-0.9 -2.903,-1.017 -3.023,-1.147 -3.145,-1.274 -3.257,-1.417 -3.362,-1.567 -3.47,-1.717 -3.563,-1.88 -3.648,-2.05 -3.735,-2.219 -3.804,-2.399 -3.864,-2.583 -3.923,-2.768 -3.968,-2.96 -3.998,-3.154 -4.028,-3.348 -4.041,-3.545 -4.045,-3.743 l 0.005,-0.144 c 0,-0.044 0.004,-0.096 0.008,-0.147 0.007,-0.103 0.02,-0.2 0.033,-0.297 0.031,-0.195 0.075,-0.386 0.134,-0.571 0.06,-0.184 0.13,-0.365 0.216,-0.534 0.086,-0.169 0.178,-0.333 0.286,-0.482 0.106,-0.151 0.217,-0.293 0.34,-0.421 0.12,-0.13 0.247,-0.246 0.376,-0.352 0.261,-0.21 0.532,-0.376 0.796,-0.495 0.264,-0.12 0.517,-0.198 0.744,-0.247 0.227,-0.05 0.429,-0.066 0.593,-0.073 0.041,-10e-4 0.08,-0.002 0.117,-0.003 0.036,0 0.071,0.002 0.102,0.002 0.064,0.002 0.118,0.004 0.162,0.009 C -0.046,-7.49 0,-7.485 0,-7.485 c 0,0 -0.046,0.006 -0.132,0.019 -0.043,0.005 -0.096,0.015 -0.157,0.027 -0.062,0.01 -0.132,0.025 -0.21,0.044 -0.156,0.036 -0.342,0.089 -0.546,0.169 -0.204,0.08 -0.427,0.185 -0.652,0.325 -0.227,0.139 -0.453,0.315 -0.668,0.523 -0.105,0.106 -0.211,0.217 -0.307,0.341 -0.05,0.06 -0.095,0.125 -0.143,0.188 -0.023,0.032 -0.044,0.066 -0.066,0.099 -0.023,0.033 -0.045,0.067 -0.065,0.102 -0.085,0.137 -0.159,0.283 -0.227,0.433 -0.016,0.038 -0.032,0.076 -0.048,0.114 -0.015,0.039 -0.029,0.078 -0.044,0.117 -0.015,0.039 -0.028,0.079 -0.04,0.119 -0.013,0.04 -0.028,0.079 -0.038,0.12 -0.048,0.16 -0.078,0.327 -0.105,0.494 -0.01,0.084 -0.021,0.169 -0.025,0.249 -0.003,0.041 -0.007,0.081 -0.007,0.129 l -0.003,0.13 c 0.002,0.171 0.011,0.341 0.035,0.509 0.027,0.167 0.057,0.333 0.105,0.494 0.01,0.041 0.025,0.08 0.037,0.12 0.013,0.04 0.026,0.08 0.041,0.119 0.014,0.039 0.029,0.078 0.043,0.117 0.016,0.038 0.032,0.076 0.049,0.114 0.068,0.15 0.142,0.296 0.227,0.433 0.02,0.035 0.041,0.069 0.064,0.102 0.023,0.033 0.044,0.067 0.067,0.099 0.047,0.063 0.092,0.129 0.142,0.189 0.096,0.123 0.202,0.234 0.308,0.34 0.214,0.208 0.441,0.385 0.667,0.523 0.453,0.279 0.888,0.423 1.199,0.495 0.078,0.018 0.148,0.033 0.209,0.043 0.061,0.012 0.114,0.022 0.158,0.027 C -0.046,-0.007 0,0 0,0"
         style="fill:#000000;fill-opacity:1;fill-rule:nonzero;stroke:none"
         id="path1180"
         inkscape:connector-curvature="0" />
    </g>
    <g
       id="g1182"
       transform="matrix(0.35277777,0,0,-0.35277777,122.52418,172.15174)">
      <path
         d="M 0,0 C 0,0 -0.037,0.004 -0.105,0.011 -0.14,0.014 -0.182,0.018 -0.232,0.022 -0.257,0.024 -0.283,0.027 -0.312,0.028 -0.341,0.027 -0.372,0.026 -0.404,0.025 -0.47,0.023 -0.543,0.021 -0.624,0.016 -0.702,0.007 -0.787,-0.007 -0.879,-0.021 -0.925,-0.026 -0.97,-0.042 -1.018,-0.053 c -0.048,-0.013 -0.097,-0.026 -0.147,-0.039 -0.052,-0.012 -0.1,-0.035 -0.152,-0.053 -0.051,-0.02 -0.104,-0.041 -0.158,-0.061 -0.053,-0.023 -0.104,-0.052 -0.158,-0.079 -0.027,-0.014 -0.054,-0.028 -0.081,-0.042 -0.028,-0.014 -0.055,-0.028 -0.081,-0.046 -0.104,-0.068 -0.217,-0.134 -0.318,-0.222 -0.214,-0.162 -0.406,-0.375 -0.58,-0.612 -0.041,-0.062 -0.082,-0.124 -0.123,-0.186 -0.04,-0.064 -0.071,-0.133 -0.107,-0.2 C -2.94,-1.627 -2.958,-1.661 -2.975,-1.695 -2.99,-1.731 -3.004,-1.766 -3.019,-1.802 -3.046,-1.874 -3.077,-1.945 -3.1,-2.02 -3.121,-2.095 -3.141,-2.17 -3.162,-2.246 l -0.015,-0.057 -0.01,-0.058 -0.019,-0.116 -0.019,-0.118 C -3.232,-2.633 -3.231,-2.673 -3.234,-2.713 L -3.241,-2.831 -3.244,-2.89 -3.245,-2.92 -3.246,-2.935 -3.247,-2.942 v -0.004 -0.018 l 0.012,-0.216 0.004,-0.054 c 0,-0.018 10e-4,-0.036 0.005,-0.058 l 0.019,-0.122 0.019,-0.122 0.01,-0.06 0.015,-0.057 c 0.021,-0.076 0.042,-0.151 0.063,-0.227 0.023,-0.074 0.054,-0.145 0.081,-0.217 0.014,-0.036 0.029,-0.072 0.043,-0.107 0.018,-0.034 0.035,-0.068 0.052,-0.102 0.037,-0.067 0.068,-0.136 0.108,-0.2 0.04,-0.063 0.082,-0.125 0.122,-0.186 0.174,-0.238 0.366,-0.45 0.58,-0.613 0.101,-0.087 0.215,-0.153 0.319,-0.222 0.025,-0.018 0.053,-0.032 0.081,-0.046 0.027,-0.014 0.054,-0.028 0.081,-0.042 0.054,-0.027 0.105,-0.056 0.158,-0.078 0.054,-0.021 0.107,-0.041 0.158,-0.061 0.052,-0.019 0.1,-0.042 0.152,-0.053 0.05,-0.014 0.099,-0.027 0.147,-0.039 0.048,-0.012 0.093,-0.028 0.139,-0.033 0.092,-0.013 0.177,-0.027 0.255,-0.037 0.08,-0.005 0.153,-0.006 0.218,-0.008 0.032,-10e-4 0.063,-0.002 0.092,-0.003 0.029,0 0.056,0.004 0.081,0.006 0.051,0.004 0.093,0.008 0.128,0.011 0.068,0.007 0.105,0.011 0.105,0.011 0,0 -0.036,0.007 -0.104,0.021 -0.033,0.007 -0.075,0.015 -0.123,0.024 -0.025,0.005 -0.05,0.009 -0.078,0.015 -0.027,0.008 -0.056,0.016 -0.086,0.025 -0.061,0.017 -0.128,0.034 -0.2,0.056 -0.07,0.029 -0.146,0.056 -0.226,0.086 -0.079,0.032 -0.16,0.076 -0.246,0.115 -0.044,0.019 -0.084,0.047 -0.128,0.072 -0.042,0.025 -0.086,0.051 -0.13,0.077 -0.044,0.028 -0.085,0.061 -0.129,0.091 -0.022,0.016 -0.044,0.031 -0.066,0.047 -0.022,0.015 -0.045,0.031 -0.065,0.05 -0.082,0.075 -0.174,0.141 -0.251,0.229 -0.168,0.16 -0.312,0.359 -0.444,0.569 -0.131,0.213 -0.226,0.452 -0.303,0.699 -0.014,0.063 -0.029,0.126 -0.045,0.189 l -0.011,0.047 -0.006,0.046 -0.013,0.092 -0.015,0.092 c -0.003,0.014 -0.004,0.032 -0.004,0.051 l -0.003,0.054 -0.01,0.217 c 10e-4,-0.028 10e-4,-0.006 10e-4,-0.011 v 0.003 0.006 l 10e-4,0.012 0.001,0.025 0.002,0.049 0.005,0.098 c 0.002,0.033 0,0.066 0.006,0.098 l 0.014,0.097 0.015,0.097 0.006,0.048 0.011,0.048 c 0.015,0.063 0.03,0.126 0.045,0.189 0.076,0.247 0.172,0.486 0.302,0.699 0.132,0.21 0.276,0.409 0.444,0.569 0.078,0.088 0.17,0.155 0.252,0.229 0.02,0.019 0.042,0.035 0.065,0.05 0.022,0.016 0.044,0.032 0.065,0.047 0.044,0.031 0.086,0.064 0.129,0.092 0.045,0.026 0.089,0.052 0.131,0.077 0.043,0.024 0.084,0.053 0.128,0.071 0.086,0.04 0.167,0.083 0.246,0.115 0.08,0.03 0.156,0.058 0.226,0.086 0.071,0.022 0.137,0.039 0.198,0.056 0.03,0.009 0.059,0.017 0.086,0.024 0.028,0.007 0.054,0.011 0.079,0.016 0.049,0.009 0.091,0.017 0.124,0.024 C -0.036,-0.007 0,0 0,0"
         style="fill:#000000;fill-opacity:1;fill-rule:nonzero;stroke:none"
         id="path1184"
         inkscape:connector-curvature="0" />
    </g>
    <g
       id="g1186"
       transform="matrix(0.35277777,0,0,-0.35277777,122.52418,172.15174)">
      <path
         d="m 0,0 c 0,0 -0.028,0.004 -0.081,0.012 -0.027,0.003 -0.059,0.008 -0.098,0.013 -0.019,0.002 -0.04,0.005 -0.062,0.007 -0.022,0 -0.046,0 -0.072,0.001 -0.051,0 -0.108,0 -0.171,-0.002 -0.061,-0.006 -0.128,-0.015 -0.2,-0.023 -0.072,-0.01 -0.145,-0.033 -0.225,-0.051 -0.041,-0.007 -0.079,-0.025 -0.12,-0.038 -0.04,-0.015 -0.082,-0.03 -0.124,-0.045 -0.043,-0.017 -0.083,-0.039 -0.126,-0.059 -0.041,-0.022 -0.087,-0.04 -0.128,-0.067 -0.083,-0.052 -0.172,-0.103 -0.253,-0.171 -0.17,-0.125 -0.323,-0.29 -0.462,-0.476 -0.033,-0.048 -0.066,-0.096 -0.098,-0.146 -0.032,-0.05 -0.057,-0.104 -0.086,-0.157 l -0.042,-0.08 -0.035,-0.084 c -0.022,-0.057 -0.046,-0.113 -0.065,-0.172 -0.077,-0.234 -0.111,-0.484 -0.118,-0.734 l 0.01,-0.181 0.003,-0.042 c 0,-0.013 10e-4,-0.027 0.004,-0.045 l 0.015,-0.097 0.015,-0.097 0.009,-0.049 0.012,-0.045 c 0.017,-0.06 0.033,-0.119 0.05,-0.178 0.018,-0.059 0.043,-0.115 0.065,-0.172 l 0.034,-0.084 0.042,-0.081 c 0.029,-0.052 0.054,-0.107 0.086,-0.156 0.032,-0.05 0.066,-0.099 0.098,-0.147 0.139,-0.186 0.292,-0.351 0.462,-0.476 0.081,-0.068 0.171,-0.118 0.253,-0.171 0.042,-0.026 0.087,-0.044 0.129,-0.066 0.043,-0.02 0.083,-0.043 0.125,-0.059 0.043,-0.016 0.084,-0.031 0.125,-0.045 0.041,-0.014 0.079,-0.031 0.12,-0.039 0.08,-0.018 0.153,-0.04 0.225,-0.05 0.072,-0.009 0.138,-0.018 0.2,-0.024 0.062,-0.002 0.119,-0.001 0.169,-0.001 0.026,0 0.049,0.001 0.072,0.001 0.022,0.002 0.044,0.005 0.063,0.007 0.039,0.005 0.072,0.01 0.099,0.013 0.053,0.008 0.081,0.012 0.081,0.012 0,0 -0.028,0.007 -0.08,0.02 -0.026,0.006 -0.057,0.014 -0.095,0.023 -0.018,0.004 -0.038,0.008 -0.059,0.014 -0.02,0.007 -0.042,0.014 -0.066,0.021 -0.045,0.015 -0.096,0.032 -0.151,0.049 -0.053,0.024 -0.111,0.047 -0.171,0.072 -0.06,0.026 -0.121,0.061 -0.185,0.093 -0.064,0.035 -0.127,0.079 -0.193,0.119 -0.032,0.022 -0.064,0.048 -0.096,0.072 -0.032,0.025 -0.067,0.046 -0.097,0.076 -0.061,0.058 -0.129,0.109 -0.186,0.177 -0.124,0.123 -0.229,0.274 -0.326,0.433 -0.096,0.161 -0.165,0.341 -0.221,0.525 -0.011,0.047 -0.022,0.094 -0.033,0.142 l -0.008,0.035 -0.004,0.034 -0.01,0.067 -0.011,0.067 c -0.002,0.01 -0.003,0.024 -0.003,0.038 l -0.002,0.042 -0.007,0.153 c 0.004,0.196 0.028,0.391 0.077,0.578 0.056,0.185 0.125,0.364 0.221,0.525 0.097,0.159 0.202,0.311 0.327,0.434 0.056,0.068 0.125,0.119 0.186,0.177 0.03,0.029 0.065,0.051 0.097,0.076 0.032,0.024 0.063,0.049 0.096,0.072 0.066,0.04 0.129,0.084 0.193,0.118 0.064,0.032 0.125,0.067 0.185,0.094 0.06,0.025 0.118,0.048 0.171,0.071 0.054,0.018 0.104,0.034 0.149,0.049 0.023,0.007 0.045,0.014 0.066,0.021 0.021,0.006 0.042,0.01 0.061,0.015 0.037,0.008 0.069,0.016 0.095,0.022 C -0.028,-0.007 0,0 0,0"
         style="fill:#000000;fill-opacity:1;fill-rule:nonzero;stroke:none"
         id="path1188"
         inkscape:connector-curvature="0" />
    </g>
    <g
       id="g1190"
       transform="matrix(0.35277777,0,0,-0.35277777,122.52418,172.15174)">
      <path
         d="M 0,0 C 0,0 -0.018,0.005 -0.053,0.013 -0.07,0.017 -0.092,0.022 -0.117,0.028 -0.129,0.03 -0.143,0.034 -0.157,0.036 -0.172,0.038 -0.188,0.039 -0.205,0.041 -0.239,0.044 -0.278,0.047 -0.32,0.048 -0.361,0.047 -0.406,0.044 -0.455,0.041 -0.503,0.037 -0.553,0.025 -0.608,0.016 -0.662,0.005 -0.716,-0.015 -0.776,-0.032 -0.832,-0.054 -0.891,-0.08 -0.951,-0.11 -1.008,-0.143 -1.07,-0.176 -1.127,-0.219 -1.245,-0.301 -1.353,-0.411 -1.451,-0.536 -1.474,-0.569 -1.497,-0.601 -1.52,-0.635 -1.542,-0.669 -1.56,-0.705 -1.58,-0.741 L -1.61,-0.796 -1.635,-0.853 C -1.65,-0.892 -1.667,-0.931 -1.68,-0.971 -1.735,-1.131 -1.759,-1.303 -1.764,-1.475 l 0.001,-0.027 10e-4,-0.014 0.002,-0.027 0.003,-0.054 0.002,-0.027 c 0,-0.009 10e-4,-0.018 0.003,-0.031 l 0.01,-0.068 c 0.008,-0.045 0.013,-0.094 0.026,-0.134 0.012,-0.041 0.024,-0.081 0.035,-0.122 0.013,-0.04 0.031,-0.079 0.046,-0.117 l 0.025,-0.058 0.029,-0.054 c 0.021,-0.036 0.038,-0.073 0.061,-0.107 0.022,-0.034 0.046,-0.067 0.069,-0.099 0.097,-0.125 0.205,-0.235 0.324,-0.317 0.056,-0.044 0.118,-0.076 0.176,-0.11 0.059,-0.029 0.119,-0.055 0.175,-0.077 0.059,-0.017 0.113,-0.038 0.168,-0.048 0.055,-0.009 0.105,-0.021 0.153,-0.025 0.049,-0.003 0.094,-0.006 0.135,-0.007 0.041,0.002 0.079,0.005 0.113,0.008 0.017,0.001 0.033,0.003 0.048,0.004 0.014,0.002 0.029,0.006 0.041,0.009 0.026,0.005 0.048,0.01 0.065,0.014 C -0.018,-2.955 0,-2.95 0,-2.95 c 0,0 -0.018,0.007 -0.052,0.019 -0.033,0.013 -0.082,0.025 -0.14,0.052 -0.029,0.012 -0.06,0.025 -0.095,0.04 -0.033,0.018 -0.069,0.036 -0.106,0.055 -0.037,0.02 -0.074,0.045 -0.113,0.068 -0.039,0.025 -0.076,0.055 -0.116,0.083 -0.038,0.033 -0.077,0.064 -0.115,0.1 -0.035,0.039 -0.076,0.072 -0.109,0.116 -0.072,0.079 -0.132,0.175 -0.188,0.274 -0.055,0.099 -0.092,0.209 -0.125,0.32 -0.006,0.029 -0.012,0.057 -0.018,0.086 -0.004,0.015 -0.005,0.028 -0.007,0.04 l -0.005,0.039 -0.006,0.038 c -0.002,0.006 -0.002,0.014 -0.002,0.024 l -10e-4,0.027 -0.002,0.054 -0.001,0.027 -10e-4,0.014 v 0.007 0.003 l -0.001,0.002 c 0.001,-0.006 0,0.015 0.001,-0.013 0.002,0.118 0.015,0.235 0.043,0.348 0.032,0.112 0.07,0.221 0.125,0.321 0.055,0.098 0.115,0.195 0.188,0.274 0.033,0.044 0.073,0.077 0.109,0.116 0.037,0.036 0.077,0.067 0.114,0.1 0.04,0.028 0.078,0.058 0.117,0.083 0.039,0.023 0.076,0.048 0.113,0.068 0.037,0.019 0.073,0.037 0.106,0.055 0.034,0.014 0.065,0.028 0.093,0.04 0.029,0.013 0.056,0.023 0.081,0.031 0.024,0.008 0.045,0.015 0.062,0.02 C -0.018,-0.007 0,0 0,0"
         style="fill:#000000;fill-opacity:1;fill-rule:nonzero;stroke:none"
         id="path1192"
         inkscape:connector-curvature="0" />
    </g>
    <g
       id="g1194"
       transform="matrix(0.35277777,0,0,-0.35277777,122.52418,172.15174)">
      <path
         d="M 0,0 C 0,0 -0.012,0.006 -0.034,0.014 -0.046,0.018 -0.06,0.024 -0.076,0.03 -0.092,0.037 -0.111,0.042 -0.134,0.046 -0.157,0.051 -0.183,0.055 -0.212,0.059 -0.24,0.061 -0.27,0.062 -0.304,0.063 -0.337,0.064 -0.372,0.058 -0.41,0.055 -0.447,0.05 -0.485,0.039 -0.527,0.03 -0.566,0.017 -0.608,0.002 -0.65,-0.016 -0.691,-0.036 -0.735,-0.058 -0.775,-0.086 -0.86,-0.139 -0.938,-0.211 -1.008,-0.297 -1.079,-0.383 -1.134,-0.486 -1.175,-0.597 -1.193,-0.653 -1.211,-0.711 -1.219,-0.77 -1.224,-0.8 -1.23,-0.829 -1.231,-0.86 l -0.003,-0.044 -0.001,-0.023 v -0.011 l -10e-4,-0.006 v -0.003 -0.001 l 10e-4,-0.016 0.004,-0.07 c 0.001,-0.013 0,-0.02 0.003,-0.038 l 0.007,-0.049 c 0.01,-0.069 0.028,-0.125 0.045,-0.181 0.041,-0.111 0.097,-0.214 0.167,-0.301 0.07,-0.085 0.149,-0.158 0.233,-0.211 0.041,-0.028 0.084,-0.049 0.125,-0.07 0.043,-0.018 0.084,-0.033 0.124,-0.046 0.042,-0.009 0.079,-0.02 0.117,-0.025 0.038,-0.003 0.073,-0.008 0.106,-0.008 0.034,0.001 0.064,0.002 0.092,0.004 0.028,0.004 0.053,0.009 0.076,0.014 0.045,0.007 0.079,0.025 0.102,0.031 0.022,0.009 0.034,0.015 0.034,0.015 0,0 -0.012,0.006 -0.033,0.018 -0.021,0.011 -0.052,0.024 -0.088,0.047 -0.017,0.01 -0.037,0.022 -0.058,0.034 -0.02,0.015 -0.041,0.029 -0.063,0.044 -0.043,0.032 -0.088,0.07 -0.131,0.112 -0.043,0.044 -0.085,0.09 -0.121,0.144 -0.039,0.05 -0.069,0.11 -0.097,0.168 -0.028,0.06 -0.046,0.123 -0.062,0.186 -0.002,0.017 -0.005,0.033 -0.009,0.049 -0.004,0.017 -0.002,0.027 -0.005,0.041 l -0.003,0.019 c 0,0.002 -0.001,0.008 -0.001,0.014 v 0.018 l -0.003,0.07 v -0.014 0.001 0.001 0.004 l 0.001,0.006 v 0.012 l 0.001,0.025 c 0,0.017 0.002,0.033 0.004,0.049 0.002,0.033 0.01,0.065 0.015,0.097 0.016,0.064 0.034,0.127 0.061,0.187 0.028,0.058 0.058,0.118 0.097,0.169 0.036,0.054 0.079,0.1 0.121,0.144 0.023,0.02 0.044,0.041 0.066,0.06 0.023,0.017 0.044,0.035 0.066,0.051 0.022,0.015 0.043,0.029 0.063,0.044 0.02,0.012 0.039,0.024 0.056,0.034 0.035,0.023 0.07,0.036 0.09,0.047 C -0.011,-0.007 0,0 0,0"
         style="fill:#000000;fill-opacity:1;fill-rule:nonzero;stroke:none"
         id="path1196"
         inkscape:connector-curvature="0" />
    </g>
    <g
       id="g1198"
       transform="matrix(0.35277777,0,0,-0.35277777,122.52418,172.15174)">
      <path
         d="M 0,0 C 0,0 -0.013,0.052 -0.036,0.15 -0.047,0.199 -0.065,0.259 -0.087,0.329 -0.099,0.365 -0.109,0.403 -0.123,0.443 -0.138,0.483 -0.154,0.525 -0.171,0.569 -0.24,0.746 -0.333,0.96 -0.472,1.19 -0.61,1.419 -0.789,1.667 -1.018,1.911 -1.246,2.155 -1.528,2.39 -1.854,2.598 -2.018,2.7 -2.193,2.797 -2.379,2.88 -2.564,2.967 -2.761,3.038 -2.965,3.099 -3.169,3.162 -3.382,3.204 -3.6,3.237 -3.817,3.27 -4.041,3.281 -4.266,3.281 -4.491,3.279 -4.717,3.258 -4.943,3.223 -5.055,3.202 -5.167,3.183 -5.278,3.154 -5.333,3.141 -5.389,3.128 -5.443,3.111 L -5.615,3.061 -5.767,3.007 C -5.816,2.991 -5.871,2.968 -5.925,2.945 -6.036,2.902 -6.138,2.852 -6.241,2.803 -6.444,2.701 -6.64,2.585 -6.823,2.455 -7.005,2.324 -7.18,2.185 -7.336,2.03 -7.492,1.877 -7.641,1.718 -7.768,1.548 -7.897,1.38 -8.015,1.207 -8.113,1.029 -8.214,0.852 -8.299,0.672 -8.371,0.493 -8.512,0.133 -8.6,-0.221 -8.641,-0.552 c -0.041,-0.331 -0.04,-0.636 -0.015,-0.903 0.008,-0.066 0.013,-0.131 0.022,-0.192 0.01,-0.062 0.02,-0.121 0.029,-0.178 0.011,-0.057 0.024,-0.11 0.036,-0.162 0.01,-0.051 0.023,-0.1 0.036,-0.146 0.013,-0.045 0.025,-0.089 0.036,-0.129 0.013,-0.041 0.027,-0.078 0.038,-0.113 0.024,-0.07 0.045,-0.128 0.065,-0.175 0.039,-0.093 0.06,-0.143 0.06,-0.143 0,0 -0.01,0.053 -0.029,0.152 -0.011,0.049 -0.02,0.11 -0.03,0.182 -0.005,0.036 -0.01,0.074 -0.016,0.115 -0.004,0.041 -0.009,0.085 -0.014,0.131 -0.018,0.185 -0.029,0.409 -0.016,0.664 0.012,0.254 0.047,0.539 0.118,0.84 0.071,0.301 0.184,0.617 0.337,0.932 0.08,0.156 0.165,0.315 0.268,0.467 0.049,0.077 0.105,0.151 0.159,0.227 0.027,0.038 0.057,0.074 0.086,0.111 0.029,0.037 0.059,0.074 0.091,0.109 0.122,0.145 0.259,0.281 0.403,0.412 0.037,0.031 0.073,0.063 0.11,0.096 0.039,0.03 0.077,0.06 0.116,0.091 0.038,0.031 0.078,0.06 0.118,0.088 0.04,0.029 0.079,0.06 0.121,0.086 0.164,0.112 0.34,0.207 0.518,0.297 0.091,0.043 0.183,0.086 0.272,0.12 0.085,0.037 0.195,0.071 0.294,0.107 l 0.138,0.041 c 0.048,0.016 0.097,0.027 0.146,0.039 0.097,0.026 0.196,0.044 0.295,0.063 0.198,0.031 0.396,0.058 0.595,0.063 0.05,0.003 0.099,10e-4 0.148,10e-4 0.05,10e-4 0.099,10e-4 0.148,-0.002 C -3.908,2.737 -3.859,2.735 -3.81,2.733 -3.761,2.728 -3.713,2.724 -3.664,2.72 -3.471,2.698 -3.279,2.668 -3.095,2.622 -3.048,2.612 -3.002,2.6 -2.957,2.587 -2.912,2.574 -2.866,2.562 -2.821,2.548 -2.733,2.518 -2.644,2.491 -2.558,2.457 -2.385,2.394 -2.223,2.316 -2.066,2.236 -1.756,2.071 -1.477,1.881 -1.242,1.678 -1.006,1.477 -0.81,1.266 -0.65,1.068 -0.489,0.869 -0.365,0.681 -0.271,0.521 -0.248,0.481 -0.226,0.443 -0.205,0.407 -0.185,0.371 -0.167,0.336 -0.15,0.305 -0.116,0.241 -0.087,0.186 -0.067,0.14 -0.023,0.049 0,0 0,0"
         style="fill:#000000;fill-opacity:1;fill-rule:nonzero;stroke:none"
         id="path1200"
         inkscape:connector-curvature="0" />
    </g>
    <g
       id="g1202"
       transform="matrix(0.35277777,0,0,-0.35277777,122.52418,172.15174)">
      <path
         d="M 0,0 C 0,0 -0.01,0.045 -0.029,0.13 -0.038,0.172 -0.052,0.224 -0.071,0.285 -0.08,0.315 -0.089,0.348 -0.1,0.383 -0.112,0.417 -0.126,0.454 -0.14,0.492 -0.197,0.646 -0.275,0.831 -0.393,1.03 -0.51,1.23 -0.662,1.445 -0.858,1.658 -1.054,1.87 -1.296,2.075 -1.578,2.257 -1.719,2.347 -1.87,2.431 -2.031,2.504 -2.191,2.58 -2.361,2.642 -2.538,2.696 -2.714,2.751 -2.899,2.788 -3.088,2.817 -3.276,2.846 -3.47,2.856 -3.665,2.856 -3.86,2.855 -4.057,2.838 -4.252,2.807 -4.447,2.775 -4.64,2.726 -4.829,2.668 L -4.967,2.62 C -5.008,2.606 -5.056,2.586 -5.104,2.566 -5.201,2.529 -5.289,2.486 -5.378,2.443 -5.554,2.354 -5.724,2.253 -5.882,2.14 -6.04,2.026 -6.191,1.905 -6.326,1.771 -6.462,1.638 -6.59,1.5 -6.7,1.352 -6.811,1.205 -6.913,1.055 -6.997,0.9 -7.084,0.747 -7.156,0.59 -7.217,0.435 -7.338,0.123 -7.412,-0.184 -7.445,-0.47 c -0.033,-0.286 -0.029,-0.55 -0.006,-0.78 0.022,-0.23 0.069,-0.426 0.114,-0.583 0.011,-0.04 0.022,-0.077 0.032,-0.112 0.011,-0.034 0.024,-0.066 0.035,-0.096 0.021,-0.06 0.04,-0.11 0.058,-0.15 0.034,-0.08 0.053,-0.122 0.053,-0.122 0,0 -0.008,0.045 -0.022,0.131 -0.009,0.042 -0.016,0.095 -0.024,0.157 -0.008,0.061 -0.016,0.132 -0.022,0.212 -0.014,0.158 -0.02,0.351 -0.007,0.568 0.013,0.218 0.046,0.461 0.109,0.718 0.063,0.256 0.162,0.525 0.295,0.793 0.068,0.132 0.142,0.267 0.23,0.396 0.042,0.065 0.09,0.128 0.136,0.192 0.024,0.032 0.05,0.063 0.074,0.094 0.025,0.032 0.051,0.063 0.078,0.093 0.105,0.122 0.221,0.238 0.344,0.348 l 0.094,0.081 0.099,0.077 c 0.032,0.027 0.066,0.051 0.1,0.076 0.035,0.023 0.067,0.05 0.103,0.072 0.14,0.095 0.289,0.175 0.441,0.252 0.077,0.036 0.155,0.073 0.231,0.101 0.037,0.016 0.074,0.031 0.12,0.046 l 0.124,0.043 c 0.164,0.052 0.329,0.095 0.497,0.124 0.168,0.027 0.337,0.05 0.506,0.054 0.042,0.003 0.084,10e-4 0.126,0.002 0.042,0 0.084,0 0.126,-0.002 C -3.359,2.313 -3.318,2.312 -3.276,2.31 -3.235,2.307 -3.193,2.303 -3.152,2.3 -2.987,2.282 -2.825,2.257 -2.667,2.219 -2.628,2.211 -2.589,2.201 -2.55,2.189 -2.511,2.178 -2.473,2.169 -2.435,2.157 -2.359,2.131 -2.283,2.109 -2.21,2.081 -2.063,2.028 -1.924,1.962 -1.79,1.895 -1.524,1.756 -1.285,1.596 -1.083,1.425 -0.677,1.083 -0.404,0.716 -0.24,0.444 -0.198,0.376 -0.162,0.315 -0.133,0.26 -0.103,0.206 -0.077,0.159 -0.059,0.119 -0.021,0.041 0,0 0,0"
         style="fill:#000000;fill-opacity:1;fill-rule:nonzero;stroke:none"
         id="path1204"
         inkscape:connector-curvature="0" />
    </g>
    <g
       id="g1206"
       transform="matrix(0.35277777,0,0,-0.35277777,122.52418,172.15174)">
      <path
         d="M 0,0 C 0,0 -0.008,0.036 -0.022,0.103 -0.03,0.136 -0.039,0.177 -0.051,0.226 -0.057,0.25 -0.061,0.276 -0.069,0.304 -0.079,0.331 -0.09,0.36 -0.101,0.39 -0.123,0.451 -0.147,0.521 -0.177,0.595 -0.211,0.666 -0.25,0.742 -0.292,0.825 -0.31,0.867 -0.34,0.904 -0.366,0.946 -0.392,0.987 -0.42,1.03 -0.449,1.073 -0.475,1.119 -0.512,1.157 -0.546,1.2 -0.581,1.243 -0.617,1.286 -0.653,1.331 -0.691,1.374 -0.735,1.413 -0.777,1.456 -0.799,1.477 -0.82,1.499 -0.842,1.52 -0.864,1.542 -0.886,1.563 -0.911,1.582 -1.009,1.659 -1.107,1.746 -1.222,1.815 -1.443,1.967 -1.706,2.083 -1.987,2.174 -2.058,2.193 -2.13,2.213 -2.203,2.232 -2.276,2.251 -2.352,2.259 -2.427,2.272 -2.465,2.278 -2.503,2.284 -2.541,2.29 -2.579,2.293 -2.618,2.295 -2.656,2.298 -2.734,2.302 -2.811,2.309 -2.89,2.307 -3.203,2.307 -3.519,2.249 -3.824,2.159 L -4.041,2.076 -4.092,2.057 C -4.109,2.05 -4.126,2.044 -4.145,2.034 L -4.256,1.978 -4.367,1.923 -4.422,1.894 -4.471,1.862 C -4.537,1.819 -4.603,1.776 -4.668,1.733 -4.733,1.689 -4.791,1.637 -4.852,1.589 L -4.941,1.515 -5.022,1.434 C -5.075,1.379 -5.132,1.329 -5.18,1.271 -5.228,1.213 -5.274,1.155 -5.32,1.097 -5.494,0.86 -5.638,0.612 -5.727,0.36 -5.779,0.237 -5.807,0.11 -5.841,-0.01 -5.85,-0.04 -5.855,-0.07 -5.86,-0.101 c -0.005,-0.03 -0.01,-0.06 -0.015,-0.089 -0.009,-0.06 -0.021,-0.117 -0.026,-0.174 -0.003,-0.058 -0.006,-0.114 -0.01,-0.169 -0.001,-0.054 -0.009,-0.107 -0.003,-0.159 0.003,-0.052 0.005,-0.103 0.008,-0.152 0.004,-0.049 0.002,-0.096 0.012,-0.141 0.015,-0.092 0.028,-0.176 0.043,-0.253 0.02,-0.077 0.042,-0.146 0.059,-0.209 0.009,-0.031 0.018,-0.06 0.026,-0.088 0.01,-0.027 0.021,-0.051 0.031,-0.075 0.02,-0.046 0.037,-0.085 0.05,-0.117 0.028,-0.062 0.043,-0.096 0.043,-0.096 0,0 -0.004,0.037 -0.012,0.105 -0.004,0.034 -0.009,0.075 -0.015,0.124 -0.003,0.024 -0.007,0.05 -0.009,0.078 -0.001,0.028 -0.003,0.058 -0.004,0.089 -0.002,0.063 -0.006,0.132 -0.007,0.206 0.005,0.076 0.008,0.156 0.012,0.241 0.006,0.085 0.022,0.175 0.034,0.268 0.004,0.047 0.019,0.094 0.029,0.143 0.011,0.048 0.022,0.097 0.033,0.147 0.014,0.05 0.032,0.1 0.048,0.151 0.008,0.025 0.016,0.05 0.024,0.076 0.008,0.026 0.016,0.052 0.028,0.077 0.046,0.101 0.081,0.208 0.141,0.308 0.101,0.209 0.247,0.406 0.407,0.596 0.164,0.19 0.363,0.353 0.575,0.502 0.056,0.034 0.112,0.067 0.167,0.101 l 0.042,0.025 0.042,0.02 0.084,0.042 0.083,0.042 c 0.013,0.007 0.03,0.013 0.047,0.019 l 0.051,0.02 0.191,0.071 0.191,0.052 c 0.032,0.008 0.063,0.02 0.096,0.025 l 0.097,0.016 0.097,0.017 0.048,0.009 0.049,0.004 c 0.065,0.005 0.13,0.01 0.195,0.016 0.26,0.004 0.518,-0.013 0.762,-0.07 0.242,-0.06 0.477,-0.134 0.682,-0.244 0.108,-0.046 0.2,-0.113 0.296,-0.167 C -1.113,1.272 -1.091,1.256 -1.07,1.24 -1.048,1.224 -1.026,1.208 -1.005,1.192 -0.962,1.16 -0.918,1.131 -0.878,1.098 -0.839,1.064 -0.8,1.031 -0.763,0.999 -0.726,0.965 -0.687,0.936 -0.655,0.9 -0.591,0.831 -0.524,0.768 -0.469,0.703 -0.416,0.636 -0.366,0.573 -0.318,0.515 -0.275,0.455 -0.238,0.398 -0.203,0.346 -0.185,0.32 -0.168,0.295 -0.153,0.272 -0.138,0.247 -0.126,0.224 -0.114,0.202 -0.09,0.159 -0.069,0.122 -0.052,0.091 -0.018,0.032 0,0 0,0"
         style="fill:#000000;fill-opacity:1;fill-rule:nonzero;stroke:none"
         id="path1208"
         inkscape:connector-curvature="0" />
    </g>
    <g
       id="g1210"
       transform="matrix(0.35277777,0,0,-0.35277777,122.52418,172.15174)">
      <path
         d="M 0,0 C 0,0 -0.005,0.028 -0.014,0.081 -0.019,0.107 -0.025,0.139 -0.032,0.177 -0.036,0.196 -0.039,0.216 -0.044,0.238 -0.051,0.259 -0.058,0.282 -0.065,0.306 -0.081,0.354 -0.098,0.409 -0.12,0.468 -0.145,0.524 -0.174,0.584 -0.204,0.649 -0.236,0.714 -0.28,0.776 -0.322,0.847 -0.342,0.883 -0.37,0.913 -0.396,0.948 -0.422,0.982 -0.45,1.016 -0.477,1.052 c -0.029,0.034 -0.063,0.066 -0.095,0.1 -0.034,0.033 -0.066,0.07 -0.104,0.101 -0.075,0.062 -0.152,0.131 -0.241,0.186 -0.172,0.122 -0.378,0.217 -0.598,0.29 -0.056,0.016 -0.113,0.033 -0.17,0.048 -0.058,0.015 -0.118,0.022 -0.177,0.033 l -0.09,0.014 -0.091,0.007 C -2.104,1.835 -2.165,1.84 -2.227,1.84 -2.289,1.837 -2.351,1.834 -2.413,1.832 -2.476,1.831 -2.537,1.817 -2.599,1.809 -2.661,1.799 -2.723,1.79 -2.784,1.772 L -2.875,1.748 -2.92,1.736 -2.943,1.73 -2.954,1.727 -2.96,1.726 -2.963,1.725 C -2.97,1.723 -2.951,1.729 -2.979,1.72 L -3.136,1.659 -3.175,1.644 C -3.188,1.639 -3.201,1.634 -3.217,1.626 L -3.305,1.582 -3.394,1.537 -3.437,1.514 -3.477,1.489 C -3.529,1.454 -3.58,1.42 -3.632,1.386 -3.682,1.351 -3.728,1.31 -3.776,1.272 L -3.846,1.213 -3.91,1.149 C -3.951,1.105 -3.995,1.065 -4.033,1.019 -4.071,0.973 -4.107,0.927 -4.143,0.881 -4.278,0.692 -4.388,0.496 -4.456,0.297 -4.495,0.199 -4.516,0.099 -4.541,0.005 c -0.012,-0.047 -0.016,-0.096 -0.024,-0.143 -0.006,-0.046 -0.014,-0.091 -0.017,-0.136 -0.002,-0.045 -0.003,-0.089 -0.005,-0.132 0,-0.043 -0.005,-0.084 0,-0.125 0.008,-0.082 0.009,-0.158 0.022,-0.229 0.014,-0.071 0.026,-0.136 0.039,-0.196 0.017,-0.059 0.035,-0.113 0.051,-0.161 0.009,-0.024 0.016,-0.046 0.023,-0.067 0.009,-0.021 0.019,-0.04 0.027,-0.058 0.017,-0.035 0.031,-0.065 0.042,-0.089 0.024,-0.048 0.037,-0.073 0.037,-0.073 0,0 -0.002,0.028 -0.006,0.082 -0.002,0.026 -0.004,0.058 -0.007,0.096 -0.002,0.019 -0.004,0.039 -0.005,0.06 0,0.022 0,0.045 10e-4,0.07 v 0.158 c 0.005,0.057 0.01,0.119 0.015,0.184 0.007,0.064 0.021,0.133 0.032,0.204 0.013,0.07 0.036,0.143 0.054,0.219 0.012,0.037 0.026,0.074 0.039,0.113 0.015,0.037 0.024,0.077 0.043,0.115 0.036,0.075 0.064,0.155 0.112,0.23 0.079,0.156 0.191,0.302 0.313,0.443 0.124,0.14 0.275,0.261 0.434,0.371 0.042,0.025 0.083,0.05 0.125,0.075 l 0.032,0.018 0.031,0.015 0.061,0.03 0.061,0.031 c 0.009,0.005 0.022,0.01 0.035,0.015 l 0.04,0.014 0.157,0.059 C -2.805,1.189 -2.785,1.196 -2.79,1.194 h 0.002 l 0.005,0.002 0.009,0.002 0.017,0.005 0.036,0.01 0.071,0.019 c 0.047,0.016 0.096,0.023 0.144,0.031 l 0.072,0.013 0.037,0.007 0.036,0.003 c 0.049,0.004 0.097,0.008 0.146,0.013 0.193,0.004 0.386,-0.006 0.57,-0.047 C -1.463,1.21 -1.285,1.157 -1.129,1.077 -1.047,1.045 -0.977,0.996 -0.903,0.956 -0.865,0.937 -0.834,0.91 -0.8,0.888 -0.767,0.865 -0.733,0.843 -0.702,0.819 -0.643,0.769 -0.581,0.723 -0.529,0.673 -0.478,0.622 -0.426,0.576 -0.382,0.527 -0.339,0.478 -0.3,0.431 -0.261,0.387 -0.227,0.341 -0.196,0.299 -0.168,0.261 -0.154,0.241 -0.14,0.223 -0.127,0.206 -0.115,0.187 -0.105,0.169 -0.095,0.153 -0.075,0.12 -0.058,0.092 -0.044,0.069 -0.015,0.024 0,0 0,0"
         style="fill:#000000;fill-opacity:1;fill-rule:nonzero;stroke:none"
         id="path1212"
         inkscape:connector-curvature="0" />
    </g>
    <g
       id="g1214"
       transform="matrix(0.35277777,0,0,-0.35277777,122.52418,172.15174)">
      <path
         d="M 0,0 C 0,0 -0.001,0.019 -0.004,0.054 -0.005,0.072 -0.007,0.093 -0.01,0.119 -0.011,0.132 -0.012,0.145 -0.014,0.16 -0.017,0.174 -0.021,0.19 -0.024,0.206 -0.032,0.24 -0.041,0.277 -0.053,0.318 -0.067,0.356 -0.084,0.398 -0.101,0.443 -0.12,0.488 -0.147,0.531 -0.173,0.58 -0.199,0.628 -0.236,0.673 -0.271,0.724 -0.309,0.77 -0.352,0.818 -0.399,0.865 -0.448,0.91 -0.499,0.958 -0.558,0.998 -0.673,1.084 -0.811,1.153 -0.961,1.206 -0.999,1.218 -1.038,1.23 -1.077,1.241 -1.116,1.252 -1.157,1.257 -1.197,1.265 L -1.259,1.276 -1.321,1.282 C -1.363,1.285 -1.405,1.289 -1.448,1.289 -1.532,1.286 -1.619,1.286 -1.703,1.27 -1.746,1.263 -1.789,1.257 -1.83,1.245 L -1.893,1.229 -1.924,1.221 -1.94,1.217 -1.948,1.215 -1.952,1.214 -1.954,1.213 C -1.96,1.211 -1.942,1.217 -1.969,1.208 L -2.071,1.168 -2.096,1.158 C -2.104,1.155 -2.113,1.152 -2.124,1.146 L -2.186,1.115 C -2.227,1.094 -2.273,1.074 -2.306,1.049 -2.341,1.025 -2.377,1.002 -2.412,0.978 -2.446,0.953 -2.478,0.925 -2.51,0.899 L -2.558,0.857 -2.601,0.812 C -2.629,0.782 -2.659,0.754 -2.684,0.722 -2.71,0.691 -2.733,0.658 -2.757,0.626 -2.847,0.496 -2.919,0.359 -2.96,0.222 -2.985,0.155 -2.997,0.086 -3.011,0.022 c -0.01,-0.066 -0.016,-0.13 -0.02,-0.19 0.002,-0.061 0,-0.119 0.006,-0.173 0.008,-0.055 0.012,-0.106 0.024,-0.153 0.012,-0.047 0.023,-0.09 0.035,-0.13 0.014,-0.038 0.029,-0.073 0.042,-0.104 0.007,-0.016 0.013,-0.03 0.019,-0.044 0.007,-0.013 0.015,-0.025 0.021,-0.037 0.013,-0.022 0.025,-0.041 0.034,-0.057 0.018,-0.03 0.029,-0.045 0.029,-0.045 0,0 0.001,0.019 0.002,0.054 0.002,0.035 -0.002,0.085 0.006,0.149 0.003,0.031 0.006,0.065 0.009,0.102 0.007,0.037 0.013,0.076 0.02,0.117 0.007,0.041 0.02,0.084 0.03,0.128 0.012,0.044 0.029,0.09 0.044,0.136 0.019,0.045 0.037,0.093 0.06,0.139 0.026,0.046 0.045,0.094 0.077,0.139 0.053,0.093 0.127,0.179 0.204,0.262 0.078,0.083 0.171,0.153 0.268,0.218 l 0.076,0.043 C -2.012,0.585 -2,0.59 -1.988,0.595 l 0.035,0.017 0.034,0.018 c 0.005,0.003 0.013,0.006 0.022,0.009 l 0.026,0.009 0.102,0.038 C -1.795,0.677 -1.775,0.684 -1.781,0.682 h 0.002 l 0.002,0.001 0.006,0.001 0.01,0.003 0.022,0.006 0.042,0.012 c 0.029,0.01 0.058,0.014 0.087,0.019 l 0.043,0.008 c 0.014,0.004 0.029,0.006 0.044,0.007 0.029,0.003 0.058,0.006 0.087,0.009 C -1.32,0.752 -1.203,0.75 -1.09,0.729 -0.979,0.707 -0.869,0.68 -0.77,0.636 -0.718,0.619 -0.674,0.59 -0.626,0.569 -0.58,0.544 -0.538,0.516 -0.495,0.491 -0.456,0.462 -0.415,0.436 -0.379,0.407 -0.345,0.377 -0.31,0.349 -0.279,0.321 -0.249,0.292 -0.222,0.263 -0.194,0.237 -0.17,0.21 -0.147,0.184 -0.127,0.161 -0.106,0.139 -0.087,0.116 -0.073,0.095 -0.057,0.075 -0.044,0.057 -0.034,0.043 -0.012,0.015 0,0 0,0"
         style="fill:#000000;fill-opacity:1;fill-rule:nonzero;stroke:none"
         id="path1216"
         inkscape:connector-curvature="0" />
    </g>
    <g
       id="g1218"
       transform="matrix(0.35277777,0,0,-0.35277777,122.52418,172.15174)">
      <path
         d="M 0,0 C 0,0 0.002,0.013 0.003,0.037 0.004,0.049 0.004,0.064 0.005,0.081 0.007,0.098 0.006,0.118 0.003,0.141 0,0.164 -0.004,0.19 -0.009,0.219 -0.015,0.246 -0.024,0.275 -0.034,0.307 -0.043,0.339 -0.059,0.369 -0.074,0.404 -0.09,0.439 -0.113,0.471 -0.134,0.507 -0.158,0.541 -0.186,0.576 -0.216,0.61 -0.248,0.643 -0.282,0.677 -0.322,0.707 -0.398,0.77 -0.492,0.822 -0.596,0.862 -0.7,0.902 -0.815,0.922 -0.934,0.927 -0.994,0.926 -1.054,0.926 -1.113,0.915 -1.143,0.911 -1.173,0.907 -1.202,0.898 L -1.246,0.887 -1.268,0.881 -1.279,0.878 -1.285,0.877 -1.287,0.876 H -1.289 L -1.303,0.871 -1.369,0.845 C -1.381,0.84 -1.388,0.839 -1.404,0.83 L -1.449,0.808 C -1.513,0.778 -1.56,0.743 -1.609,0.709 -1.702,0.636 -1.784,0.552 -1.845,0.459 -1.905,0.366 -1.95,0.269 -1.975,0.173 -1.989,0.126 -1.996,0.078 -2.003,0.033 c -0.004,-0.045 -0.006,-0.089 -0.005,-0.131 0.004,-0.042 0.005,-0.081 0.012,-0.118 0.009,-0.037 0.014,-0.072 0.025,-0.103 0.011,-0.031 0.021,-0.06 0.032,-0.086 0.013,-0.025 0.025,-0.048 0.037,-0.068 0.02,-0.04 0.048,-0.067 0.061,-0.086 0.016,-0.019 0.025,-0.028 0.025,-0.028 0,0 0.002,0.013 0.006,0.037 0.005,0.023 0.008,0.057 0.019,0.098 0.004,0.019 0.009,0.041 0.015,0.065 0.008,0.023 0.014,0.048 0.022,0.073 0.017,0.051 0.039,0.105 0.066,0.159 0.029,0.053 0.06,0.108 0.1,0.159 0.037,0.052 0.085,0.099 0.132,0.143 0.048,0.045 0.103,0.082 0.159,0.116 0.015,0.008 0.029,0.016 0.043,0.024 0.015,0.009 0.026,0.01 0.038,0.017 l 0.017,0.009 c 0.002,0.001 0.008,0.003 0.014,0.005 l 0.016,0.006 0.066,0.025 C -1.13,0.339 -1.11,0.346 -1.116,0.344 h 0.001 l 0.002,0.001 0.003,0.001 0.006,0.001 0.012,0.004 0.024,0.006 c 0.015,0.006 0.032,0.009 0.048,0.012 0.032,0.008 0.065,0.011 0.098,0.016 0.065,0.004 0.131,0.007 0.197,-0.001 0.065,-0.008 0.131,-0.018 0.191,-0.039 0.063,-0.018 0.12,-0.044 0.175,-0.07 C -0.333,0.26 -0.306,0.246 -0.281,0.231 -0.257,0.215 -0.233,0.2 -0.211,0.185 -0.19,0.169 -0.17,0.153 -0.15,0.139 -0.132,0.123 -0.115,0.109 -0.1,0.096 -0.068,0.07 -0.044,0.041 -0.027,0.026 -0.01,0.009 0,0 0,0"
         style="fill:#000000;fill-opacity:1;fill-rule:nonzero;stroke:none"
         id="path1220"
         inkscape:connector-curvature="0" />
    </g>
    <g
       id="g1222"
       transform="matrix(0.35277777,0,0,-0.35277777,122.52418,172.15174)">
      <path
         d="m 0,0 c 0,0 0.046,0.028 0.133,0.081 0.043,0.026 0.094,0.061 0.155,0.103 0.03,0.022 0.064,0.044 0.098,0.069 0.033,0.027 0.068,0.055 0.106,0.084 0.148,0.12 0.324,0.274 0.5,0.477 0.177,0.201 0.359,0.447 0.521,0.739 0.163,0.291 0.3,0.63 0.398,1.003 C 1.959,2.743 1.997,2.938 2.02,3.14 2.046,3.342 2.053,3.55 2.048,3.762 2.045,3.974 2.02,4.189 1.983,4.405 1.948,4.621 1.89,4.836 1.819,5.048 1.748,5.26 1.659,5.468 1.555,5.67 1.45,5.871 1.328,6.064 1.197,6.25 L 1.094,6.383 C 1.063,6.424 1.024,6.469 0.986,6.514 0.91,6.605 0.831,6.687 0.753,6.768 0.592,6.929 0.421,7.078 0.24,7.211 0.058,7.343 -0.129,7.465 -0.325,7.565 -0.52,7.666 -0.718,7.757 -0.92,7.825 -1.121,7.895 -1.322,7.953 -1.523,7.991 -1.724,8.032 -1.922,8.056 -2.115,8.069 -2.503,8.091 -2.869,8.065 -3.198,8.002 -3.527,7.938 -3.819,7.843 -4.066,7.737 -4.127,7.709 -4.187,7.684 -4.244,7.656 -4.299,7.628 -4.353,7.6 -4.404,7.574 -4.455,7.546 -4.503,7.517 -4.548,7.49 -4.594,7.465 -4.637,7.437 -4.677,7.411 -4.716,7.385 -4.754,7.36 -4.79,7.337 -4.824,7.312 -4.856,7.288 -4.885,7.266 -4.945,7.222 -4.994,7.184 -5.033,7.15 -5.11,7.085 -5.151,7.05 -5.151,7.05 c 0,0 0.048,0.026 0.136,0.074 0.044,0.025 0.1,0.053 0.165,0.084 0.033,0.016 0.068,0.033 0.106,0.051 0.038,0.017 0.078,0.035 0.121,0.054 0.17,0.074 0.382,0.154 0.629,0.22 0.247,0.067 0.53,0.123 0.84,0.148 0.31,0.026 0.647,0.017 0.996,-0.031 C -1.984,7.623 -1.806,7.592 -1.629,7.541 -1.54,7.519 -1.452,7.489 -1.362,7.462 -1.318,7.447 -1.274,7.43 -1.23,7.414 -1.185,7.398 -1.141,7.381 -1.098,7.362 -0.921,7.291 -0.749,7.204 -0.579,7.108 -0.537,7.083 -0.495,7.058 -0.453,7.033 -0.412,7.006 -0.372,6.979 -0.331,6.952 -0.289,6.926 -0.249,6.897 -0.209,6.868 -0.17,6.838 -0.128,6.811 -0.09,6.779 0.068,6.659 0.213,6.522 0.355,6.381 0.423,6.308 0.493,6.235 0.553,6.161 0.584,6.125 0.616,6.089 0.649,6.044 L 0.742,5.922 C 0.859,5.759 0.968,5.59 1.062,5.413 1.153,5.236 1.24,5.056 1.306,4.87 1.324,4.824 1.337,4.776 1.353,4.73 1.369,4.683 1.384,4.636 1.397,4.589 L 1.436,4.448 C 1.447,4.4 1.458,4.353 1.469,4.306 1.508,4.116 1.538,3.926 1.552,3.737 1.557,3.69 1.559,3.643 1.56,3.596 1.562,3.549 1.565,3.502 1.565,3.456 1.564,3.363 1.566,3.27 1.559,3.179 1.553,2.996 1.528,2.818 1.5,2.645 1.438,2.3 1.342,1.978 1.221,1.693 1.101,1.408 0.961,1.157 0.82,0.944 0.68,0.731 0.539,0.556 0.415,0.417 0.384,0.383 0.354,0.35 0.326,0.319 0.297,0.29 0.27,0.262 0.245,0.236 0.195,0.184 0.151,0.14 0.113,0.106 0.039,0.037 0,0 0,0"
         style="fill:#000000;fill-opacity:1;fill-rule:nonzero;stroke:none"
         id="path1224"
         inkscape:connector-curvature="0" />
    </g>
    <g
       id="g1226"
       transform="matrix(0.35277777,0,0,-0.35277777,122.52418,172.15174)">
      <path
         d="M 0,0 C 0,0 0.04,0.024 0.115,0.068 0.153,0.089 0.198,0.119 0.25,0.155 0.277,0.173 0.306,0.192 0.336,0.213 0.365,0.235 0.395,0.259 0.428,0.284 0.557,0.386 0.71,0.517 0.864,0.69 1.019,0.862 1.178,1.073 1.32,1.324 1.463,1.575 1.584,1.867 1.671,2.189 1.713,2.351 1.747,2.52 1.767,2.694 1.791,2.869 1.798,3.05 1.794,3.233 1.793,3.417 1.771,3.603 1.74,3.79 1.71,3.978 1.66,4.164 1.599,4.349 1.538,4.533 1.46,4.713 1.371,4.889 1.28,5.063 1.174,5.23 1.06,5.392 L 0.971,5.507 C 0.945,5.542 0.911,5.581 0.877,5.62 0.811,5.7 0.743,5.77 0.675,5.841 0.535,5.98 0.386,6.11 0.229,6.224 0.071,6.339 -0.091,6.444 -0.261,6.53 -0.431,6.617 -0.602,6.696 -0.778,6.754 -0.952,6.814 -1.127,6.864 -1.301,6.895 -1.475,6.93 -1.647,6.95 -1.814,6.96 -2.149,6.978 -2.466,6.953 -2.75,6.896 -3.034,6.839 -3.285,6.754 -3.498,6.66 -3.711,6.568 -3.884,6.463 -4.021,6.372 -4.055,6.35 -4.087,6.328 -4.117,6.307 -4.147,6.286 -4.174,6.264 -4.199,6.245 -4.249,6.206 -4.292,6.173 -4.324,6.144 c -0.066,-0.058 -0.1,-0.088 -0.1,-0.088 0,0 0.041,0.021 0.118,0.061 0.038,0.021 0.086,0.044 0.143,0.071 0.056,0.027 0.121,0.056 0.195,0.087 0.148,0.061 0.33,0.127 0.542,0.182 0.213,0.054 0.455,0.099 0.72,0.118 0.265,0.02 0.553,0.01 0.849,-0.033 0.148,-0.024 0.3,-0.052 0.45,-0.096 C -1.331,6.427 -1.256,6.4 -1.18,6.377 -1.142,6.364 -1.105,6.349 -1.068,6.336 -1.03,6.322 -0.992,6.308 -0.955,6.291 -0.806,6.23 -0.659,6.155 -0.516,6.073 -0.48,6.052 -0.444,6.031 -0.409,6.009 L -0.305,5.94 C -0.269,5.918 -0.236,5.893 -0.202,5.868 -0.168,5.843 -0.133,5.82 -0.101,5.793 0.033,5.691 0.156,5.574 0.276,5.454 0.335,5.392 0.394,5.33 0.445,5.267 0.471,5.237 0.497,5.206 0.526,5.168 L 0.605,5.064 C 0.705,4.925 0.798,4.782 0.878,4.632 0.955,4.481 1.029,4.329 1.085,4.17 1.101,4.132 1.112,4.091 1.126,4.052 1.139,4.012 1.152,3.972 1.163,3.932 1.174,3.892 1.186,3.852 1.197,3.812 1.207,3.772 1.216,3.732 1.225,3.691 1.259,3.53 1.286,3.369 1.298,3.208 1.302,3.168 1.305,3.128 1.306,3.088 1.307,3.048 1.31,3.008 1.311,2.969 1.31,2.89 1.312,2.811 1.307,2.733 1.302,2.577 1.282,2.426 1.259,2.278 1.209,1.984 1.13,1.709 1.029,1.465 0.827,0.975 0.56,0.604 0.351,0.364 0.298,0.304 0.251,0.251 0.207,0.206 0.165,0.161 0.128,0.122 0.096,0.093 0.033,0.032 0,0 0,0"
         style="fill:#000000;fill-opacity:1;fill-rule:nonzero;stroke:none"
         id="path1228"
         inkscape:connector-curvature="0" />
    </g>
    <g
       id="g1230"
       transform="matrix(0.35277777,0,0,-0.35277777,122.52421,172.15174)">
      <path
         d="M 0,0 C 0,0 0.032,0.018 0.091,0.053 0.121,0.07 0.158,0.092 0.2,0.118 0.222,0.131 0.245,0.143 0.269,0.159 0.292,0.177 0.316,0.196 0.342,0.216 0.393,0.256 0.452,0.3 0.514,0.351 0.572,0.405 0.632,0.466 0.698,0.531 0.733,0.562 0.76,0.601 0.792,0.638 0.823,0.676 0.855,0.716 0.888,0.756 0.923,0.795 0.948,0.842 0.979,0.887 1.009,0.933 1.04,0.981 1.071,1.029 1.101,1.078 1.125,1.132 1.153,1.185 1.166,1.212 1.18,1.239 1.193,1.266 1.208,1.294 1.221,1.321 1.232,1.351 1.275,1.467 1.328,1.587 1.358,1.717 1.435,1.973 1.465,2.257 1.465,2.551 1.462,2.624 1.458,2.698 1.454,2.773 1.449,2.848 1.434,2.922 1.423,2.997 1.417,3.035 1.411,3.073 1.405,3.11 1.396,3.148 1.387,3.185 1.377,3.222 1.357,3.296 1.339,3.372 1.314,3.446 1.216,3.742 1.063,4.023 0.883,4.284 L 0.737,4.464 0.702,4.506 C 0.691,4.519 0.68,4.534 0.664,4.548 L 0.577,4.637 0.489,4.724 0.445,4.767 0.399,4.804 C 0.338,4.853 0.276,4.902 0.215,4.951 0.153,4.998 0.085,5.037 0.021,5.08 l -0.099,0.061 c -0.034,0.017 -0.068,0.034 -0.102,0.052 -0.069,0.033 -0.135,0.071 -0.205,0.099 -0.07,0.027 -0.14,0.053 -0.209,0.079 -0.282,0.09 -0.563,0.15 -0.832,0.156 C -1.559,5.539 -1.69,5.526 -1.815,5.521 -1.846,5.52 -1.877,5.516 -1.907,5.511 -1.938,5.506 -1.968,5.502 -1.998,5.497 -2.057,5.487 -2.116,5.481 -2.172,5.468 -2.228,5.453 -2.282,5.439 -2.336,5.425 -2.389,5.41 -2.442,5.401 -2.49,5.379 -2.539,5.361 -2.586,5.342 -2.632,5.325 -2.678,5.306 -2.723,5.293 -2.764,5.27 -2.846,5.227 -2.923,5.189 -2.992,5.151 -3.059,5.108 -3.119,5.066 -3.173,5.03 -3.2,5.012 -3.226,4.995 -3.25,4.979 -3.272,4.961 -3.292,4.943 -3.312,4.926 -3.35,4.893 -3.382,4.865 -3.408,4.843 -3.46,4.797 -3.487,4.772 -3.487,4.772 c 0,0 0.034,0.016 0.097,0.044 0.031,0.014 0.069,0.032 0.114,0.053 0.022,0.01 0.046,0.022 0.072,0.033 0.026,0.009 0.054,0.02 0.084,0.031 0.059,0.021 0.124,0.046 0.194,0.07 0.074,0.018 0.152,0.041 0.234,0.063 0.083,0.021 0.174,0.033 0.267,0.051 0.047,0.01 0.096,0.011 0.146,0.017 0.049,0.004 0.1,0.009 0.151,0.013 0.052,0.003 0.105,10e-4 0.159,0.002 0.026,0 0.053,0 0.08,0.001 0.028,0 0.055,0 0.083,-0.003 0.11,-0.012 0.224,-0.012 0.338,-0.038 0.231,-0.031 0.465,-0.108 0.696,-0.201 0.231,-0.096 0.449,-0.234 0.657,-0.389 0.05,-0.042 0.099,-0.084 0.149,-0.127 L 0.071,4.361 0.103,4.327 0.168,4.261 0.234,4.195 C 0.245,4.185 0.256,4.171 0.268,4.157 L 0.301,4.114 0.429,3.956 0.538,3.792 C 0.555,3.764 0.577,3.738 0.591,3.709 L 0.636,3.622 0.682,3.535 0.706,3.492 0.725,3.447 C 0.75,3.387 0.775,3.327 0.8,3.268 0.885,3.023 0.949,2.774 0.969,2.526 0.986,2.278 0.988,2.033 0.946,1.805 0.936,1.689 0.9,1.582 0.878,1.473 0.873,1.446 0.864,1.42 0.855,1.395 0.847,1.369 0.838,1.344 0.83,1.318 0.812,1.268 0.798,1.217 0.779,1.169 0.759,1.122 0.739,1.076 0.719,1.03 0.698,0.985 0.683,0.938 0.658,0.898 0.612,0.816 0.572,0.733 0.527,0.661 0.48,0.59 0.435,0.523 0.394,0.459 0.35,0.4 0.307,0.348 0.268,0.298 0.249,0.274 0.23,0.25 0.213,0.229 0.194,0.207 0.175,0.188 0.158,0.17 0.124,0.134 0.095,0.103 0.071,0.078 0.025,0.027 0,0 0,0"
         style="fill:#000000;fill-opacity:1;fill-rule:nonzero;stroke:none"
         id="path1232"
         inkscape:connector-curvature="0" />
    </g>
    <g
       id="g1234"
       transform="matrix(0.35277777,0,0,-0.35277777,122.52418,172.15174)">
      <path
         d="M 0,0 C 0,0 0.025,0.013 0.073,0.038 0.096,0.051 0.125,0.066 0.159,0.085 0.176,0.094 0.195,0.103 0.214,0.115 0.232,0.128 0.252,0.142 0.272,0.156 0.314,0.186 0.361,0.219 0.41,0.258 0.456,0.299 0.505,0.344 0.558,0.394 0.61,0.444 0.656,0.505 0.71,0.566 0.739,0.596 0.759,0.632 0.784,0.667 0.808,0.703 0.833,0.739 0.858,0.776 0.883,0.815 0.902,0.856 0.925,0.897 0.946,0.939 0.972,0.981 0.99,1.026 1.025,1.117 1.068,1.21 1.093,1.312 1.157,1.513 1.183,1.736 1.186,1.968 1.184,2.025 1.182,2.084 1.179,2.143 1.175,2.202 1.163,2.261 1.155,2.32 L 1.142,2.41 1.12,2.498 C 1.104,2.557 1.091,2.617 1.071,2.675 1.05,2.732 1.028,2.79 1.006,2.848 0.987,2.907 0.954,2.961 0.927,3.017 0.898,3.073 0.871,3.129 0.835,3.18 L 0.784,3.259 0.758,3.298 0.745,3.318 0.739,3.328 0.736,3.333 0.734,3.335 C 0.73,3.341 0.742,3.326 0.724,3.349 L 0.618,3.478 0.591,3.511 C 0.583,3.521 0.574,3.532 0.561,3.544 L 0.491,3.615 0.421,3.684 0.386,3.719 0.349,3.748 C 0.301,3.786 0.252,3.825 0.203,3.863 0.154,3.9 0.101,3.931 0.05,3.964 L -0.028,4.012 -0.11,4.052 C -0.164,4.078 -0.216,4.107 -0.272,4.129 -0.327,4.151 -0.383,4.17 -0.437,4.19 -0.66,4.26 -0.882,4.303 -1.093,4.305 -1.198,4.313 -1.301,4.301 -1.399,4.296 -1.448,4.293 -1.495,4.281 -1.542,4.274 -1.589,4.266 -1.634,4.26 -1.678,4.249 -1.722,4.236 -1.764,4.224 -1.806,4.212 -1.847,4.2 -1.888,4.191 -1.925,4.174 -2.001,4.141 -2.073,4.116 -2.137,4.082 -2.201,4.047 -2.26,4.016 -2.313,3.985 -2.364,3.95 -2.41,3.917 -2.451,3.887 -2.471,3.872 -2.49,3.857 -2.508,3.844 -2.526,3.83 -2.541,3.814 -2.555,3.801 -2.584,3.774 -2.608,3.752 -2.628,3.733 -2.666,3.696 -2.686,3.676 -2.686,3.676 c 0,0 0.027,0.011 0.077,0.031 0.024,0.01 0.054,0.022 0.089,0.037 0.018,0.007 0.037,0.015 0.057,0.023 0.021,0.006 0.043,0.013 0.066,0.021 0.046,0.015 0.096,0.031 0.151,0.049 0.057,0.012 0.117,0.027 0.181,0.042 0.064,0.014 0.134,0.021 0.205,0.032 0.072,0.01 0.148,0.011 0.226,0.017 0.039,10e-4 0.08,-10e-4 0.12,-0.002 0.041,-0.002 0.082,10e-4 0.123,-0.005 C -1.307,3.91 -1.222,3.909 -1.136,3.887 -0.962,3.86 -0.788,3.799 -0.615,3.727 -0.443,3.653 -0.281,3.548 -0.126,3.432 -0.09,3.4 -0.053,3.368 -0.016,3.336 L 0.011,3.312 0.035,3.287 0.082,3.239 0.131,3.191 C 0.139,3.184 0.147,3.173 0.156,3.162 L 0.182,3.129 0.287,2.998 C 0.27,3.02 0.283,3.003 0.28,3.008 L 0.281,3.006 0.283,3.002 0.288,2.994 0.299,2.979 0.319,2.948 0.36,2.887 C 0.389,2.847 0.411,2.803 0.434,2.76 L 0.468,2.696 0.486,2.664 0.5,2.63 C 0.519,2.586 0.538,2.541 0.557,2.497 0.621,2.315 0.672,2.129 0.69,1.943 0.705,1.757 0.71,1.573 0.681,1.401 0.676,1.313 0.65,1.231 0.636,1.149 0.629,1.108 0.613,1.07 0.602,1.031 0.59,0.992 0.58,0.954 0.567,0.917 0.537,0.845 0.512,0.773 0.481,0.708 0.448,0.644 0.419,0.581 0.386,0.524 0.352,0.469 0.319,0.416 0.29,0.366 0.256,0.32 0.225,0.278 0.198,0.24 0.183,0.22 0.17,0.201 0.157,0.184 0.144,0.167 0.129,0.151 0.117,0.137 0.092,0.108 0.07,0.083 0.053,0.063 0.018,0.022 0,0 0,0"
         style="fill:#000000;fill-opacity:1;fill-rule:nonzero;stroke:none"
         id="path1236"
         inkscape:connector-curvature="0" />
    </g>
    <g
       id="g1238"
       transform="matrix(0.35277777,0,0,-0.35277777,122.52418,172.15174)">
      <path
         d="m 0,0 c 0,0 0.018,0.006 0.051,0.02 0.016,0.007 0.036,0.016 0.06,0.026 0.011,0.005 0.024,0.01 0.038,0.016 0.013,0.008 0.026,0.016 0.041,0.025 0.029,0.017 0.062,0.038 0.097,0.061 0.033,0.025 0.067,0.054 0.105,0.085 0.037,0.031 0.07,0.07 0.109,0.109 0.038,0.041 0.07,0.089 0.107,0.137 0.033,0.051 0.066,0.107 0.096,0.166 0.027,0.06 0.058,0.123 0.078,0.191 0.047,0.135 0.07,0.287 0.075,0.446 C 0.856,1.321 0.856,1.361 0.854,1.402 0.852,1.442 0.845,1.482 0.84,1.523 L 0.832,1.585 0.818,1.646 C 0.808,1.686 0.799,1.727 0.785,1.767 0.757,1.847 0.73,1.929 0.688,2.003 0.669,2.042 0.65,2.08 0.625,2.116 L 0.59,2.17 0.573,2.197 0.564,2.211 0.56,2.217 0.557,2.221 0.556,2.222 C 0.552,2.228 0.564,2.212 0.547,2.235 L 0.477,2.319 0.46,2.34 C 0.454,2.347 0.449,2.354 0.44,2.363 L 0.391,2.412 C 0.358,2.444 0.325,2.481 0.291,2.505 0.257,2.531 0.223,2.557 0.19,2.583 0.156,2.608 0.119,2.629 0.084,2.652 L 0.03,2.684 -0.027,2.711 C -0.064,2.728 -0.1,2.747 -0.138,2.762 -0.177,2.776 -0.215,2.788 -0.253,2.801 -0.406,2.846 -0.558,2.871 -0.702,2.868 -0.774,2.871 -0.843,2.861 -0.909,2.854 -0.975,2.843 -1.038,2.829 -1.097,2.814 -1.155,2.794 -1.211,2.778 -1.261,2.755 -1.311,2.731 -1.359,2.711 -1.4,2.686 -1.441,2.659 -1.479,2.636 -1.513,2.613 -1.546,2.587 -1.575,2.562 -1.6,2.54 -1.613,2.529 -1.625,2.519 -1.636,2.509 -1.647,2.498 -1.656,2.487 -1.665,2.477 -1.682,2.458 -1.697,2.441 -1.709,2.428 -1.732,2.401 -1.744,2.386 -1.744,2.386 c 0,0 0.019,0.005 0.053,0.015 0.035,0.01 0.081,0.028 0.144,0.04 0.031,0.007 0.064,0.015 0.101,0.023 0.038,0.005 0.077,0.012 0.118,0.018 0.042,0.005 0.087,0.007 0.132,0.011 0.046,0.003 0.094,0 0.143,0.001 0.05,-0.005 0.1,-0.007 0.152,-0.014 C -0.85,2.469 -0.797,2.466 -0.745,2.45 -0.639,2.428 -0.534,2.385 -0.43,2.338 -0.327,2.29 -0.232,2.223 -0.14,2.152 l 0.065,-0.059 c 0.012,-0.009 0.022,-0.019 0.03,-0.029 L -0.018,2.036 0.009,2.009 C 0.014,2.005 0.019,1.999 0.025,1.991 L 0.042,1.97 0.11,1.885 C 0.093,1.907 0.105,1.89 0.102,1.895 L 0.103,1.894 0.104,1.891 0.107,1.887 0.113,1.878 0.125,1.859 0.15,1.823 C 0.168,1.799 0.181,1.773 0.195,1.747 L 0.216,1.708 C 0.224,1.696 0.231,1.683 0.236,1.669 0.248,1.642 0.26,1.616 0.272,1.589 0.312,1.48 0.346,1.369 0.361,1.257 0.374,1.144 0.382,1.032 0.37,0.925 0.37,0.87 0.356,0.819 0.351,0.767 0.342,0.716 0.328,0.668 0.317,0.62 0.301,0.574 0.288,0.527 0.272,0.485 0.254,0.443 0.239,0.401 0.221,0.363 0.202,0.326 0.183,0.291 0.167,0.257 0.148,0.225 0.131,0.196 0.115,0.17 0.1,0.143 0.084,0.118 0.068,0.098 0.054,0.077 0.041,0.059 0.031,0.045 0.01,0.016 0,0 0,0"
         style="fill:#000000;fill-opacity:1;fill-rule:nonzero;stroke:none"
         id="path1240"
         inkscape:connector-curvature="0" />
    </g>
    <g
       id="g1242"
       transform="matrix(0.35277777,0,0,-0.35277777,122.52418,172.15174)">
      <path
         d="m 0,0 c 0,0 0.013,0.002 0.036,0.009 0.012,0.003 0.026,0.007 0.043,0.011 0.017,0.004 0.035,0.011 0.057,0.021 0.021,0.01 0.045,0.021 0.07,0.035 0.024,0.015 0.049,0.032 0.077,0.051 0.027,0.019 0.052,0.043 0.081,0.068 0.028,0.026 0.051,0.057 0.08,0.089 0.025,0.033 0.049,0.07 0.073,0.109 0.021,0.04 0.044,0.083 0.06,0.13 C 0.613,0.615 0.634,0.719 0.64,0.83 0.646,0.94 0.63,1.056 0.598,1.17 0.579,1.226 0.56,1.283 0.531,1.336 0.518,1.363 0.505,1.39 0.488,1.415 L 0.463,1.453 0.451,1.472 0.445,1.481 0.442,1.486 0.44,1.488 0.439,1.489 0.43,1.502 0.385,1.556 0.374,1.569 C 0.371,1.573 0.367,1.578 0.36,1.585 L 0.325,1.62 C 0.276,1.671 0.229,1.705 0.181,1.741 0.083,1.807 -0.023,1.857 -0.131,1.886 -0.239,1.915 -0.345,1.927 -0.445,1.921 -0.494,1.92 -0.542,1.912 -0.587,1.904 -0.632,1.894 -0.675,1.882 -0.714,1.869 -0.753,1.852 -0.791,1.839 -0.824,1.821 -0.857,1.801 -0.888,1.785 -0.914,1.766 -0.941,1.745 -0.965,1.727 -0.986,1.708 -1.007,1.689 -1.024,1.67 -1.04,1.653 -1.072,1.621 -1.089,1.587 -1.103,1.568 c -0.014,-0.02 -0.02,-0.032 -0.02,-0.032 0,0 0.013,0.002 0.038,0.005 0.023,0.004 0.056,0.011 0.099,0.013 0.02,0.002 0.043,0.004 0.067,0.006 0.025,0 0.05,0.002 0.077,0.002 0.054,-0.001 0.112,-0.005 0.172,-0.014 0.06,-0.01 0.122,-0.023 0.183,-0.045 0.062,-0.018 0.121,-0.049 0.178,-0.08 0.057,-0.032 0.11,-0.073 0.16,-0.115 0.011,-0.012 0.024,-0.023 0.036,-0.034 0.014,-0.011 0.018,-0.02 0.028,-0.03 L -0.071,1.23 C -0.069,1.229 -0.066,1.224 -0.062,1.219 L -0.051,1.206 -0.007,1.151 C -0.024,1.173 -0.012,1.157 -0.015,1.162 V 1.161 L -0.014,1.16 -0.013,1.157 -0.009,1.152 -0.002,1.141 0.012,1.121 C 0.022,1.108 0.03,1.093 0.037,1.079 0.055,1.051 0.068,1.021 0.083,0.991 0.108,0.931 0.13,0.869 0.143,0.805 0.155,0.741 0.167,0.675 0.165,0.611 0.167,0.547 0.16,0.484 0.152,0.424 0.146,0.395 0.141,0.365 0.134,0.337 0.126,0.31 0.12,0.282 0.112,0.257 0.103,0.232 0.094,0.208 0.086,0.185 0.077,0.163 0.068,0.143 0.061,0.124 0.046,0.086 0.026,0.054 0.016,0.033 0.005,0.012 0,0 0,0"
         style="fill:#000000;fill-opacity:1;fill-rule:nonzero;stroke:none"
         id="path1244"
         inkscape:connector-curvature="0" />
    </g>
    <g
       id="g1246"
       transform="matrix(0.35277777,0,0,-0.35277777,122.52418,172.15174)">
      <path
         d="m 0,0 c 0,0 0.041,-0.035 0.118,-0.1 0.038,-0.034 0.088,-0.071 0.147,-0.115 0.03,-0.022 0.062,-0.047 0.096,-0.072 0.036,-0.023 0.074,-0.047 0.114,-0.074 0.16,-0.103 0.362,-0.221 0.61,-0.325 0.247,-0.106 0.539,-0.202 0.868,-0.265 0.329,-0.064 0.695,-0.089 1.082,-0.067 0.194,0.013 0.392,0.037 0.592,0.078 0.201,0.038 0.403,0.096 0.604,0.166 0.202,0.068 0.4,0.158 0.595,0.259 0.195,0.101 0.383,0.222 0.564,0.354 0.181,0.133 0.352,0.282 0.514,0.442 C 6.064,0.443 6.21,0.618 6.347,0.8 L 6.443,0.938 C 6.473,0.98 6.504,1.03 6.535,1.081 6.599,1.18 6.652,1.28 6.706,1.38 6.81,1.581 6.9,1.789 6.971,2.002 7.041,2.214 7.1,2.429 7.135,2.645 7.171,2.861 7.197,3.076 7.199,3.288 7.204,3.5 7.198,3.708 7.172,3.91 7.149,4.112 7.111,4.307 7.063,4.494 6.965,4.867 6.827,5.206 6.665,5.497 6.502,5.789 6.321,6.035 6.143,6.236 6.098,6.286 6.055,6.335 6.011,6.379 5.967,6.423 5.924,6.465 5.883,6.506 5.84,6.545 5.798,6.581 5.758,6.616 5.719,6.652 5.68,6.683 5.643,6.713 5.605,6.742 5.57,6.77 5.537,6.797 5.503,6.822 5.47,6.844 5.439,6.865 5.379,6.908 5.328,6.943 5.284,6.969 5.197,7.022 5.151,7.05 5.151,7.05 5.151,7.05 5.19,7.013 5.264,6.944 5.301,6.91 5.345,6.866 5.396,6.814 5.421,6.788 5.448,6.76 5.477,6.73 5.505,6.699 5.534,6.667 5.566,6.632 5.689,6.494 5.831,6.319 5.971,6.105 6.111,5.892 6.252,5.642 6.372,5.356 6.493,5.071 6.588,4.749 6.65,4.405 6.678,4.232 6.703,4.054 6.709,3.871 6.716,3.78 6.714,3.687 6.715,3.594 6.715,3.548 6.712,3.501 6.711,3.454 6.71,3.407 6.707,3.36 6.702,3.313 6.689,3.124 6.658,2.934 6.619,2.744 6.608,2.697 6.597,2.65 6.586,2.602 L 6.547,2.461 C 6.535,2.413 6.519,2.367 6.504,2.32 6.488,2.274 6.475,2.226 6.456,2.18 6.39,1.994 6.304,1.814 6.213,1.637 6.164,1.549 6.116,1.461 6.064,1.381 L 6.025,1.319 C 6.013,1.299 5.995,1.276 5.981,1.254 L 5.893,1.128 C 5.773,0.967 5.645,0.812 5.506,0.668 5.364,0.527 5.219,0.39 5.061,0.27 5.023,0.238 4.981,0.211 4.942,0.182 4.902,0.153 4.862,0.124 4.821,0.097 4.78,0.07 4.739,0.043 4.698,0.016 4.656,-0.009 4.614,-0.034 4.572,-0.058 4.402,-0.154 4.23,-0.242 4.054,-0.313 4.01,-0.332 3.966,-0.349 3.921,-0.365 3.877,-0.38 3.833,-0.398 3.789,-0.412 3.699,-0.44 3.611,-0.47 3.522,-0.492 3.345,-0.543 3.167,-0.574 2.993,-0.601 2.644,-0.649 2.307,-0.658 1.997,-0.632 1.687,-0.606 1.404,-0.551 1.157,-0.484 0.909,-0.417 0.698,-0.338 0.527,-0.263 0.485,-0.244 0.444,-0.227 0.406,-0.21 0.369,-0.192 0.334,-0.175 0.301,-0.159 0.236,-0.127 0.18,-0.1 0.136,-0.074 0.047,-0.026 0,0 0,0"
         style="fill:#000000;fill-opacity:1;fill-rule:nonzero;stroke:none"
         id="path1248"
         inkscape:connector-curvature="0" />
    </g>
    <g
       id="g1250"
       transform="matrix(0.35277777,0,0,-0.35277777,122.52418,172.15174)">
      <path
         d="m 0,0 c 0,0 0.035,-0.031 0.1,-0.088 0.033,-0.029 0.075,-0.062 0.125,-0.101 0.026,-0.019 0.053,-0.041 0.082,-0.063 0.031,-0.02 0.063,-0.042 0.097,-0.065 0.137,-0.09 0.31,-0.195 0.523,-0.287 0.212,-0.093 0.463,-0.178 0.747,-0.235 0.284,-0.058 0.601,-0.082 0.936,-0.065 0.168,0.01 0.34,0.03 0.513,0.065 0.174,0.032 0.349,0.081 0.524,0.142 0.175,0.058 0.347,0.136 0.516,0.223 0.17,0.086 0.333,0.191 0.49,0.306 0.157,0.115 0.306,0.244 0.446,0.382 0.139,0.14 0.266,0.292 0.385,0.45 l 0.083,0.119 c 0.025,0.036 0.052,0.08 0.079,0.124 0.056,0.087 0.102,0.174 0.149,0.26 0.09,0.175 0.168,0.355 0.229,0.54 0.06,0.184 0.111,0.37 0.141,0.558 C 6.196,2.452 6.218,2.639 6.219,2.822 6.223,3.006 6.216,3.187 6.193,3.361 6.172,3.536 6.138,3.705 6.096,3.867 6.009,4.189 5.888,4.481 5.745,4.732 5.603,4.983 5.444,5.194 5.289,5.366 5.135,5.539 4.981,5.67 4.852,5.772 4.82,5.797 4.789,5.821 4.76,5.843 4.731,5.864 4.702,5.883 4.675,5.901 4.623,5.937 4.578,5.966 4.54,5.988 4.465,6.032 4.425,6.056 4.425,6.056 c 0,0 0.033,-0.033 0.095,-0.093 C 4.552,5.934 4.589,5.895 4.631,5.849 4.675,5.805 4.723,5.752 4.775,5.691 4.88,5.571 4.999,5.419 5.117,5.235 5.235,5.051 5.352,4.836 5.452,4.591 5.553,4.346 5.632,4.071 5.683,3.777 5.706,3.63 5.726,3.478 5.731,3.322 5.735,3.245 5.733,3.166 5.734,3.087 5.734,3.047 5.731,3.007 5.73,2.967 5.729,2.928 5.726,2.888 5.722,2.847 5.709,2.687 5.683,2.526 5.649,2.364 5.64,2.324 5.63,2.284 5.621,2.243 5.61,2.204 5.598,2.164 5.587,2.124 5.577,2.083 5.563,2.044 5.55,2.004 5.536,1.965 5.526,1.924 5.509,1.885 5.453,1.727 5.379,1.575 5.302,1.424 5.26,1.35 5.219,1.274 5.175,1.207 5.154,1.173 5.133,1.138 5.105,1.1 L 5.03,0.992 C 4.928,0.855 4.82,0.723 4.701,0.602 4.581,0.482 4.458,0.365 4.324,0.262 4.292,0.235 4.256,0.212 4.223,0.187 4.189,0.162 4.155,0.138 4.12,0.115 L 4.016,0.046 C 3.98,0.025 3.945,0.003 3.909,-0.018 3.765,-0.1 3.619,-0.175 3.469,-0.236 3.432,-0.253 3.395,-0.267 3.357,-0.281 3.319,-0.294 3.282,-0.309 3.245,-0.322 3.168,-0.345 3.094,-0.372 3.018,-0.391 2.867,-0.435 2.716,-0.463 2.568,-0.487 2.271,-0.53 1.983,-0.54 1.719,-0.52 1.188,-0.481 0.75,-0.343 0.457,-0.219 0.383,-0.188 0.317,-0.16 0.261,-0.132 0.205,-0.106 0.156,-0.083 0.118,-0.062 0.041,-0.021 0,0 0,0"
         style="fill:#000000;fill-opacity:1;fill-rule:nonzero;stroke:none"
         id="path1252"
         inkscape:connector-curvature="0" />
    </g>
    <g
       id="g1254"
       transform="matrix(0.35277777,0,0,-0.35277777,122.52421,172.15174)">
      <path
         d="M 0,0 C 0,0 0.027,-0.024 0.079,-0.07 0.105,-0.093 0.137,-0.12 0.174,-0.153 0.194,-0.169 0.213,-0.188 0.236,-0.205 0.26,-0.221 0.285,-0.239 0.312,-0.257 0.367,-0.293 0.427,-0.335 0.495,-0.378 0.564,-0.416 0.641,-0.454 0.723,-0.497 0.764,-0.52 0.809,-0.533 0.855,-0.552 0.901,-0.569 0.949,-0.588 0.997,-0.606 1.046,-0.627 1.098,-0.637 1.151,-0.652 1.205,-0.666 1.259,-0.68 1.315,-0.695 1.371,-0.708 1.43,-0.714 1.489,-0.724 c 0.03,-0.004 0.06,-0.009 0.091,-0.013 0.03,-0.005 0.061,-0.01 0.092,-0.011 0.125,-0.005 0.256,-0.017 0.389,-0.006 0.269,0.007 0.55,0.066 0.831,0.157 0.069,0.026 0.139,0.052 0.21,0.079 0.07,0.027 0.136,0.065 0.204,0.098 0.035,0.018 0.069,0.035 0.103,0.052 l 0.098,0.061 c 0.065,0.043 0.132,0.082 0.195,0.129 0.253,0.184 0.475,0.415 0.668,0.666 l 0.127,0.194 0.029,0.046 c 0.01,0.015 0.02,0.03 0.029,0.05 l 0.058,0.109 0.056,0.11 0.028,0.055 0.021,0.055 C 4.746,1.18 4.774,1.254 4.801,1.327 4.827,1.4 4.844,1.476 4.865,1.55 4.874,1.588 4.883,1.625 4.893,1.662 4.899,1.7 4.905,1.737 4.911,1.775 4.921,1.85 4.937,1.924 4.942,1.999 4.947,2.074 4.949,2.148 4.953,2.222 4.953,2.516 4.923,2.8 4.846,3.056 4.816,3.186 4.763,3.306 4.72,3.422 4.709,3.452 4.695,3.479 4.681,3.507 4.667,3.534 4.654,3.561 4.64,3.588 4.612,3.641 4.588,3.695 4.559,3.744 4.527,3.792 4.497,3.839 4.467,3.886 4.436,3.931 4.411,3.978 4.375,4.017 4.343,4.057 4.31,4.097 4.279,4.135 4.247,4.172 4.221,4.211 4.186,4.242 4.12,4.307 4.059,4.368 4.002,4.422 3.94,4.472 3.882,4.515 3.831,4.556 3.805,4.575 3.781,4.594 3.758,4.612 3.734,4.628 3.71,4.641 3.688,4.654 3.645,4.68 3.608,4.702 3.578,4.72 3.519,4.754 3.487,4.772 3.487,4.772 c 0,0 0.025,-0.027 0.071,-0.077 C 3.582,4.67 3.61,4.639 3.644,4.603 3.661,4.585 3.679,4.566 3.698,4.545 3.715,4.523 3.734,4.5 3.753,4.475 3.792,4.426 3.836,4.372 3.881,4.313 3.921,4.249 3.967,4.182 4.013,4.111 4.059,4.039 4.099,3.957 4.145,3.874 4.169,3.834 4.185,3.787 4.205,3.742 4.225,3.697 4.245,3.65 4.266,3.603 4.284,3.555 4.299,3.504 4.316,3.454 4.324,3.429 4.333,3.403 4.342,3.377 4.35,3.352 4.359,3.326 4.364,3.299 4.387,3.191 4.422,3.083 4.432,2.967 4.474,2.739 4.473,2.494 4.455,2.247 4.435,1.998 4.37,1.749 4.287,1.505 4.262,1.445 4.237,1.386 4.211,1.326 L 4.192,1.281 4.17,1.24 4.127,1.158 4.084,1.075 C 4.078,1.062 4.069,1.047 4.058,1.031 L 4.028,0.986 3.916,0.817 3.792,0.663 C 3.771,0.638 3.753,0.61 3.729,0.587 L 3.66,0.517 3.592,0.447 3.558,0.412 3.521,0.38 C 3.471,0.337 3.422,0.295 3.372,0.253 3.165,0.098 2.946,-0.04 2.715,-0.136 2.484,-0.229 2.25,-0.306 2.019,-0.337 1.905,-0.363 1.791,-0.363 1.68,-0.375 1.653,-0.379 1.625,-0.378 1.598,-0.378 c -0.027,0 -0.054,0 -0.081,0.001 -0.053,0.001 -0.106,-0.001 -0.158,0.001 -0.052,0.005 -0.102,0.01 -0.151,0.014 -0.05,0.006 -0.099,0.006 -0.146,0.017 -0.093,0.018 -0.184,0.03 -0.267,0.051 -0.083,0.022 -0.16,0.045 -0.234,0.063 -0.07,0.024 -0.134,0.048 -0.193,0.07 C 0.339,-0.15 0.311,-0.14 0.284,-0.13 0.258,-0.119 0.234,-0.107 0.211,-0.097 0.166,-0.076 0.128,-0.058 0.096,-0.043 0.034,-0.015 0,0 0,0"
         style="fill:#000000;fill-opacity:1;fill-rule:nonzero;stroke:none"
         id="path1256"
         inkscape:connector-curvature="0" />
    </g>
    <g
       id="g1258"
       transform="matrix(0.35277777,0,0,-0.35277777,122.52418,172.15174)">
      <path
         d="M 0,0 C 0,0 0.02,-0.02 0.059,-0.057 0.078,-0.075 0.102,-0.098 0.13,-0.124 0.144,-0.138 0.159,-0.152 0.176,-0.167 0.194,-0.18 0.213,-0.194 0.234,-0.209 0.275,-0.239 0.321,-0.273 0.373,-0.308 0.426,-0.339 0.485,-0.371 0.549,-0.406 0.613,-0.44 0.685,-0.464 0.761,-0.497 0.798,-0.514 0.839,-0.523 0.88,-0.536 0.922,-0.547 0.964,-0.56 1.008,-0.572 c 0.044,-0.011 0.089,-0.017 0.136,-0.025 0.047,-0.007 0.094,-0.019 0.143,-0.022 0.098,-0.006 0.201,-0.017 0.306,-0.009 0.211,0.001 0.433,0.045 0.655,0.115 0.055,0.02 0.111,0.039 0.166,0.06 0.055,0.022 0.108,0.052 0.162,0.077 l 0.081,0.041 0.078,0.047 c 0.051,0.034 0.105,0.065 0.154,0.101 0.049,0.039 0.097,0.077 0.146,0.116 0.051,0.036 0.091,0.084 0.137,0.127 0.044,0.044 0.089,0.087 0.127,0.137 l 0.06,0.073 0.03,0.036 0.015,0.018 0.007,0.009 0.004,0.005 0.002,0.002 C 3.421,0.342 3.41,0.326 3.427,0.35 L 3.518,0.491 3.54,0.526 C 3.548,0.537 3.555,0.549 3.563,0.565 L 3.609,0.652 3.654,0.74 3.676,0.784 3.693,0.828 C 3.714,0.886 3.736,0.944 3.758,1.001 3.777,1.059 3.791,1.12 3.807,1.178 l 0.021,0.088 0.014,0.09 C 3.85,1.415 3.862,1.474 3.865,1.533 3.869,1.592 3.87,1.651 3.872,1.709 3.87,1.94 3.844,2.164 3.78,2.364 3.755,2.466 3.712,2.56 3.676,2.65 3.659,2.696 3.632,2.737 3.612,2.779 3.589,2.82 3.569,2.862 3.545,2.9 3.52,2.937 3.495,2.974 3.471,3.009 3.446,3.044 3.425,3.081 3.397,3.111 3.342,3.172 3.296,3.233 3.244,3.283 3.191,3.332 3.142,3.378 3.096,3.419 3.047,3.456 3.001,3.489 2.96,3.519 2.939,3.533 2.92,3.547 2.902,3.56 2.882,3.572 2.863,3.581 2.846,3.591 2.812,3.61 2.782,3.626 2.759,3.638 2.711,3.663 2.686,3.676 2.686,3.676 c 0,0 0.018,-0.022 0.053,-0.063 C 2.756,3.593 2.777,3.569 2.802,3.54 2.814,3.525 2.828,3.51 2.841,3.493 2.854,3.476 2.868,3.457 2.882,3.438 2.91,3.399 2.941,3.356 2.975,3.309 3.005,3.259 3.038,3.207 3.072,3.152 3.105,3.095 3.133,3.032 3.166,2.968 3.198,2.903 3.222,2.831 3.252,2.759 3.265,2.722 3.275,2.683 3.287,2.645 3.298,2.606 3.314,2.568 3.321,2.527 3.336,2.445 3.361,2.363 3.367,2.275 3.395,2.103 3.39,1.919 3.375,1.734 3.357,1.547 3.306,1.362 3.243,1.18 3.224,1.135 3.205,1.091 3.186,1.046 L 3.172,1.013 3.155,0.983 3.123,0.923 3.092,0.862 C 3.088,0.853 3.08,0.841 3.072,0.829 L 3.049,0.795 2.956,0.655 C 2.972,0.678 2.96,0.66 2.963,0.665 L 2.961,0.663 2.958,0.66 2.953,0.652 2.941,0.638 2.918,0.609 2.872,0.552 C 2.843,0.512 2.808,0.478 2.774,0.443 L 2.723,0.39 2.698,0.364 2.67,0.34 C 2.633,0.308 2.597,0.276 2.56,0.244 2.406,0.128 2.244,0.023 2.071,-0.052 1.899,-0.124 1.724,-0.185 1.55,-0.212 1.464,-0.233 1.379,-0.234 1.295,-0.246 1.254,-0.252 1.213,-0.249 1.172,-0.251 c -0.04,0 -0.081,-0.003 -0.12,-0.002 -0.078,0.007 -0.155,0.008 -0.226,0.017 -0.072,0.012 -0.141,0.019 -0.205,0.033 -0.064,0.015 -0.124,0.03 -0.181,0.042 -0.054,0.018 -0.104,0.034 -0.15,0.048 -0.023,0.008 -0.045,0.014 -0.065,0.021 -0.021,0.008 -0.04,0.016 -0.058,0.024 C 0.131,-0.053 0.101,-0.041 0.076,-0.03 0.026,-0.011 0,0 0,0"
         style="fill:#000000;fill-opacity:1;fill-rule:nonzero;stroke:none"
         id="path1260"
         inkscape:connector-curvature="0" />
    </g>
    <g
       id="g1262"
       transform="matrix(0.35277777,0,0,-0.35277777,122.52418,172.15174)">
      <path
         d="M 0,0 C 0,0 0.012,-0.015 0.035,-0.042 0.047,-0.055 0.061,-0.071 0.078,-0.091 0.087,-0.1 0.095,-0.111 0.106,-0.121 0.117,-0.131 0.129,-0.142 0.142,-0.153 0.167,-0.175 0.197,-0.2 0.231,-0.226 0.265,-0.249 0.303,-0.273 0.344,-0.299 0.385,-0.324 0.433,-0.344 0.482,-0.368 0.533,-0.392 0.588,-0.407 0.647,-0.427 0.705,-0.442 0.768,-0.456 0.834,-0.467 0.9,-0.474 0.97,-0.483 1.041,-0.481 c 0.144,-0.003 0.296,0.022 0.449,0.067 0.038,0.013 0.077,0.025 0.115,0.039 0.038,0.015 0.074,0.034 0.112,0.051 l 0.056,0.027 0.054,0.032 c 0.035,0.022 0.072,0.044 0.106,0.068 0.139,0.098 0.26,0.223 0.366,0.359 L 2.314,0.185 2.322,0.197 2.336,0.219 2.366,0.265 2.38,0.288 C 2.385,0.295 2.39,0.303 2.396,0.314 L 2.428,0.376 C 2.448,0.417 2.473,0.459 2.486,0.499 2.5,0.539 2.515,0.579 2.529,0.619 2.543,0.659 2.551,0.7 2.562,0.74 L 2.576,0.801 2.584,0.863 C 2.589,0.904 2.596,0.944 2.598,0.984 2.6,1.025 2.6,1.065 2.601,1.105 2.596,1.263 2.574,1.415 2.526,1.55 2.506,1.619 2.476,1.682 2.449,1.742 2.418,1.801 2.385,1.856 2.353,1.907 2.315,1.956 2.283,2.004 2.245,2.044 2.206,2.084 2.173,2.123 2.136,2.154 2.098,2.185 2.064,2.214 2.031,2.238 1.997,2.261 1.964,2.281 1.935,2.298 1.921,2.307 1.907,2.315 1.894,2.323 1.881,2.329 1.867,2.335 1.855,2.34 1.831,2.35 1.811,2.359 1.794,2.366 c -0.033,0.014 -0.05,0.02 -0.05,0.02 0,0 0.01,-0.016 0.03,-0.045 C 1.794,2.311 1.826,2.273 1.857,2.217 1.873,2.19 1.891,2.161 1.91,2.129 1.926,2.095 1.945,2.06 1.964,2.023 1.982,1.985 1.997,1.943 2.015,1.901 2.031,1.859 2.044,1.812 2.06,1.766 2.071,1.718 2.084,1.669 2.093,1.619 2.099,1.567 2.112,1.516 2.113,1.461 2.125,1.354 2.116,1.242 2.103,1.13 2.089,1.017 2.054,0.906 2.015,0.797 2.003,0.771 1.991,0.744 1.979,0.717 1.974,0.703 1.967,0.691 1.96,0.681 L 1.942,0.646 1.924,0.612 C 1.922,0.607 1.918,0.599 1.912,0.592 L 1.897,0.569 1.867,0.524 1.851,0.501 1.844,0.49 1.84,0.484 1.838,0.482 1.837,0.48 C 1.841,0.485 1.829,0.468 1.844,0.49 1.773,0.396 1.693,0.31 1.604,0.234 1.512,0.163 1.416,0.096 1.313,0.047 1.21,0 1.105,-0.042 0.999,-0.064 0.947,-0.081 0.894,-0.084 0.842,-0.094 0.791,-0.102 0.74,-0.104 0.691,-0.108 0.642,-0.107 0.593,-0.11 0.547,-0.107 0.502,-0.103 0.457,-0.102 0.415,-0.096 0.374,-0.09 0.335,-0.083 0.297,-0.079 0.261,-0.071 0.228,-0.063 0.198,-0.056 0.168,-0.05 0.139,-0.043 0.115,-0.034 0.09,-0.027 0.069,-0.02 0.053,-0.015 0.019,-0.005 0,0 0,0"
         style="fill:#000000;fill-opacity:1;fill-rule:nonzero;stroke:none"
         id="path1264"
         inkscape:connector-curvature="0" />
    </g>
    <g
       id="g1266"
       transform="matrix(0.35277777,0,0,-0.35277777,122.52418,172.15174)">
      <path
         d="m 0,0 c 0,0 0.006,-0.012 0.019,-0.032 0.007,-0.01 0.015,-0.022 0.025,-0.036 0.008,-0.015 0.021,-0.031 0.037,-0.047 0.016,-0.018 0.034,-0.037 0.056,-0.057 0.021,-0.018 0.045,-0.036 0.072,-0.057 0.026,-0.02 0.057,-0.035 0.09,-0.055 0.033,-0.018 0.07,-0.031 0.109,-0.048 0.04,-0.013 0.083,-0.025 0.128,-0.035 0.045,-0.008 0.093,-0.016 0.142,-0.017 0.099,-0.006 0.206,0.007 0.313,0.035 0.108,0.029 0.214,0.079 0.313,0.145 0.047,0.035 0.096,0.071 0.138,0.115 0.021,0.02 0.043,0.041 0.062,0.065 L 1.533,0.011 1.547,0.028 1.554,0.037 1.558,0.042 1.559,0.044 1.56,0.045 1.569,0.058 1.607,0.116 c 0.007,0.012 0.012,0.017 0.02,0.033 L 1.65,0.194 C 1.684,0.255 1.702,0.31 1.721,0.366 1.753,0.48 1.769,0.596 1.764,0.707 1.757,0.817 1.737,0.922 1.7,1.014 1.684,1.061 1.661,1.103 1.64,1.143 1.616,1.183 1.592,1.22 1.567,1.253 1.539,1.285 1.515,1.316 1.487,1.342 1.458,1.367 1.433,1.391 1.406,1.41 1.378,1.429 1.353,1.446 1.329,1.461 1.304,1.474 1.281,1.485 1.26,1.494 1.219,1.515 1.181,1.52 1.159,1.528 1.135,1.534 1.123,1.536 1.123,1.536 c 0,0 0.005,-0.011 0.016,-0.033 C 1.149,1.481 1.166,1.452 1.182,1.413 1.19,1.394 1.199,1.374 1.208,1.351 1.216,1.328 1.225,1.304 1.234,1.279 1.25,1.228 1.264,1.171 1.274,1.112 1.282,1.052 1.289,0.989 1.287,0.925 1.288,0.861 1.277,0.796 1.265,0.732 1.253,0.668 1.23,0.606 1.205,0.545 1.197,0.531 1.191,0.516 1.184,0.501 1.177,0.484 1.17,0.477 1.164,0.465 L 1.155,0.447 C 1.154,0.445 1.151,0.44 1.147,0.435 L 1.137,0.421 1.099,0.363 C 1.115,0.386 1.103,0.369 1.106,0.374 V 0.373 L 1.105,0.372 1.103,0.369 1.099,0.365 1.091,0.355 1.076,0.335 C 1.066,0.322 1.055,0.31 1.043,0.298 1.022,0.272 0.997,0.251 0.974,0.228 0.924,0.186 0.871,0.145 0.814,0.113 0.756,0.082 0.697,0.051 0.636,0.033 0.575,0.011 0.513,-0.002 0.453,-0.013 0.423,-0.016 0.393,-0.021 0.364,-0.023 0.335,-0.024 0.307,-0.026 0.28,-0.026 0.254,-0.026 0.228,-0.024 0.203,-0.024 0.18,-0.022 0.158,-0.021 0.138,-0.019 0.097,-0.017 0.06,-0.008 0.037,-0.005 0.013,-0.001 0,0 0,0"
         style="fill:#000000;fill-opacity:1;fill-rule:nonzero;stroke:none"
         id="path1268"
         inkscape:connector-curvature="0" />
    </g>
    <g
       id="g1270"
       transform="matrix(0.35277777,0,0,-0.35277777,122.52418,172.15174)">
      <path
         d="M 0,0 C 0,0 -0.021,-0.05 -0.059,-0.143 -0.079,-0.189 -0.1,-0.248 -0.124,-0.318 -0.136,-0.352 -0.15,-0.39 -0.162,-0.43 c -0.012,-0.041 -0.024,-0.084 -0.036,-0.13 -0.049,-0.184 -0.101,-0.411 -0.123,-0.678 -0.025,-0.267 -0.026,-0.572 0.015,-0.903 0.041,-0.33 0.129,-0.685 0.27,-1.044 C 0.036,-3.364 0.121,-3.544 0.222,-3.721 0.32,-3.899 0.438,-4.072 0.567,-4.24 0.694,-4.411 0.842,-4.569 0.999,-4.723 1.155,-4.877 1.33,-5.016 1.512,-5.147 1.695,-5.278 1.891,-5.393 2.093,-5.496 2.297,-5.598 2.51,-5.682 2.726,-5.756 l 0.162,-0.047 c 0.049,-0.016 0.107,-0.029 0.165,-0.043 0.115,-0.03 0.227,-0.049 0.339,-0.07 0.225,-0.035 0.451,-0.056 0.677,-0.058 0.224,0 0.448,0.01 0.666,0.044 0.217,0.032 0.431,0.074 0.634,0.137 0.204,0.061 0.402,0.132 0.587,0.219 0.186,0.084 0.361,0.18 0.525,0.283 0.326,0.208 0.608,0.443 0.836,0.687 0.229,0.244 0.408,0.491 0.546,0.721 0.033,0.059 0.067,0.114 0.096,0.169 0.028,0.056 0.055,0.11 0.081,0.161 0.025,0.052 0.046,0.103 0.067,0.152 0.022,0.047 0.04,0.094 0.057,0.139 0.017,0.044 0.033,0.086 0.047,0.126 0.014,0.04 0.025,0.078 0.036,0.113 0.022,0.07 0.04,0.13 0.051,0.18 0.024,0.098 0.036,0.15 0.036,0.15 0,0 -0.023,-0.048 -0.066,-0.139 C 8.248,-2.878 8.219,-2.933 8.184,-2.997 8.167,-3.029 8.149,-3.063 8.129,-3.1 8.109,-3.136 8.086,-3.174 8.063,-3.214 7.969,-3.374 7.845,-3.562 7.684,-3.76 7.524,-3.959 7.328,-4.169 7.092,-4.371 6.856,-4.573 6.578,-4.763 6.268,-4.928 6.111,-5.008 5.949,-5.086 5.776,-5.149 5.69,-5.183 5.601,-5.21 5.513,-5.24 5.468,-5.254 5.422,-5.266 5.377,-5.279 5.332,-5.292 5.286,-5.305 5.24,-5.314 5.055,-5.36 4.864,-5.39 4.67,-5.412 4.621,-5.416 4.573,-5.42 4.524,-5.425 4.475,-5.427 4.426,-5.429 4.377,-5.431 4.328,-5.435 4.278,-5.434 4.229,-5.434 4.179,-5.433 4.13,-5.436 4.08,-5.432 3.882,-5.427 3.683,-5.401 3.485,-5.37 3.386,-5.351 3.287,-5.333 3.194,-5.308 l -0.07,0.017 C 3.1,-5.285 3.073,-5.276 3.048,-5.269 L 2.9,-5.225 C 2.709,-5.161 2.521,-5.088 2.341,-5 2.162,-4.91 1.986,-4.815 1.822,-4.703 1.78,-4.677 1.741,-4.646 1.701,-4.617 c -0.04,0.028 -0.08,0.057 -0.118,0.088 -0.039,0.031 -0.077,0.061 -0.116,0.091 -0.037,0.032 -0.073,0.064 -0.11,0.096 -0.144,0.131 -0.281,0.267 -0.403,0.412 -0.032,0.035 -0.062,0.072 -0.091,0.109 -0.029,0.037 -0.059,0.073 -0.087,0.11 -0.053,0.077 -0.11,0.15 -0.159,0.228 -0.102,0.152 -0.187,0.31 -0.267,0.467 -0.154,0.315 -0.267,0.631 -0.337,0.932 -0.072,0.301 -0.106,0.586 -0.118,0.841 -0.013,0.254 -0.002,0.479 0.016,0.663 0.005,0.046 0.01,0.09 0.014,0.131 0.006,0.041 0.011,0.079 0.016,0.115 0.01,0.071 0.019,0.133 0.03,0.182 C -0.01,-0.053 0,0 0,0"
         style="fill:#000000;fill-opacity:1;fill-rule:nonzero;stroke:none"
         id="path1272"
         inkscape:connector-curvature="0" />
    </g>
    <g
       id="g1274"
       transform="matrix(0.35277777,0,0,-0.35277777,122.52418,172.15174)">
      <path
         d="m 0,0 c 0,0 -0.019,-0.042 -0.053,-0.122 -0.018,-0.039 -0.037,-0.09 -0.058,-0.15 -0.011,-0.03 -0.023,-0.062 -0.035,-0.096 -0.01,-0.035 -0.021,-0.073 -0.032,-0.112 -0.044,-0.157 -0.091,-0.353 -0.113,-0.583 -0.024,-0.23 -0.027,-0.494 0.006,-0.78 0.032,-0.286 0.107,-0.593 0.227,-0.905 C 0.003,-2.903 0.076,-3.06 0.163,-3.213 0.247,-3.368 0.348,-3.518 0.46,-3.664 0.57,-3.812 0.697,-3.95 0.833,-4.083 0.968,-4.218 1.119,-4.339 1.277,-4.453 1.435,-4.566 1.605,-4.667 1.781,-4.756 1.958,-4.844 2.142,-4.918 2.33,-4.982 l 0.139,-0.04 C 2.512,-5.036 2.562,-5.048 2.612,-5.059 2.713,-5.085 2.81,-5.102 2.907,-5.12 3.102,-5.151 3.299,-5.169 3.494,-5.169 3.689,-5.17 3.883,-5.16 4.071,-5.13 c 0.189,0.028 0.374,0.065 0.55,0.12 0.177,0.054 0.348,0.116 0.507,0.192 0.161,0.073 0.312,0.158 0.454,0.247 0.281,0.182 0.523,0.387 0.719,0.6 0.196,0.212 0.349,0.427 0.466,0.627 0.118,0.199 0.195,0.385 0.253,0.539 0.014,0.038 0.027,0.074 0.039,0.109 0.012,0.034 0.02,0.067 0.029,0.098 0.018,0.061 0.033,0.112 0.042,0.155 0.019,0.085 0.029,0.13 0.029,0.13 0,0 -0.021,-0.041 -0.059,-0.119 C 7.082,-2.471 7.056,-2.518 7.026,-2.573 6.996,-2.628 6.96,-2.689 6.919,-2.757 6.836,-2.893 6.728,-3.053 6.588,-3.221 6.449,-3.39 6.279,-3.568 6.076,-3.738 5.873,-3.909 5.634,-4.069 5.369,-4.207 5.235,-4.274 5.096,-4.34 4.948,-4.393 4.876,-4.421 4.8,-4.444 4.724,-4.469 4.686,-4.481 4.647,-4.491 4.609,-4.502 4.57,-4.513 4.531,-4.523 4.492,-4.531 4.334,-4.569 4.172,-4.594 4.007,-4.612 3.966,-4.616 3.924,-4.619 3.883,-4.623 3.841,-4.624 3.799,-4.626 3.758,-4.627 3.716,-4.63 3.674,-4.63 3.632,-4.63 3.59,-4.629 3.548,-4.631 3.506,-4.628 3.337,-4.623 3.168,-4.6 3,-4.574 2.916,-4.558 2.832,-4.542 2.754,-4.521 2.714,-4.512 2.675,-4.503 2.629,-4.488 L 2.503,-4.45 C 2.341,-4.396 2.181,-4.335 2.028,-4.26 1.876,-4.183 1.726,-4.103 1.587,-4.008 1.551,-3.986 1.518,-3.96 1.484,-3.936 1.45,-3.912 1.416,-3.887 1.383,-3.861 L 1.285,-3.784 1.191,-3.703 C 1.068,-3.592 0.951,-3.477 0.846,-3.354 0.819,-3.324 0.793,-3.293 0.769,-3.262 0.744,-3.23 0.718,-3.2 0.695,-3.168 0.649,-3.103 0.6,-3.041 0.558,-2.975 c -0.088,0.129 -0.161,0.263 -0.23,0.396 -0.133,0.267 -0.232,0.536 -0.294,0.793 -0.127,0.514 -0.13,0.97 -0.103,1.286 0.007,0.08 0.014,0.151 0.023,0.212 0.008,0.061 0.015,0.114 0.024,0.157 C -0.008,-0.046 0,0 0,0"
         style="fill:#000000;fill-opacity:1;fill-rule:nonzero;stroke:none"
         id="path1276"
         inkscape:connector-curvature="0" />
    </g>
    <g
       id="g1278"
       transform="matrix(0.35277777,0,0,-0.35277777,122.52418,172.15174)">
      <path
         d="m 0,0 c 0,0 -0.015,-0.034 -0.043,-0.096 -0.013,-0.032 -0.03,-0.071 -0.05,-0.116 -0.009,-0.023 -0.021,-0.047 -0.03,-0.074 -0.008,-0.028 -0.017,-0.057 -0.026,-0.089 -0.018,-0.062 -0.039,-0.132 -0.059,-0.21 -0.015,-0.077 -0.028,-0.161 -0.043,-0.252 -0.01,-0.046 -0.009,-0.093 -0.013,-0.142 -0.002,-0.049 -0.005,-0.1 -0.008,-0.151 -0.005,-0.053 0.002,-0.105 0.004,-0.16 0.003,-0.055 0.006,-0.111 0.01,-0.168 0.005,-0.058 0.017,-0.115 0.026,-0.174 l 0.015,-0.09 c 0.005,-0.03 0.01,-0.061 0.019,-0.091 0.033,-0.119 0.062,-0.247 0.114,-0.369 0.089,-0.253 0.233,-0.5 0.406,-0.738 0.047,-0.057 0.093,-0.115 0.141,-0.174 0.048,-0.057 0.104,-0.108 0.157,-0.163 L 0.702,-3.338 0.79,-3.412 c 0.061,-0.048 0.12,-0.099 0.184,-0.144 0.254,-0.182 0.544,-0.32 0.844,-0.426 l 0.224,-0.06 0.053,-0.014 C 2.112,-4.06 2.13,-4.065 2.151,-4.068 l 0.123,-0.02 0.122,-0.02 0.062,-0.009 0.059,-0.003 c 0.079,-0.004 0.157,-0.007 0.235,-0.011 0.079,-10e-4 0.157,0.006 0.234,0.009 0.038,0.003 0.077,0.006 0.115,0.008 0.038,0.006 0.076,0.012 0.114,0.018 0.075,0.014 0.151,0.022 0.224,0.04 0.073,0.019 0.145,0.039 0.217,0.059 0.28,0.091 0.543,0.207 0.764,0.359 0.115,0.068 0.213,0.155 0.311,0.232 0.025,0.019 0.048,0.041 0.069,0.062 0.022,0.022 0.044,0.043 0.065,0.064 0.043,0.043 0.087,0.082 0.124,0.126 0.037,0.044 0.073,0.088 0.108,0.13 0.033,0.044 0.07,0.082 0.097,0.127 0.028,0.044 0.056,0.086 0.083,0.128 0.026,0.041 0.055,0.079 0.074,0.121 0.041,0.083 0.081,0.159 0.114,0.23 0.03,0.074 0.053,0.142 0.076,0.203 0.011,0.03 0.021,0.059 0.031,0.086 0.008,0.028 0.013,0.055 0.019,0.079 0.011,0.049 0.021,0.091 0.029,0.124 0.014,0.067 0.022,0.103 0.022,0.103 0,0 -0.018,-0.032 -0.052,-0.092 C 5.573,-1.944 5.553,-1.981 5.529,-2.024 5.516,-2.045 5.504,-2.069 5.49,-2.092 5.474,-2.116 5.458,-2.141 5.44,-2.167 5.405,-2.219 5.367,-2.277 5.324,-2.338 5.275,-2.395 5.226,-2.459 5.172,-2.525 5.117,-2.59 5.051,-2.653 4.986,-2.723 4.955,-2.758 4.915,-2.788 4.878,-2.821 4.841,-2.853 4.803,-2.887 4.764,-2.921 4.724,-2.953 4.68,-2.983 4.637,-3.015 4.615,-3.03 4.594,-3.046 4.572,-3.062 4.55,-3.078 4.528,-3.095 4.504,-3.108 4.407,-3.162 4.315,-3.229 4.207,-3.275 4.002,-3.385 3.768,-3.459 3.526,-3.519 3.282,-3.577 3.024,-3.593 2.764,-3.589 2.699,-3.584 2.634,-3.578 2.569,-3.573 L 2.52,-3.569 2.475,-3.561 2.383,-3.545 2.29,-3.53 c -0.014,10e-4 -0.032,0.006 -0.049,0.011 l -0.053,0.014 -0.197,0.054 -0.185,0.069 c -0.031,0.013 -0.063,0.021 -0.092,0.036 l -0.088,0.044 -0.088,0.043 -0.045,0.021 -0.042,0.026 c -0.056,0.033 -0.111,0.067 -0.167,0.101 -0.212,0.148 -0.412,0.312 -0.575,0.501 -0.16,0.19 -0.306,0.388 -0.407,0.597 -0.061,0.1 -0.095,0.207 -0.141,0.308 -0.012,0.025 -0.021,0.051 -0.028,0.077 -0.009,0.025 -0.017,0.051 -0.025,0.076 -0.016,0.051 -0.034,0.101 -0.047,0.151 -0.012,0.05 -0.023,0.099 -0.034,0.147 -0.01,0.049 -0.025,0.096 -0.029,0.143 -0.011,0.093 -0.028,0.183 -0.034,0.268 -0.004,0.085 -0.006,0.166 -0.012,0.241 0.001,0.073 0.005,0.141 0.007,0.204 0.002,0.031 0.003,0.061 0.004,0.089 0.003,0.028 0.007,0.055 0.009,0.079 0.007,0.05 0.012,0.091 0.016,0.125 C -0.004,-0.036 0,0 0,0"
         style="fill:#000000;fill-opacity:1;fill-rule:nonzero;stroke:none"
         id="path1280"
         inkscape:connector-curvature="0" />
    </g>
    <g
       id="g1282"
       transform="matrix(0.35277777,0,0,-0.35277777,122.52418,172.15174)">
      <path
         d="m 0,0 c 0,0 -0.013,-0.026 -0.037,-0.073 -0.011,-0.024 -0.025,-0.054 -0.042,-0.089 -0.008,-0.017 -0.018,-0.035 -0.026,-0.056 -0.007,-0.021 -0.015,-0.044 -0.023,-0.068 -0.016,-0.048 -0.034,-0.102 -0.051,-0.162 -0.014,-0.06 -0.026,-0.126 -0.04,-0.196 -0.012,-0.071 -0.013,-0.148 -0.021,-0.229 -0.005,-0.041 -0.001,-0.082 0,-0.125 0.001,-0.043 0.003,-0.087 0.004,-0.132 0.003,-0.045 0.012,-0.09 0.018,-0.137 0.008,-0.046 0.011,-0.094 0.024,-0.142 0.025,-0.094 0.046,-0.194 0.085,-0.291 0.067,-0.2 0.178,-0.396 0.313,-0.585 C 0.24,-2.33 0.276,-2.377 0.313,-2.423 0.351,-2.468 0.395,-2.509 0.437,-2.552 L 0.501,-2.617 0.57,-2.676 C 0.618,-2.714 0.664,-2.755 0.714,-2.79 0.766,-2.824 0.818,-2.858 0.87,-2.892 0.92,-2.929 0.979,-2.953 1.034,-2.982 1.089,-3.011 1.145,-3.04 1.204,-3.061 L 1.292,-3.095 1.336,-3.112 1.358,-3.12 1.369,-3.124 1.375,-3.126 1.377,-3.127 C 1.384,-3.13 1.366,-3.124 1.394,-3.132 L 1.556,-3.175 1.597,-3.186 C 1.61,-3.189 1.624,-3.193 1.641,-3.195 l 0.098,-0.017 0.098,-0.015 0.049,-0.007 0.047,-0.002 c 0.062,-0.003 0.124,-0.006 0.186,-0.008 0.062,-10e-4 0.123,0.005 0.184,0.008 l 0.091,0.007 0.09,0.015 c 0.059,0.011 0.119,0.017 0.177,0.032 0.057,0.015 0.114,0.032 0.17,0.048 0.221,0.074 0.426,0.168 0.598,0.29 0.09,0.055 0.166,0.124 0.242,0.186 0.038,0.031 0.069,0.069 0.103,0.101 0.033,0.034 0.066,0.066 0.095,0.1 0.028,0.036 0.055,0.071 0.082,0.105 0.026,0.034 0.054,0.065 0.074,0.101 0.042,0.07 0.086,0.133 0.117,0.197 0.031,0.066 0.06,0.126 0.084,0.182 0.022,0.058 0.039,0.112 0.054,0.16 0.008,0.024 0.015,0.047 0.022,0.068 0.005,0.022 0.008,0.043 0.012,0.062 0.007,0.038 0.013,0.071 0.018,0.097 0.009,0.053 0.014,0.081 0.014,0.081 0,0 -0.015,-0.024 -0.044,-0.07 C 4.288,-1.496 4.271,-1.524 4.251,-1.556 4.241,-1.572 4.231,-1.59 4.219,-1.608 4.206,-1.625 4.193,-1.644 4.178,-1.663 4.15,-1.702 4.119,-1.745 4.085,-1.791 4.046,-1.835 4.006,-1.882 3.964,-1.931 3.92,-1.979 3.868,-2.026 3.817,-2.077 3.765,-2.127 3.703,-2.172 3.644,-2.223 3.612,-2.247 3.579,-2.268 3.546,-2.292 3.512,-2.314 3.48,-2.34 3.443,-2.36 3.369,-2.399 3.299,-2.448 3.216,-2.481 3.06,-2.561 2.883,-2.613 2.701,-2.656 2.517,-2.697 2.324,-2.706 2.131,-2.702 2.082,-2.698 2.034,-2.694 1.985,-2.69 L 1.949,-2.686 1.915,-2.68 1.848,-2.668 1.78,-2.658 C 1.77,-2.657 1.756,-2.653 1.743,-2.649 L 1.702,-2.638 1.54,-2.593 C 1.567,-2.601 1.546,-2.595 1.552,-2.596 H 1.549 l -0.004,0.002 -0.009,0.003 -0.017,0.007 -0.034,0.013 -0.07,0.025 c -0.047,0.015 -0.09,0.038 -0.134,0.06 L 1.215,-2.454 1.181,-2.439 1.15,-2.42 c -0.042,0.025 -0.084,0.05 -0.125,0.074 -0.16,0.11 -0.31,0.231 -0.435,0.371 -0.121,0.141 -0.234,0.288 -0.313,0.443 -0.048,0.075 -0.075,0.156 -0.112,0.231 -0.019,0.038 -0.028,0.077 -0.043,0.115 -0.013,0.038 -0.027,0.076 -0.039,0.113 -0.018,0.076 -0.04,0.148 -0.053,0.219 -0.011,0.071 -0.026,0.139 -0.033,0.204 -0.005,0.065 -0.009,0.127 -0.015,0.184 v 0.156 c 0,0.025 0,0.048 -0.001,0.069 0.001,0.022 0.004,0.043 0.005,0.062 0.004,0.038 0.006,0.071 0.009,0.098 C -0.002,-0.028 0,0 0,0"
         style="fill:#000000;fill-opacity:1;fill-rule:nonzero;stroke:none"
         id="path1284"
         inkscape:connector-curvature="0" />
    </g>
    <g
       id="g1286"
       transform="matrix(0.35277777,0,0,-0.35277777,122.52418,172.15174)">
      <path
         d="M 0,0 C 0,0 -0.011,-0.016 -0.029,-0.046 -0.038,-0.061 -0.049,-0.08 -0.063,-0.102 -0.069,-0.113 -0.077,-0.124 -0.083,-0.137 -0.089,-0.151 -0.096,-0.166 -0.102,-0.181 -0.116,-0.213 -0.13,-0.248 -0.145,-0.288 -0.157,-0.327 -0.167,-0.37 -0.18,-0.417 -0.191,-0.464 -0.195,-0.515 -0.203,-0.57 -0.21,-0.625 -0.207,-0.682 -0.209,-0.743 c 0.004,-0.061 0.01,-0.125 0.02,-0.19 0.014,-0.065 0.026,-0.133 0.051,-0.2 0.041,-0.137 0.112,-0.274 0.202,-0.405 0.024,-0.031 0.048,-0.064 0.073,-0.095 0.026,-0.032 0.056,-0.06 0.084,-0.091 L 0.264,-1.768 0.311,-1.81 C 0.343,-1.836 0.375,-1.864 0.409,-1.889 0.546,-1.991 0.703,-2.066 0.865,-2.124 L 0.892,-2.131 0.905,-2.135 0.932,-2.142 0.985,-2.155 1.011,-2.162 C 1.02,-2.164 1.029,-2.167 1.041,-2.168 L 1.11,-2.18 c 0.045,-0.006 0.094,-0.017 0.135,-0.017 0.043,-10e-4 0.086,-0.002 0.128,-0.004 0.043,0 0.085,0.004 0.127,0.007 l 0.062,0.005 0.062,0.012 c 0.04,0.008 0.081,0.013 0.12,0.024 0.04,0.01 0.078,0.023 0.116,0.035 0.15,0.053 0.289,0.121 0.403,0.208 0.06,0.04 0.11,0.088 0.16,0.133 0.047,0.047 0.089,0.095 0.128,0.142 0.035,0.05 0.071,0.095 0.098,0.143 0.026,0.049 0.053,0.093 0.071,0.138 0.018,0.045 0.035,0.086 0.048,0.125 0.012,0.04 0.021,0.076 0.028,0.109 0.004,0.017 0.007,0.032 0.011,0.047 0.002,0.014 0.003,0.029 0.004,0.042 0.003,0.026 0.005,0.048 0.007,0.065 0.003,0.036 0.003,0.055 0.003,0.055 0,0 -0.012,-0.016 -0.034,-0.044 C 2.765,-0.982 2.738,-1.024 2.694,-1.071 2.674,-1.095 2.651,-1.12 2.627,-1.149 2.599,-1.174 2.571,-1.203 2.541,-1.232 2.511,-1.261 2.476,-1.288 2.441,-1.318 2.406,-1.347 2.365,-1.373 2.326,-1.402 2.283,-1.427 2.241,-1.455 2.195,-1.479 2.147,-1.501 2.103,-1.529 2.05,-1.547 1.952,-1.591 1.842,-1.618 1.73,-1.64 1.618,-1.661 1.501,-1.663 1.385,-1.659 1.356,-1.656 1.327,-1.653 1.298,-1.65 1.282,-1.649 1.269,-1.646 1.257,-1.644 L 1.218,-1.637 1.18,-1.631 c -0.006,0 -0.014,0.003 -0.023,0.006 L 1.13,-1.618 1.078,-1.603 1.052,-1.596 1.039,-1.592 1.032,-1.591 1.029,-1.59 1.027,-1.589 C 1.033,-1.591 1.012,-1.585 1.039,-1.593 0.927,-1.555 0.819,-1.505 0.72,-1.445 0.623,-1.38 0.53,-1.31 0.451,-1.227 0.374,-1.144 0.301,-1.058 0.247,-0.965 0.215,-0.92 0.196,-0.871 0.17,-0.826 c -0.023,0.047 -0.04,0.094 -0.06,0.14 -0.015,0.046 -0.032,0.091 -0.043,0.135 -0.011,0.044 -0.023,0.087 -0.031,0.128 -0.007,0.041 -0.012,0.08 -0.019,0.118 -0.004,0.036 -0.007,0.07 -0.01,0.1 -0.003,0.031 -0.005,0.06 -0.004,0.086 C 0.002,-0.094 0.002,-0.072 0.002,-0.054 0.001,-0.019 0,0 0,0"
         style="fill:#000000;fill-opacity:1;fill-rule:nonzero;stroke:none"
         id="path1288"
         inkscape:connector-curvature="0" />
    </g>
    <g
       id="g1290"
       transform="matrix(0.35277777,0,0,-0.35277777,122.52418,172.15174)">
      <path
         d="m 0,0 c 0,0 -0.009,-0.01 -0.024,-0.028 -0.008,-0.009 -0.017,-0.021 -0.028,-0.034 -0.012,-0.013 -0.022,-0.03 -0.033,-0.05 -0.012,-0.021 -0.024,-0.044 -0.037,-0.07 -0.011,-0.026 -0.021,-0.055 -0.032,-0.086 -0.011,-0.031 -0.016,-0.065 -0.025,-0.102 -0.007,-0.037 -0.008,-0.077 -0.012,-0.119 -0.001,-0.041 0.001,-0.085 0.006,-0.131 0.006,-0.045 0.013,-0.093 0.027,-0.14 0.025,-0.096 0.07,-0.192 0.13,-0.285 C 0.033,-1.138 0.115,-1.223 0.208,-1.296 0.256,-1.33 0.306,-1.365 0.36,-1.391 0.387,-1.405 0.413,-1.42 0.442,-1.43 L 0.484,-1.446 0.505,-1.454 0.516,-1.458 0.521,-1.46 0.524,-1.461 0.525,-1.462 0.54,-1.466 0.608,-1.484 C 0.621,-1.487 0.627,-1.49 0.645,-1.493 l 0.05,-0.008 c 0.069,-0.012 0.128,-0.012 0.187,-0.013 0.119,0.004 0.235,0.025 0.339,0.064 0.104,0.041 0.198,0.092 0.274,0.155 0.04,0.03 0.073,0.065 0.105,0.097 0.031,0.035 0.058,0.07 0.083,0.103 0.021,0.037 0.044,0.069 0.06,0.103 0.015,0.035 0.03,0.066 0.04,0.098 0.009,0.032 0.018,0.061 0.025,0.088 0.005,0.028 0.008,0.053 0.01,0.076 0.008,0.045 10e-4,0.083 0.002,0.106 -0.002,0.024 -0.004,0.037 -0.004,0.037 0,0 -0.009,-0.009 -0.027,-0.026 C 1.772,-0.629 1.749,-0.654 1.717,-0.681 1.701,-0.694 1.684,-0.709 1.666,-0.725 1.646,-0.74 1.626,-0.756 1.605,-0.771 1.56,-0.802 1.511,-0.833 1.457,-0.861 1.402,-0.888 1.345,-0.914 1.282,-0.931 1.222,-0.952 1.156,-0.962 1.091,-0.97 1.026,-0.978 0.959,-0.976 0.894,-0.971 0.878,-0.968 0.861,-0.967 0.845,-0.965 0.827,-0.964 0.818,-0.959 0.804,-0.957 l -0.019,0.003 c -0.003,0 -0.008,0.002 -0.014,0.004 L 0.754,-0.946 0.686,-0.927 C 0.713,-0.935 0.693,-0.929 0.699,-0.931 L 0.698,-0.93 H 0.697 L 0.694,-0.929 0.688,-0.927 0.677,-0.922 0.653,-0.914 C 0.637,-0.909 0.622,-0.902 0.607,-0.895 0.576,-0.882 0.548,-0.866 0.519,-0.851 0.463,-0.816 0.408,-0.779 0.36,-0.735 0.312,-0.69 0.264,-0.644 0.228,-0.591 0.188,-0.54 0.157,-0.486 0.128,-0.432 0.115,-0.405 0.102,-0.378 0.091,-0.351 0.081,-0.325 0.07,-0.298 0.062,-0.273 0.054,-0.248 0.047,-0.223 0.04,-0.2 0.034,-0.177 0.029,-0.155 0.024,-0.136 0.013,-0.097 0.011,-0.059 0.007,-0.036 0.003,-0.013 0,0 0,0"
         style="fill:#000000;fill-opacity:1;fill-rule:nonzero;stroke:none"
         id="path1292"
         inkscape:connector-curvature="0" />
    </g>
  </g>
</svg>
