<?xml version="1.0" encoding="UTF-8" standalone="no"?>
<!-- Created with Inkscape (http://www.inkscape.org/) -->

<svg
   xmlns:dc="http://purl.org/dc/elements/1.1/"
   xmlns:cc="http://creativecommons.org/ns#"
   xmlns:rdf="http://www.w3.org/1999/02/22-rdf-syntax-ns#"
   xmlns:svg="http://www.w3.org/2000/svg"
   xmlns="http://www.w3.org/2000/svg"
   xmlns:sodipodi="http://sodipodi.sourceforge.net/DTD/sodipodi-0.dtd"
   xmlns:inkscape="http://www.inkscape.org/namespaces/inkscape"
   width="3.4999127mm"
   height="6.8587761mm"
   viewBox="0 0 3.4999127 6.8587761"
   version="1.1"
   id="svg4169"
   inkscape:version="0.92.4 5da689c313, 2019-01-14"
   sodipodi:docname="vandalism.svg">
  <defs
     id="defs4163">
    <clipPath
       clipPathUnits="userSpaceOnUse"
       id="clipPath1384">
      <path
         d="M 0,0 H 595.275 V 841.89 H 0 Z"
         id="path1382"
         inkscape:connector-curvature="0" />
    </clipPath>
  </defs>
  <sodipodi:namedview
     id="base"
     pagecolor="#ffffff"
     bordercolor="#666666"
     borderopacity="1.0"
     inkscape:pageopacity="0.0"
     inkscape:pageshadow="2"
     inkscape:zoom="29.934885"
     inkscape:cx="5.5283186"
     inkscape:cy="18.023553"
     inkscape:document-units="mm"
     inkscape:current-layer="layer1"
     showgrid="false"
     fit-margin-top="0"
     fit-margin-left="0"
     fit-margin-right="0"
     fit-margin-bottom="0"
     inkscape:window-width="3000"
     inkscape:window-height="1888"
     inkscape:window-x="0"
     inkscape:window-y="56"
     inkscape:window-maximized="1"
     inkscape:pagecheckerboard="true" />
  <metadata
     id="metadata4166">
    <rdf:RDF>
      <cc:Work
         rdf:about="">
        <dc:format>image/svg+xml</dc:format>
        <dc:type
           rdf:resource="http://purl.org/dc/dcmitype/StillImage" />
        <dc:title></dc:title>
      </cc:Work>
    </rdf:RDF>
  </metadata>
  <g
     inkscape:label="Layer 1"
     inkscape:groupmode="layer"
     id="layer1"
     transform="translate(-60.238139,-137.84442)">
    <path
       style="fill:#000000;fill-opacity:1;fill-rule:nonzero;stroke:none;stroke-width:1.33333337"
       d="M 6.5820312 3.2617188 L 4.0703125 3.2832031 C 4.0703125 3.2832031 4.0703125 3.2851562 4.0703125 3.2851562 L 6.5820312 3.2617188 z M 9.6113281 3.5898438 C 9.6002325 3.5910415 9.5915676 3.5975799 9.5800781 3.5976562 L 3.6074219 3.6484375 L 3.6035156 3.6484375 C 3.5636059 3.6484375 3.5252715 3.6375979 3.4882812 3.625 C 3.373701 3.6675726 3.2770682 3.7069121 3.109375 3.7578125 C 2.0546903 4.0777873 1.8156948 5.1086089 1.8183594 5.3886719 C 1.8185134 5.4048381 1.8061175 5.418411 1.8007812 5.4335938 L 11.638672 5.3457031 C 11.409957 5.1814465 11.177579 4.9686132 11.048828 4.6542969 C 10.748318 3.9200312 9.934957 3.6185541 9.6113281 3.5898438 z M 12.300781 5.7011719 L 0.95507812 5.7988281 C 0.95499627 5.7988406 0.94921875 5.8007812 0.94921875 5.8007812 L 2.6914062 6.4570312 L 10.443359 6.3886719 L 12.300781 5.7011719 z M 9.4433594 6.7578125 L 3.6269531 6.8085938 L 6.4433594 7.8671875 L 9.4433594 6.7578125 z "
       transform="matrix(0.26458333,0,0,0.26458333,60.238139,137.84442)"
       id="path1396" />
    <path
       style="fill:#000000;fill-opacity:1;fill-rule:nonzero;stroke:none;stroke-width:1.33333337"
       d="M 12.605469 6.7304688 L 0.58789062 6.8339844 L 0.81445312 24.007812 C 0.81445312 24.007812 1.2860529 25.5625 6.6367188 25.5625 L 6.8828125 25.5625 C 12.464132 25.513177 12.832031 24.234375 12.832031 24.234375 L 12.605469 6.7304688 z "
       transform="matrix(0.26458333,0,0,0.26458333,60.238139,137.84442)"
       id="path1404" />
    <path
       inkscape:connector-curvature="0"
       id="path1412"
       style="fill:#000000;fill-opacity:1;fill-rule:nonzero;stroke:none;stroke-width:0.35277778"
       d="m 60.334732,139.60566 c -0.02611,0 -0.04727,-0.0212 -0.04763,-0.0473 l -0.0014,-0.1778 c -3.53e-4,-0.0127 0.0046,-0.0247 0.0134,-0.0339 0.0088,-0.009 0.02117,-0.0138 0.03351,-0.0141 l 3.308703,-0.0286 c 0.02611,0 0.04727,0.0208 0.04763,0.0469 l 0.0014,0.17816 c 3.53e-4,0.0123 -0.0046,0.0247 -0.0134,0.0335 -0.0088,0.009 -0.02117,0.0141 -0.03351,0.0145 l -3.308703,0.0286" />
    <path
       style="fill:#000000;fill-opacity:1;fill-rule:nonzero;stroke:none;stroke-width:1.33333337"
       d="M 9.5703125 2.5644531 L 3.5976562 2.6171875 L 3.6035156 3.2890625 L 9.5742188 3.2363281 L 9.5703125 2.5644531 z "
       transform="matrix(0.26458333,0,0,0.26458333,60.238139,137.84442)"
       id="path1420" />
    <path
       style="fill:#000000;fill-opacity:1;fill-rule:nonzero;stroke:none;stroke-width:1.33333337"
       d="M 7.8535156 0.359375 C 7.8535156 0.359375 7.0575938 0.59765625 6.4335938 0.59765625 L 6.4179688 0.59765625 C 5.7633017 0.59349877 4.9824219 0.4296875 4.9824219 0.4296875 L 4.9394531 2.265625 L 8.1015625 2.2402344 L 7.8535156 0.359375 z M 6.5058594 0.8046875 C 6.5778594 0.8046875 6.6488032 0.8183638 6.7167969 0.84179688 C 7.0368095 0.95896222 7.2038994 1.3191896 7.0878906 1.6445312 C 6.9999032 1.8913344 6.764534 2.0566406 6.5058594 2.0566406 L 6.5058594 2.0585938 C 6.4338594 2.0585938 6.3648687 2.0459879 6.296875 2.0195312 C 5.9768624 1.902366 5.8097725 1.5427689 5.9257812 1.21875 C 6.0137687 0.97081299 6.2471847 0.8046875 6.5058594 0.8046875 z "
       transform="matrix(0.26458333,0,0,0.26458333,60.238139,137.84442)"
       id="path1428" />
  </g>
</svg>
