<?xml version="1.0" encoding="UTF-8" standalone="no"?>
<!-- Created with Inkscape (http://www.inkscape.org/) -->

<svg
   xmlns:dc="http://purl.org/dc/elements/1.1/"
   xmlns:cc="http://creativecommons.org/ns#"
   xmlns:rdf="http://www.w3.org/1999/02/22-rdf-syntax-ns#"
   xmlns:svg="http://www.w3.org/2000/svg"
   xmlns="http://www.w3.org/2000/svg"
   xmlns:sodipodi="http://sodipodi.sourceforge.net/DTD/sodipodi-0.dtd"
   xmlns:inkscape="http://www.inkscape.org/namespaces/inkscape"
   width="34.906498mm"
   height="17.441162mm"
   viewBox="0 0 34.906498 17.441162"
   version="1.1"
   id="svg2252"
   inkscape:version="0.92.4 5da689c313, 2019-01-14"
   sodipodi:docname="logo (copy).svg">
  <defs
     id="defs2246">
    <clipPath
       clipPathUnits="userSpaceOnUse"
       id="clipPath976">
      <path
         d="M 14.173,715.038 H 126.849 V 827.715 H 14.173 Z"
         id="path974"
         inkscape:connector-curvature="0" />
    </clipPath>
  </defs>
  <sodipodi:namedview
     id="base"
     pagecolor="#ffffff"
     bordercolor="#666666"
     borderopacity="1.0"
     inkscape:pageopacity="0.0"
     inkscape:pageshadow="2"
     inkscape:zoom="7.304751"
     inkscape:cx="76.693624"
     inkscape:cy="32.240204"
     inkscape:document-units="mm"
     inkscape:current-layer="layer1"
     showgrid="false"
     fit-margin-top="0"
     fit-margin-left="0"
     fit-margin-right="0"
     fit-margin-bottom="0"
     inkscape:window-width="3000"
     inkscape:window-height="1888"
     inkscape:window-x="0"
     inkscape:window-y="56"
     inkscape:window-maximized="1"
     inkscape:pagecheckerboard="true" />
  <metadata
     id="metadata2249">
    <rdf:RDF>
      <cc:Work
         rdf:about="">
        <dc:format>image/svg+xml</dc:format>
        <dc:type
           rdf:resource="http://purl.org/dc/dcmitype/StillImage" />
        <dc:title></dc:title>
      </cc:Work>
    </rdf:RDF>
  </metadata>
  <g
     inkscape:label="Layer 1"
     inkscape:groupmode="layer"
     id="layer1"
     transform="translate(-2.8740351,-268.21421)">
    <path
       inkscape:connector-curvature="0"
       id="path984"
       style="fill-opacity:1;fill-rule:nonzero;stroke:none;stroke-width:0.35277778"
       d="m 31.471375,279.18846 c -0.857956,0.28892 -0.819503,-0.11783 -0.827264,-0.78952 v -7.8874 l -1.391708,0.23318 v 7.30392 c 0,0 -0.239889,1.47002 -1.013178,1.77059 -0.758119,0.12735 -0.664633,-0.25083 -0.684389,-1.00083 l -0.0025,3.5e-4 v -3.23568 l 1.100314,-0.80751 v -0.44273 l -0.13582,0.0226 c -0.739775,0.12277 -1.048103,-0.40534 -1.079853,-1.12924 v -0.84349 -1.36878 c -0.761647,0.13053 -1.378302,0.84314 -1.39065,1.60197 h -0.0014 v 1.22696 h 0.0014 c 0.01058,0.67768 0.511175,1.15358 1.164873,1.15252 l -1.050925,0.48507 0.0064,3.98392 c 0.01164,0.70556 0.553861,1.18675 1.246716,1.14441 0.2413,-0.008 0.3175,-0.0141 0.509059,-0.061 0.304447,-0.0822 0.545394,-0.25894 0.731661,-0.47448 v -0.002 l 0.0032,-10e-4 c 0.46355,-0.53516 0.603602,-1.28234 0.603602,-1.28234 0,0.74118 0.462139,1.0802 0.598312,1.16452 0.221897,0.11535 0.488597,0.14816 0.779638,0.1143 h 3.53e-4 c 0.0014,-3.6e-4 0.511175,-0.0596 0.832203,-0.14852 z" />
    <path
       inkscape:connector-curvature="0"
       id="path988"
       style="fill-opacity:1;fill-rule:nonzero;stroke:none;stroke-width:0.35277778"
       d="m 30.644006,268.53683 -1.392767,0.25612 v 1.20826 l 1.392767,-0.20602 z" />
    <path
       inkscape:connector-curvature="0"
       id="path992"
       style="fill-opacity:1;fill-rule:nonzero;stroke:none;stroke-width:0.35277778"
       d="m 32.613705,277.4401 c 0.0053,0.0639 0.01129,1.48449 0.01129,1.48449 0,0 0.05997,1.09079 2.141361,1.09079 0,0 -0.749653,-0.0864 -0.749653,-1.38289 v -0.50694 c 0.0025,-0.0166 0.162631,-1.69898 -2.107494,-1.83409 1.801283,-0.0981 2.076097,-1.14336 2.107494,-1.5995 v -10e-4 c 0.0085,-0.12735 0,-5.07612 0,-5.07612 0,-0.52034 0.151695,-0.69038 0.377825,-0.73166 0.455436,-0.0826 0.439561,0.20849 0.447675,0.76447 v 0.1263 l 0.0021,-7.1e-4 1.388886,-0.23213 0.0011,-0.17286 h -0.0011 c -0.0127,-0.75283 -0.627239,-1.25765 -1.386417,-1.13594 v -10e-4 c -0.0014,10e-4 -0.0025,10e-4 -0.0039,10e-4 0,7e-4 -0.23107,0.0392 -0.23107,0.0392 -2.006952,0.33725 -1.986844,1.57621 -1.986844,1.57621 l 7.05e-4,-7.1e-4 c 0,0 -0.0067,5.25498 -0.01199,5.31813 -0.02999,0.2734 -0.18415,0.94579 -0.976489,0.94579 v 0.38418 c 0.791986,0 0.94615,0.67133 0.976489,0.94509" />
    <path
       inkscape:connector-curvature="0"
       id="path996"
       style="fill-opacity:1;fill-rule:nonzero;stroke:none;stroke-width:0.35277778"
       d="m 37.718823,278.86123 c -0.375003,-1.29117 -3.126669,-1.59879 -3.111147,0.0427 0.0046,0.50835 0.413455,0.84878 0.91828,0.75706 0.518231,-0.0942 0.962731,-0.79269 0.45085,-1.19169 0.614186,-0.0455 1.128889,0.42122 0.905934,1.05093 -0.198614,0.56092 -0.793045,0.9144 -1.332089,1.07844 -1.007181,0.30656 -2.045758,0.12982 -3.075164,0.20955 -1.166283,0.09 -3.499908,0.41381 -3.468511,2.01119 0.02752,1.38747 2.504722,2.08879 3.082925,0.73201 0.221897,-0.52035 -0.01517,-1.13841 -0.608895,-1.18992 -0.5969,-0.0522 -1.279525,0.73237 -0.677333,1.20474 -0.801158,0.0512 -1.213555,-0.67945 -0.751769,-1.33809 0.424744,-0.60537 1.172633,-0.84631 1.874308,-0.93698 0.624769,-0.0808 1.256947,-0.043 1.885597,-0.0469 0.765528,-0.005 1.544461,-0.1083 2.276828,-0.33619 0.883355,-0.27482 1.962855,-0.9525 1.630186,-2.04682 -0.04798,-0.1651 0.04974,0.16334 0,0" />
    <path
       inkscape:connector-curvature="0"
       id="path1000"
       style="fill-opacity:1;fill-rule:nonzero;stroke:none;stroke-width:0.35277778"
       d="m 25.247282,272.71584 c -0.0127,-0.75247 -0.640997,-1.26682 -1.386064,-1.13665 -1.319036,0.27129 -1.529997,1.04916 -1.529997,1.04916 -0.03246,-0.14428 -0.220486,-0.33337 -0.224367,-0.33725 -0.213783,-0.19721 -0.739422,-0.48825 -1.84538,-0.18133 v 0.77858 l 0.173214,-0.0321 c 0.708025,-0.11748 0.668161,0.2099 0.677686,0.87241 v 7.88282 l 1.39065,-0.23353 0.006,-7.89482 c 0.0099,-0.27446 0.154517,-0.85372 0.525286,-1.0227 0.249414,-0.10936 0.808567,-0.248 0.820914,0.71014 l 7.05e-4,6.56625 c 0,1.19839 -0.692502,1.34867 -0.758119,1.33527 v 0.006 c 0.887942,0.24659 1.417814,-0.11712 1.710619,-0.47766 0.256117,-0.28434 0.420864,-0.64805 0.436387,-1.02623 l 0.0035,-6.83507 v -0.0236 z" />
    <path
       inkscape:connector-curvature="0"
       id="path1004"
       style="fill-opacity:1;fill-rule:nonzero;stroke:none;stroke-width:0.35277778"
       d="m 9.1831934,274.6812 c 0.8579556,-0.28892 0.8195026,0.11783 0.8272636,0.78952 v 7.8874 l 1.391709,-0.23318 v -7.30392 c 0,0 0.239888,-1.47002 1.013177,-1.77059 0.75812,-0.12735 0.664634,0.25083 0.684389,1.00083 l 0.0025,-3.5e-4 v 3.23568 l -1.100667,0.80715 v 0.44309 l 0.136172,-0.0226 c 0.739775,-0.12277 1.048103,0.40534 1.079853,1.12924 v 0.84349 1.36878 c 0.761647,-0.13053 1.378303,-0.84314 1.39065,-1.60197 h 0.0014 v -1.22696 h -0.0014 c -0.01058,-0.67804 -0.511175,-1.15358 -1.164872,-1.15288 l 1.050925,-0.48471 -0.0063,-3.98392 c -0.01164,-0.70556 -0.553861,-1.18675 -1.246717,-1.14441 -0.2413,0.008 -0.3175,0.0141 -0.509411,0.061 -0.304447,0.0822 -0.545042,0.25894 -0.731308,0.47448 v 0.002 l -0.0032,0.001 c -0.46355,0.53516 -0.603603,1.28234 -0.603603,1.28234 0,-0.74118 -0.462139,-1.0802 -0.598311,-1.16452 -0.221897,-0.11535 -0.488597,-0.14816 -0.779639,-0.1143 h -7.06e-4 c -0.0011,3.6e-4 -0.5108218,0.0596 -0.8318496,0.14852 z" />
    <path
       inkscape:connector-curvature="0"
       id="path1008"
       style="fill-opacity:1;fill-rule:nonzero;stroke:none;stroke-width:0.35277778"
       d="m 10.010598,285.33283 1.392767,-0.25612 v -1.20826 l -1.392767,0.20602 z" />
    <path
       inkscape:connector-curvature="0"
       id="path1012"
       style="fill-opacity:1;fill-rule:nonzero;stroke:none;stroke-width:0.35277778"
       d="m 8.0408637,276.42949 c -0.00529,-0.0639 -0.011289,-1.48449 -0.011289,-1.48449 0,0 -0.059972,-1.09079 -2.1417138,-1.09079 0,0 0.7496527,0.0864 0.7496527,1.38289 v 0.50694 c -0.00212,0.0166 -0.1622777,1.69898 2.1078472,1.83409 -1.8012833,0.0981 -2.0760972,1.14336 -2.1078472,1.5995 v 10e-4 c -0.00847,0.12735 0,5.07612 0,5.07612 0,0.52034 -0.1513416,0.69038 -0.3774722,0.73166 -0.4554361,0.0826 -0.4395611,-0.20814 -0.447675,-0.76447 v -0.1263 l -0.00212,7.1e-4 -1.3888861,0.23213 -0.00106,0.17286 h 0.00106 c 0.0127,0.75283 0.6272389,1.25765 1.3864166,1.13594 v 0.001 c 0.00141,-0.001 0.00247,-0.001 0.00388,-0.001 0,-7e-4 0.2310694,-0.0392 0.2310694,-0.0392 2.0069527,-0.33725 1.9868444,-1.57621 1.9868444,-1.57621 l -7.055e-4,7.1e-4 c 0,0 0.0067,-5.25498 0.011994,-5.31813 0.029986,-0.2734 0.18415,-0.94579 0.9764889,-0.94579 v -0.38418 c -0.7919861,0 -0.94615,-0.67133 -0.9764889,-0.94509" />
    <path
       inkscape:connector-curvature="0"
       id="path1016"
       style="fill-opacity:1;fill-rule:nonzero;stroke:none;stroke-width:0.35277778"
       d="m 2.935746,275.0084 c 0.3750028,1.29117 3.1266694,1.59879 3.1111472,-0.0427 -0.00459,-0.50835 -0.4134556,-0.84878 -0.9182806,-0.75706 -0.5182305,0.0942 -0.9627305,0.79269 -0.45085,1.19169 -0.6141861,0.0455 -1.1288888,-0.42122 -0.9059333,-1.05093 0.1986139,-0.56092 0.7930444,-0.9144 1.3320889,-1.07844 1.0071805,-0.30656 2.0457583,-0.12982 3.0751638,-0.20955 1.1662833,-0.09 3.499908,-0.41381 3.468511,-2.01119 -0.02752,-1.38747 -2.5047221,-2.08879 -3.0829249,-0.73201 -0.2218972,0.52035 0.015169,1.13841 0.6088944,1.18992 0.5969,0.0522 1.2795255,-0.73237 0.6773333,-1.20474 0.8011582,-0.0512 1.2135552,0.67945 0.7517692,1.33809 -0.424744,0.60537 -1.172633,0.84631 -1.874308,0.93698 -0.6247694,0.0808 -1.2569472,0.043 -1.8855972,0.0469 -0.7655278,0.005 -1.5444611,0.1083 -2.2768277,0.33619 -0.8833556,0.27482 -1.9628555,0.9525 -1.6301861,2.04682 0.047978,0.1651 -0.049742,-0.16334 0,0" />
    <path
       inkscape:connector-curvature="0"
       id="path1020"
       style="fill-opacity:1;fill-rule:nonzero;stroke:none;stroke-width:0.35277778"
       d="m 15.407287,281.15375 c 0.0127,0.75247 0.640997,1.26682 1.386064,1.13665 1.319036,-0.27129 1.529997,-1.04916 1.529997,-1.04916 0.03246,0.14428 0.220486,0.33337 0.224367,0.33725 0.213783,0.19721 0.739422,0.48825 1.84538,0.18133 v -0.77858 l -0.173214,0.0321 c -0.708025,0.11748 -0.668161,-0.2099 -0.677686,-0.87241 v -7.88282 l -1.39065,0.23353 -0.006,7.89482 c -0.0099,0.27446 -0.154517,0.85372 -0.525286,1.0227 -0.249414,0.10936 -0.808567,0.248 -0.820914,-0.71014 l -7.05e-4,-6.56625 c 0,-1.19839 0.692502,-1.34867 0.758119,-1.33527 v -0.006 c -0.887942,-0.24659 -1.417814,0.11677 -1.710619,0.47766 -0.256117,0.28434 -0.421217,0.64805 -0.436387,1.02623 l -0.0035,6.83507 v 0.0236 z" />
  </g>
</svg>
